<svg width="30" height="20" viewBox="0 0 30 20" fill="none" xmlns="http://www.w3.org/2000/svg">
<path d="M29.4827 19.8273H0.517265C0.231621 19.8273 0 19.5956 0 19.31V0.689353C0 0.403709 0.231621 0.172089 0.517265 0.172089H29.4827C29.7684 0.172089 30 0.403709 30 0.689353V19.31C29.9999 19.5957 29.7683 19.8273 29.4827 19.8273Z" fill="#41479B"/>
<path d="M15.2107 2.42305L15.4181 3.0449L16.0736 3.05C16.1585 3.05065 16.1936 3.15893 16.1254 3.20938L15.598 3.59879L15.7957 4.22375C15.8213 4.30461 15.7292 4.37164 15.6601 4.32224L15.1269 3.94103L14.5936 4.32224C14.5246 4.37158 14.4324 4.30466 14.458 4.22375L14.6557 3.59879L14.1284 3.20938C14.0601 3.15893 14.0953 3.05065 14.1802 3.05L14.8357 3.0449L15.0431 2.42305C15.0699 2.34254 15.1838 2.34254 15.2107 2.42305Z" fill="#FFE15A"/>
<path d="M15.2107 15.7741L15.4181 16.3959L16.0736 16.401C16.1585 16.4017 16.1936 16.5099 16.1254 16.5604L15.598 16.9498L15.7957 17.5748C15.8213 17.6556 15.7292 17.7227 15.6601 17.6733L15.1269 17.2921L14.5936 17.6733C14.5246 17.7226 14.4324 17.6557 14.458 17.5748L14.6557 16.9498L14.1284 16.5604C14.0601 16.5099 14.0953 16.4017 14.1802 16.401L14.8357 16.3959L15.0431 15.7741C15.0699 15.6936 15.1838 15.6936 15.2107 15.7741Z" fill="#FFE15A"/>
<path d="M21.8871 9.09889L22.0946 9.72075L22.75 9.72585C22.8349 9.72649 22.8701 9.83477 22.8018 9.88522L22.2745 10.2746L22.4722 10.8996C22.4978 10.9805 22.4057 11.0475 22.3366 10.9981L21.8033 10.6169L21.2701 10.9981C21.2011 11.0474 21.1089 10.9805 21.1345 10.8996L21.3322 10.2746L20.8049 9.88522C20.7366 9.83477 20.7717 9.72649 20.8566 9.72585L21.5121 9.72075L21.7196 9.09889C21.7463 9.01839 21.8603 9.01839 21.8871 9.09889Z" fill="#FFE15A"/>
<path d="M8.53582 9.09889L8.74324 9.72075L9.39873 9.72585C9.48363 9.72649 9.51878 9.83477 9.45052 9.88522L8.92318 10.2746L9.12088 10.8996C9.14648 10.9805 9.05437 11.0475 8.98529 10.9981L8.45203 10.6169L7.91877 10.9981C7.84974 11.0474 7.75758 10.9805 7.78318 10.8996L7.98088 10.2746L7.45353 9.88522C7.38527 9.83477 7.42043 9.72649 7.50533 9.72585L8.16082 9.72075L8.36824 9.09889C8.39508 9.01839 8.50904 9.01839 8.53582 9.09889Z" fill="#FFE15A"/>
<path d="M9.53673 5.61293L9.74415 6.23479L10.3996 6.23988C10.4845 6.24053 10.5197 6.34881 10.4514 6.39926L9.9241 6.78867L10.1218 7.41363C10.1474 7.49449 10.0553 7.56152 9.9862 7.51213L9.45294 7.13092L8.91968 7.51213C8.85066 7.56146 8.75849 7.49455 8.7841 7.41363L8.98179 6.78867L8.45445 6.39926C8.38619 6.34881 8.42134 6.24053 8.50625 6.23988L9.16173 6.23479L9.36915 5.61293C9.39599 5.53242 9.50984 5.53242 9.53673 5.61293Z" fill="#FFE15A"/>
<path d="M21.1008 12.2881L21.3082 12.91L21.9637 12.9151C22.0486 12.9157 22.0837 13.024 22.0155 13.0744L21.4881 13.4638L21.6858 14.0888C21.7114 14.1697 21.6193 14.2367 21.5502 14.1873L21.017 13.8061L20.4837 14.1873C20.4147 14.2366 20.3225 14.1697 20.3481 14.0888L20.5458 13.4638L20.0185 13.0744C19.9502 13.024 19.9854 12.9157 20.0703 12.9151L20.7258 12.91L20.9332 12.2881C20.96 12.2076 21.0739 12.2076 21.1008 12.2881Z" fill="#FFE15A"/>
<path d="M18.6567 3.16893L18.8641 3.79079L19.5196 3.79588C19.6045 3.79653 19.6396 3.90481 19.5714 3.95526L19.044 4.34467L19.2417 4.96963C19.2673 5.05049 19.1752 5.11752 19.1061 5.06813L18.5729 4.68692L18.0396 5.06813C17.9706 5.11746 17.8784 5.05055 17.904 4.96963L18.1017 4.34467L17.5744 3.95526C17.5061 3.90481 17.5413 3.79653 17.6262 3.79588L18.2817 3.79079L18.4891 3.16893C18.5159 3.08842 18.6297 3.08842 18.6567 3.16893Z" fill="#FFE15A"/>
<path d="M11.9818 14.7315L12.1892 15.3533L12.8447 15.3584C12.9296 15.3591 12.9648 15.4673 12.8965 15.5178L12.3692 15.9072L12.5669 16.5322C12.5925 16.613 12.5004 16.6801 12.4313 16.6307L11.898 16.2494L11.3648 16.6307C11.2957 16.68 11.2036 16.6131 11.2292 16.5322L11.4269 15.9072L10.8995 15.5178C10.8313 15.4673 10.8664 15.3591 10.9513 15.3584L11.6068 15.3533L11.8142 14.7315C11.8411 14.651 11.9549 14.651 11.9818 14.7315Z" fill="#FFE15A"/>
<path d="M20.9332 5.61293L20.7258 6.23479L20.0703 6.23988C19.9854 6.24053 19.9502 6.34881 20.0185 6.39926L20.5458 6.78867L20.3481 7.41363C20.3225 7.49449 20.4146 7.56152 20.4837 7.51213L21.017 7.13092L21.5502 7.51213C21.6193 7.56146 21.7114 7.49455 21.6858 7.41363L21.4881 6.78867L22.0155 6.39926C22.0837 6.34881 22.0486 6.24053 21.9637 6.23988L21.3082 6.23479L21.1008 5.61293C21.0739 5.53242 20.96 5.53242 20.9332 5.61293Z" fill="#FFE15A"/>
<path d="M9.36915 12.2881L9.16173 12.91L8.50625 12.9151C8.42134 12.9157 8.38619 13.024 8.45445 13.0744L8.98179 13.4638L8.7841 14.0888C8.75849 14.1697 8.8506 14.2367 8.91968 14.1873L9.45294 13.8061L9.9862 14.1873C10.0552 14.2366 10.1474 14.1697 10.1218 14.0888L9.9241 13.4638L10.4514 13.0744C10.5197 13.024 10.4845 12.9157 10.3996 12.9151L9.74415 12.91L9.53673 12.2881C9.50984 12.2076 9.39599 12.2076 9.36915 12.2881Z" fill="#FFE15A"/>
<path d="M11.8142 3.16893L11.6068 3.79079L10.9513 3.79588C10.8664 3.79653 10.8313 3.90481 10.8995 3.95526L11.4269 4.34467L11.2292 4.96963C11.2036 5.05049 11.2957 5.11752 11.3648 5.06813L11.898 4.68692L12.4313 5.06813C12.5003 5.11746 12.5925 5.05055 12.5669 4.96963L12.3692 4.34467L12.8965 3.95526C12.9648 3.90481 12.9296 3.79653 12.8447 3.79588L12.1892 3.79079L11.9818 3.16893C11.9549 3.08842 11.8411 3.08842 11.8142 3.16893Z" fill="#FFE15A"/>
<path d="M18.4907 14.7315L18.2833 15.3533L17.6278 15.3584C17.5429 15.3591 17.5077 15.4673 17.576 15.5178L18.1033 15.9072L17.9056 16.5322C17.88 16.613 17.9722 16.6801 18.0412 16.6307L18.5745 16.2494L19.1078 16.6307C19.1768 16.68 19.2689 16.6131 19.2433 16.5322L19.0456 15.9072L19.573 15.5178C19.6413 15.4673 19.6061 15.3591 19.5212 15.3584L18.8657 15.3533L18.6583 14.7315C18.6314 14.651 18.5175 14.651 18.4907 14.7315Z" fill="#FFE15A"/>
</svg>
