<svg width="30" height="20" viewBox="0 0 30 20" fill="none" xmlns="http://www.w3.org/2000/svg">
<path d="M29.4827 19.8272H0.517265C0.231621 19.8272 0 19.5956 0 19.31V0.689322C0 0.403678 0.231621 0.172058 0.517265 0.172058H29.4827C29.7684 0.172058 30 0.403678 30 0.689322V19.31C29.9999 19.5957 29.7683 19.8272 29.4827 19.8272Z" fill="#F5F5F5"/>
<path d="M29.9999 1.68407H0V0.689322C0 0.403678 0.231621 0.172058 0.517265 0.172058H29.4827C29.7684 0.172058 30 0.403678 30 0.689322L29.9999 1.68407Z" fill="#FF4B55"/>
<path d="M29.9999 6.21994H0V7.73189H29.9999V6.21994Z" fill="#FF4B55"/>
<path d="M29.9999 3.19534H0V4.70729H29.9999V3.19534Z" fill="#FF4B55"/>
<path d="M29.9999 10.7554H0.517265C0.231621 10.7554 0 10.5238 0 10.2381V9.24341H29.9999V10.7554Z" fill="#FF4B55"/>
<path d="M29.9999 15.2919H0V16.8039H29.9999V15.2919Z" fill="#FF4B55"/>
<path d="M29.4827 19.8277H0.517265C0.231621 19.8277 0 19.5961 0 19.3104V18.3157H29.9999V19.3105C29.9999 19.5961 29.7683 19.8277 29.4827 19.8277Z" fill="#FF4B55"/>
<path d="M29.9999 12.2682H0V13.7802H29.9999V12.2682Z" fill="#FF4B55"/>
<path d="M13.4482 0.17215H0.517265C0.231621 0.17215 0 0.403711 0 0.689355V10.2384C0 10.524 0.231621 10.7556 0.517265 10.7556H13.4483C13.7339 10.7556 13.9656 10.524 13.9656 10.2384V0.689355C13.9655 0.403711 13.7339 0.17215 13.4482 0.17215Z" fill="#41479B"/>
<path d="M1.45129 1.35976L1.56578 1.70312L1.92771 1.70587C1.97458 1.70629 1.99398 1.76605 1.9563 1.79388L1.66515 2.00892L1.77437 2.35398C1.78855 2.39863 1.73763 2.43566 1.69949 2.40835L1.40506 2.19794L1.11062 2.40841C1.07248 2.43566 1.02168 2.39869 1.03574 2.35404L1.14496 2.00898L0.853808 1.79394C0.816132 1.76605 0.835526 1.70634 0.882401 1.70593L1.24433 1.70318L1.35883 1.35982C1.37359 1.31529 1.4364 1.31529 1.45129 1.35976Z" fill="#F5F5F5"/>
<path d="M1.45129 3.1554L1.56578 3.49876L1.92771 3.50152C1.97458 3.50193 1.99398 3.56169 1.9563 3.58952L1.66515 3.80456L1.77437 4.14962C1.78855 4.19427 1.73763 4.2313 1.69949 4.20399L1.40506 3.99358L1.11062 4.20405C1.07248 4.2313 1.02168 4.19433 1.03574 4.14968L1.14496 3.80462L0.853808 3.58958C0.816132 3.56169 0.835526 3.50199 0.882401 3.50158L1.24433 3.49882L1.35883 3.15546C1.37359 3.11099 1.4364 3.11099 1.45129 3.1554Z" fill="#F5F5F5"/>
<path d="M1.45129 4.95216L1.56578 5.29552L1.92771 5.29827C1.97458 5.29868 1.99398 5.35845 1.9563 5.38628L1.66515 5.60132L1.77437 5.94638C1.78855 5.99103 1.73763 6.02806 1.69949 6.00076L1.40506 5.79035L1.11062 6.00081C1.07248 6.02806 1.02168 5.99109 1.03574 5.94644L1.14496 5.60138L0.853808 5.38634C0.816132 5.35845 0.835526 5.29874 0.882401 5.29833L1.24433 5.29558L1.35883 4.95222C1.37359 4.90774 1.4364 4.90774 1.45129 4.95216Z" fill="#F5F5F5"/>
<path d="M1.45129 6.74831L1.56578 7.09167L1.92771 7.09443C1.97458 7.09484 1.99398 7.1546 1.9563 7.18243L1.66515 7.39747L1.77437 7.74253C1.78855 7.78718 1.73763 7.82421 1.69949 7.79691L1.40506 7.5865L1.11062 7.79696C1.07248 7.82421 1.02168 7.78724 1.03574 7.74259L1.14496 7.39753L0.853808 7.18249C0.816132 7.1546 0.835526 7.09489 0.882401 7.09448L1.24433 7.09173L1.35883 6.74837C1.37359 6.70384 1.4364 6.70384 1.45129 6.74831Z" fill="#F5F5F5"/>
<path d="M1.45129 8.54438L1.56578 8.88774L1.92771 8.89049C1.97458 8.8909 1.99398 8.95067 1.9563 8.9785L1.66515 9.19354L1.77437 9.5386C1.78855 9.58325 1.73763 9.62028 1.69949 9.59298L1.40506 9.38257L1.11062 9.59304C1.07248 9.62028 1.02168 9.58331 1.03574 9.53866L1.14496 9.1936L0.853808 8.97856C0.816132 8.95067 0.835526 8.89096 0.882401 8.89055L1.24433 8.8878L1.35883 8.54444C1.37359 8.49985 1.4364 8.49985 1.45129 8.54438Z" fill="#F5F5F5"/>
<path d="M2.84542 2.24068L2.95991 2.58404L3.32184 2.58679C3.36872 2.5872 3.38811 2.64697 3.35044 2.6748L3.05929 2.88984L3.16851 3.23489C3.18268 3.27954 3.13177 3.31657 3.09362 3.28927L2.79919 3.0788L2.50476 3.28927C2.46661 3.31651 2.41581 3.27954 2.42988 3.23489L2.53909 2.88984L2.24794 2.6748C2.21027 2.64691 2.22966 2.5872 2.27654 2.58679L2.63847 2.58404L2.75296 2.24068C2.76767 2.19626 2.8306 2.19626 2.84542 2.24068Z" fill="#F5F5F5"/>
<path d="M2.84542 4.03683L2.95991 4.38019L3.32184 4.38294C3.36872 4.38335 3.38811 4.44312 3.35044 4.47095L3.05929 4.68599L3.16851 5.03104C3.18268 5.07569 3.13177 5.11272 3.09362 5.08541L2.79919 4.87495L2.50476 5.08541C2.46661 5.11266 2.41581 5.07575 2.42988 5.03104L2.53909 4.68599L2.24794 4.47095C2.21027 4.44306 2.22966 4.38335 2.27654 4.38294L2.63847 4.38019L2.75296 4.03683C2.76767 3.99236 2.8306 3.99236 2.84542 4.03683Z" fill="#F5F5F5"/>
<path d="M2.84542 5.83267L2.95991 6.17603L3.32184 6.17878C3.36872 6.17919 3.38811 6.23896 3.35044 6.26679L3.05929 6.48183L3.16851 6.82689C3.18268 6.87154 3.13177 6.90857 3.09362 6.88126L2.79919 6.67079L2.50476 6.88126C2.46661 6.90851 2.41581 6.87154 2.42988 6.82689L2.53909 6.48183L2.24794 6.26679C2.21027 6.2389 2.22966 6.17919 2.27654 6.17878L2.63847 6.17603L2.75296 5.83267C2.76767 5.7882 2.8306 5.7882 2.84542 5.83267Z" fill="#F5F5F5"/>
<path d="M2.84542 7.62828L2.95991 7.97164L3.32184 7.97439C3.36872 7.9748 3.38811 8.03457 3.35044 8.0624L3.05929 8.27744L3.16851 8.6225C3.18268 8.66715 3.13177 8.70418 3.09362 8.67687L2.79919 8.4664L2.50476 8.67687C2.46661 8.70412 2.41581 8.66715 2.42988 8.6225L2.53909 8.27744L2.24794 8.0624C2.21027 8.03451 2.22966 7.9748 2.27654 7.97439L2.63847 7.97164L2.75296 7.62828C2.76767 7.58387 2.8306 7.58387 2.84542 7.62828Z" fill="#F5F5F5"/>
<path d="M4.23959 1.35965L4.35408 1.70301L4.71602 1.70576C4.76289 1.70617 4.78229 1.76593 4.74461 1.79377L4.45346 2.0088L4.56268 2.35386C4.57686 2.39851 4.52594 2.43554 4.48779 2.40823L4.19336 2.19777L3.89892 2.40823C3.86078 2.43548 3.80998 2.39851 3.82404 2.35386L3.93326 2.0088L3.64211 1.79377C3.60443 1.76588 3.62383 1.70617 3.6707 1.70576L4.03264 1.70301L4.14713 1.35965C4.16189 1.31518 4.22477 1.31518 4.23959 1.35965Z" fill="#F5F5F5"/>
<path d="M4.23959 3.1562L4.35408 3.49956L4.71602 3.50232C4.76289 3.50273 4.78229 3.56249 4.74461 3.59032L4.45346 3.80536L4.56268 4.15042C4.57686 4.19507 4.52594 4.2321 4.48779 4.2048L4.19336 3.99433L3.89892 4.2048C3.86078 4.23204 3.80998 4.19507 3.82404 4.15042L3.93326 3.80536L3.64211 3.59032C3.60443 3.56243 3.62383 3.50273 3.6707 3.50232L4.03264 3.49956L4.14713 3.1562C4.16189 3.11179 4.22477 3.11179 4.23959 3.1562Z" fill="#F5F5F5"/>
<path d="M4.23959 4.95204L4.35408 5.29541L4.71602 5.29816C4.76289 5.29857 4.78229 5.35834 4.74461 5.38617L4.45346 5.60121L4.56268 5.94627C4.57686 5.99092 4.52594 6.02795 4.48779 6.00065L4.19336 5.79018L3.89892 6.00065C3.86078 6.02789 3.80998 5.99092 3.82404 5.94627L3.93326 5.60121L3.64211 5.38617C3.60443 5.35828 3.62383 5.29857 3.6707 5.29816L4.03264 5.29541L4.14713 4.95204C4.16189 4.90763 4.22477 4.90763 4.23959 4.95204Z" fill="#F5F5F5"/>
<path d="M4.23959 6.7482L4.35408 7.09156L4.71602 7.09431C4.76289 7.09472 4.78229 7.15449 4.74461 7.18232L4.45346 7.39736L4.56268 7.74241C4.57686 7.78706 4.52594 7.82409 4.48779 7.79679L4.19336 7.58632L3.89892 7.79679C3.86078 7.82404 3.80998 7.78706 3.82404 7.74241L3.93326 7.39736L3.64211 7.18232C3.60443 7.15443 3.62383 7.09472 3.6707 7.09431L4.03264 7.09156L4.14713 6.7482C4.16189 6.70373 4.22477 6.70373 4.23959 6.7482Z" fill="#F5F5F5"/>
<path d="M4.23959 8.54426L4.35408 8.88762L4.71602 8.89038C4.76289 8.89079 4.78229 8.95055 4.74461 8.97838L4.45346 9.19342L4.56268 9.53848C4.57686 9.58313 4.52594 9.62016 4.48779 9.59286L4.19336 9.38239L3.89892 9.59286C3.86078 9.62011 3.80998 9.58313 3.82404 9.53848L3.93326 9.19342L3.64211 8.97838C3.60443 8.95049 3.62383 8.89079 3.6707 8.89038L4.03264 8.88762L4.14713 8.54426C4.16189 8.49973 4.22477 8.49973 4.23959 8.54426Z" fill="#F5F5F5"/>
<path d="M5.63473 2.24068L5.74922 2.58404L6.11115 2.58679C6.15803 2.5872 6.17742 2.64697 6.13975 2.6748L5.8486 2.88984L5.95781 3.23489C5.97199 3.27954 5.92108 3.31657 5.88293 3.28927L5.5885 3.0788L5.29406 3.28927C5.25592 3.31651 5.20512 3.27954 5.21918 3.23489L5.3284 2.88984L5.03725 2.6748C4.99957 2.64691 5.01897 2.5872 5.06584 2.58679L5.42778 2.58404L5.54227 2.24068C5.55697 2.19626 5.6199 2.19626 5.63473 2.24068Z" fill="#F5F5F5"/>
<path d="M5.63473 4.03683L5.74922 4.38019L6.11115 4.38294C6.15803 4.38335 6.17742 4.44312 6.13975 4.47095L5.8486 4.68599L5.95781 5.03104C5.97199 5.07569 5.92108 5.11272 5.88293 5.08541L5.5885 4.87495L5.29406 5.08541C5.25592 5.11266 5.20512 5.07575 5.21918 5.03104L5.3284 4.68599L5.03725 4.47095C4.99957 4.44306 5.01897 4.38335 5.06584 4.38294L5.42778 4.38019L5.54227 4.03683C5.55697 3.99236 5.6199 3.99236 5.63473 4.03683Z" fill="#F5F5F5"/>
<path d="M5.63473 5.83267L5.74922 6.17603L6.11115 6.17878C6.15803 6.17919 6.17742 6.23896 6.13975 6.26679L5.8486 6.48183L5.95781 6.82689C5.97199 6.87154 5.92108 6.90857 5.88293 6.88126L5.5885 6.67079L5.29406 6.88126C5.25592 6.90851 5.20512 6.87154 5.21918 6.82689L5.3284 6.48183L5.03725 6.26679C4.99957 6.2389 5.01897 6.17919 5.06584 6.17878L5.42778 6.17603L5.54227 5.83267C5.55697 5.7882 5.6199 5.7882 5.63473 5.83267Z" fill="#F5F5F5"/>
<path d="M5.63473 7.62828L5.74922 7.97164L6.11115 7.97439C6.15803 7.9748 6.17742 8.03457 6.13975 8.0624L5.8486 8.27744L5.95781 8.6225C5.97199 8.66715 5.92108 8.70418 5.88293 8.67687L5.5885 8.4664L5.29406 8.67687C5.25592 8.70412 5.20512 8.66715 5.21918 8.6225L5.3284 8.27744L5.03725 8.0624C4.99957 8.03451 5.01897 7.9748 5.06584 7.97439L5.42778 7.97164L5.54227 7.62828C5.55697 7.58387 5.6199 7.58387 5.63473 7.62828Z" fill="#F5F5F5"/>
<path d="M7.02795 1.35965L7.14244 1.70301L7.50437 1.70576C7.55125 1.70617 7.57064 1.76593 7.53296 1.79377L7.24181 2.0088L7.35103 2.35386C7.36521 2.39851 7.31429 2.43554 7.27615 2.40823L6.98166 2.19777L6.68722 2.40823C6.64908 2.43548 6.59828 2.39851 6.61234 2.35386L6.72156 2.0088L6.43041 1.79377C6.39273 1.76588 6.41213 1.70617 6.459 1.70576L6.82093 1.70301L6.93543 1.35965C6.95025 1.31518 7.01312 1.31518 7.02795 1.35965Z" fill="#F5F5F5"/>
<path d="M7.02795 3.1562L7.14244 3.49956L7.50437 3.50232C7.55125 3.50273 7.57064 3.56249 7.53296 3.59032L7.24181 3.80536L7.35103 4.15042C7.36521 4.19507 7.31429 4.2321 7.27615 4.2048L6.98166 3.99433L6.68722 4.2048C6.64908 4.23204 6.59828 4.19507 6.61234 4.15042L6.72156 3.80536L6.43041 3.59032C6.39273 3.56243 6.41213 3.50273 6.459 3.50232L6.82093 3.49956L6.93543 3.1562C6.95025 3.11179 7.01312 3.11179 7.02795 3.1562Z" fill="#F5F5F5"/>
<path d="M7.02795 4.95204L7.14244 5.29541L7.50437 5.29816C7.55125 5.29857 7.57064 5.35834 7.53296 5.38617L7.24181 5.60121L7.35103 5.94627C7.36521 5.99092 7.31429 6.02795 7.27615 6.00065L6.98166 5.79018L6.68722 6.00065C6.64908 6.02789 6.59828 5.99092 6.61234 5.94627L6.72156 5.60121L6.43041 5.38617C6.39273 5.35828 6.41213 5.29857 6.459 5.29816L6.82093 5.29541L6.93543 4.95204C6.95025 4.90763 7.01312 4.90763 7.02795 4.95204Z" fill="#F5F5F5"/>
<path d="M7.02795 6.7482L7.14244 7.09156L7.50437 7.09431C7.55125 7.09472 7.57064 7.15449 7.53296 7.18232L7.24181 7.39736L7.35103 7.74241C7.36521 7.78706 7.31429 7.82409 7.27615 7.79679L6.98166 7.58632L6.68722 7.79679C6.64908 7.82404 6.59828 7.78706 6.61234 7.74241L6.72156 7.39736L6.43041 7.18232C6.39273 7.15443 6.41213 7.09472 6.459 7.09431L6.82093 7.09156L6.93543 6.7482C6.95025 6.70373 7.01312 6.70373 7.02795 6.7482Z" fill="#F5F5F5"/>
<path d="M7.02795 8.54426L7.14244 8.88762L7.50437 8.89038C7.55125 8.89079 7.57064 8.95055 7.53296 8.97838L7.24181 9.19342L7.35103 9.53848C7.36521 9.58313 7.31429 9.62016 7.27615 9.59286L6.98166 9.38239L6.68722 9.59286C6.64908 9.62011 6.59828 9.58313 6.61234 9.53848L6.72156 9.19342L6.43041 8.97838C6.39273 8.95049 6.41213 8.89079 6.459 8.89038L6.82093 8.88762L6.93543 8.54426C6.95025 8.49973 7.01312 8.49973 7.02795 8.54426Z" fill="#F5F5F5"/>
<path d="M8.42303 2.24068L8.53752 2.58404L8.89946 2.58679C8.94634 2.5872 8.96573 2.64697 8.92805 2.6748L8.6369 2.88984L8.74612 3.23489C8.7603 3.27954 8.70938 3.31657 8.67124 3.28927L8.3768 3.0788L8.08237 3.28927C8.04422 3.31651 7.99342 3.27954 8.00748 3.23489L8.1167 2.88984L7.82555 2.6748C7.78787 2.64691 7.80727 2.5872 7.85414 2.58679L8.21608 2.58404L8.33057 2.24068C8.34539 2.19626 8.40821 2.19626 8.42303 2.24068Z" fill="#F5F5F5"/>
<path d="M8.42303 4.03683L8.53752 4.38019L8.89946 4.38294C8.94634 4.38335 8.96573 4.44312 8.92805 4.47095L8.6369 4.68599L8.74612 5.03104C8.7603 5.07569 8.70938 5.11272 8.67124 5.08541L8.3768 4.87495L8.08237 5.08541C8.04422 5.11266 7.99342 5.07575 8.00748 5.03104L8.1167 4.68599L7.82555 4.47095C7.78787 4.44306 7.80727 4.38335 7.85414 4.38294L8.21608 4.38019L8.33057 4.03683C8.34539 3.99236 8.40821 3.99236 8.42303 4.03683Z" fill="#F5F5F5"/>
<path d="M8.42303 5.83267L8.53752 6.17603L8.89946 6.17878C8.94634 6.17919 8.96573 6.23896 8.92805 6.26679L8.6369 6.48183L8.74612 6.82689C8.7603 6.87154 8.70938 6.90857 8.67124 6.88126L8.3768 6.67079L8.08237 6.88126C8.04422 6.90851 7.99342 6.87154 8.00748 6.82689L8.1167 6.48183L7.82555 6.26679C7.78787 6.2389 7.80727 6.17919 7.85414 6.17878L8.21608 6.17603L8.33057 5.83267C8.34539 5.7882 8.40821 5.7882 8.42303 5.83267Z" fill="#F5F5F5"/>
<path d="M8.42303 7.62828L8.53752 7.97164L8.89946 7.97439C8.94634 7.9748 8.96573 8.03457 8.92805 8.0624L8.6369 8.27744L8.74612 8.6225C8.7603 8.66715 8.70938 8.70418 8.67124 8.67687L8.3768 8.4664L8.08237 8.67687C8.04422 8.70412 7.99342 8.66715 8.00748 8.6225L8.1167 8.27744L7.82555 8.0624C7.78787 8.03451 7.80727 7.9748 7.85414 7.97439L8.21608 7.97164L8.33057 7.62828C8.34539 7.58387 8.40821 7.58387 8.42303 7.62828Z" fill="#F5F5F5"/>
<path d="M9.81451 1.35965L9.929 1.70301L10.2909 1.70576C10.3378 1.70617 10.3572 1.76593 10.3195 1.79377L10.0284 2.0088L10.1376 2.35386C10.1518 2.39851 10.1009 2.43554 10.0627 2.40823L9.76828 2.19777L9.47385 2.40823C9.4357 2.43548 9.3849 2.39851 9.39896 2.35386L9.50818 2.0088L9.21703 1.79377C9.17935 1.76588 9.19875 1.70617 9.24562 1.70576L9.60756 1.70301L9.72205 1.35965C9.73676 1.31518 9.79969 1.31518 9.81451 1.35965Z" fill="#F5F5F5"/>
<path d="M9.81451 3.1562L9.929 3.49956L10.2909 3.50232C10.3378 3.50273 10.3572 3.56249 10.3195 3.59032L10.0284 3.80536L10.1376 4.15042C10.1518 4.19507 10.1009 4.2321 10.0627 4.2048L9.76828 3.99433L9.47385 4.2048C9.4357 4.23204 9.3849 4.19507 9.39896 4.15042L9.50818 3.80536L9.21703 3.59032C9.17935 3.56243 9.19875 3.50273 9.24562 3.50232L9.60756 3.49956L9.72205 3.1562C9.73676 3.11179 9.79969 3.11179 9.81451 3.1562Z" fill="#F5F5F5"/>
<path d="M9.81451 4.95204L9.929 5.29541L10.2909 5.29816C10.3378 5.29857 10.3572 5.35834 10.3195 5.38617L10.0284 5.60121L10.1376 5.94627C10.1518 5.99092 10.1009 6.02795 10.0627 6.00065L9.76828 5.79018L9.47385 6.00065C9.4357 6.02789 9.3849 5.99092 9.39896 5.94627L9.50818 5.60121L9.21703 5.38617C9.17935 5.35828 9.19875 5.29857 9.24562 5.29816L9.60756 5.29541L9.72205 4.95204C9.73676 4.90763 9.79969 4.90763 9.81451 4.95204Z" fill="#F5F5F5"/>
<path d="M9.81451 6.7482L9.929 7.09156L10.2909 7.09431C10.3378 7.09472 10.3572 7.15449 10.3195 7.18232L10.0284 7.39736L10.1376 7.74241C10.1518 7.78706 10.1009 7.82409 10.0627 7.79679L9.76828 7.58632L9.47385 7.79679C9.4357 7.82404 9.3849 7.78706 9.39896 7.74241L9.50818 7.39736L9.21703 7.18232C9.17935 7.15443 9.19875 7.09472 9.24562 7.09431L9.60756 7.09156L9.72205 6.7482C9.73676 6.70373 9.79969 6.70373 9.81451 6.7482Z" fill="#F5F5F5"/>
<path d="M9.81451 8.54426L9.929 8.88762L10.2909 8.89038C10.3378 8.89079 10.3572 8.95055 10.3195 8.97838L10.0284 9.19342L10.1376 9.53848C10.1518 9.58313 10.1009 9.62016 10.0627 9.59286L9.76828 9.38239L9.47385 9.59286C9.4357 9.62011 9.3849 9.58313 9.39896 9.53848L9.50818 9.19342L9.21703 8.97838C9.17935 8.95049 9.19875 8.89079 9.24562 8.89038L9.60756 8.88762L9.72205 8.54426C9.73676 8.49973 9.79969 8.49973 9.81451 8.54426Z" fill="#F5F5F5"/>
<path d="M11.2086 2.24068L11.3231 2.58404L11.6851 2.58679C11.7319 2.5872 11.7513 2.64697 11.7137 2.6748L11.4225 2.88984L11.5317 3.23489C11.5459 3.27954 11.495 3.31657 11.4568 3.28927L11.1624 3.0788L10.868 3.28927C10.8298 3.31651 10.779 3.27954 10.7931 3.23489L10.9023 2.88984L10.6112 2.6748C10.5735 2.64691 10.5929 2.5872 10.6398 2.58679L11.0017 2.58404L11.1162 2.24068C11.1309 2.19626 11.1939 2.19626 11.2086 2.24068Z" fill="#F5F5F5"/>
<path d="M11.2086 4.03683L11.3231 4.38019L11.6851 4.38294C11.7319 4.38335 11.7513 4.44312 11.7137 4.47095L11.4225 4.68599L11.5317 5.03104C11.5459 5.07569 11.495 5.11272 11.4568 5.08541L11.1624 4.87495L10.868 5.08541C10.8298 5.11266 10.779 5.07575 10.7931 5.03104L10.9023 4.68599L10.6112 4.47095C10.5735 4.44306 10.5929 4.38335 10.6398 4.38294L11.0017 4.38019L11.1162 4.03683C11.1309 3.99236 11.1939 3.99236 11.2086 4.03683Z" fill="#F5F5F5"/>
<path d="M11.2086 5.83267L11.3231 6.17603L11.6851 6.17878C11.7319 6.17919 11.7513 6.23896 11.7137 6.26679L11.4225 6.48183L11.5317 6.82689C11.5459 6.87154 11.495 6.90857 11.4568 6.88126L11.1624 6.67079L10.868 6.88126C10.8298 6.90851 10.779 6.87154 10.7931 6.82689L10.9023 6.48183L10.6112 6.26679C10.5735 6.2389 10.5929 6.17919 10.6398 6.17878L11.0017 6.17603L11.1162 5.83267C11.1309 5.7882 11.1939 5.7882 11.2086 5.83267Z" fill="#F5F5F5"/>
<path d="M11.2086 7.62828L11.3231 7.97164L11.6851 7.97439C11.7319 7.9748 11.7513 8.03457 11.7137 8.0624L11.4225 8.27744L11.5317 8.6225C11.5459 8.66715 11.495 8.70418 11.4568 8.67687L11.1624 8.4664L10.868 8.67687C10.8298 8.70412 10.779 8.66715 10.7931 8.6225L10.9023 8.27744L10.6112 8.0624C10.5735 8.03451 10.5929 7.9748 10.6398 7.97439L11.0017 7.97164L11.1162 7.62828C11.1309 7.58387 11.1939 7.58387 11.2086 7.62828Z" fill="#F5F5F5"/>
<path d="M12.6038 1.35965L12.7183 1.70301L13.0802 1.70576C13.1271 1.70617 13.1465 1.76593 13.1088 1.79377L12.8177 2.0088L12.9269 2.35386C12.941 2.39851 12.8901 2.43554 12.852 2.40823L12.5576 2.19777L12.2631 2.40823C12.225 2.43548 12.1742 2.39851 12.1882 2.35386L12.2975 2.0088L12.0063 1.79377C11.9686 1.76588 11.988 1.70617 12.0349 1.70576L12.3968 1.70301L12.5113 1.35965C12.5261 1.31518 12.5889 1.31518 12.6038 1.35965Z" fill="#F5F5F5"/>
<path d="M12.6038 3.1562L12.7183 3.49956L13.0802 3.50232C13.1271 3.50273 13.1465 3.56249 13.1088 3.59032L12.8177 3.80536L12.9269 4.15042C12.941 4.19507 12.8901 4.2321 12.852 4.2048L12.5576 3.99433L12.2631 4.2048C12.225 4.23204 12.1742 4.19507 12.1882 4.15042L12.2975 3.80536L12.0063 3.59032C11.9686 3.56243 11.988 3.50273 12.0349 3.50232L12.3968 3.49956L12.5113 3.1562C12.5261 3.11179 12.5889 3.11179 12.6038 3.1562Z" fill="#F5F5F5"/>
<path d="M12.6038 4.95204L12.7183 5.29541L13.0802 5.29816C13.1271 5.29857 13.1465 5.35834 13.1088 5.38617L12.8177 5.60121L12.9269 5.94627C12.941 5.99092 12.8901 6.02795 12.852 6.00065L12.5576 5.79018L12.2631 6.00065C12.225 6.02789 12.1742 5.99092 12.1882 5.94627L12.2975 5.60121L12.0063 5.38617C11.9686 5.35828 11.988 5.29857 12.0349 5.29816L12.3968 5.29541L12.5113 4.95204C12.5261 4.90763 12.5889 4.90763 12.6038 4.95204Z" fill="#F5F5F5"/>
<path d="M12.6038 6.7482L12.7183 7.09156L13.0802 7.09431C13.1271 7.09472 13.1465 7.15449 13.1088 7.18232L12.8177 7.39736L12.9269 7.74241C12.941 7.78706 12.8901 7.82409 12.852 7.79679L12.5576 7.58632L12.2631 7.79679C12.225 7.82404 12.1742 7.78706 12.1882 7.74241L12.2975 7.39736L12.0063 7.18232C11.9686 7.15443 11.988 7.09472 12.0349 7.09431L12.3968 7.09156L12.5113 6.7482C12.5261 6.70373 12.5889 6.70373 12.6038 6.7482Z" fill="#F5F5F5"/>
<path d="M12.6038 8.54426L12.7183 8.88762L13.0802 8.89038C13.1271 8.89079 13.1465 8.95055 13.1088 8.97838L12.8177 9.19342L12.9269 9.53848C12.941 9.58313 12.8901 9.62016 12.852 9.59286L12.5576 9.38239L12.2631 9.59286C12.225 9.62011 12.1742 9.58313 12.1882 9.53848L12.2975 9.19342L12.0063 8.97838C11.9686 8.95049 11.988 8.89079 12.0349 8.89038L12.3968 8.88762L12.5113 8.54426C12.5261 8.49973 12.5889 8.49973 12.6038 8.54426Z" fill="#F5F5F5"/>
</svg>
