<svg width="28" height="32" viewBox="0 0 28 32" fill="none" xmlns="http://www.w3.org/2000/svg">
<path d="M27.4619 22.6431C26.2544 21.3456 23.9951 19.3937 23.9951 13C23.9951 8.14375 20.5901 4.25625 15.9988 3.3025V2C15.9988 0.895625 15.1038 0 14.0001 0C12.8963 0 12.0013 0.895625 12.0013 2V3.3025C7.41005 4.25625 4.00505 8.14375 4.00505 13C4.00505 19.3937 1.74567 21.3456 0.538169 22.6431C0.163168 23.0463 -0.00308179 23.5281 4.32118e-05 24C0.00691822 25.025 0.811294 26 2.0063 26H25.9938C27.1888 26 27.9938 25.025 28.0001 24C28.0032 23.5281 27.837 23.0456 27.4619 22.6431ZM4.22067 23C5.54692 21.2519 6.99693 18.3544 7.0038 13.0363C7.0038 13.0238 7.00005 13.0125 7.00005 13C7.00005 9.13375 10.1338 6 14.0001 6C17.8663 6 21.0001 9.13375 21.0001 13C21.0001 13.0125 20.9963 13.0238 20.9963 13.0363C21.0032 18.355 22.4532 21.2525 23.7794 23H4.22067ZM14.0001 32C16.2076 32 17.9982 30.2094 17.9982 28H10.0019C10.0019 30.2094 11.7926 32 14.0001 32Z" fill="#4F4F4F"/>
</svg>
