<svg width="24" height="32" viewBox="0 0 24 32" fill="none" xmlns="http://www.w3.org/2000/svg">
<path d="M19.1525 15.1649C20.8856 14.2786 21.9886 12.703 21.7325 10.0836C21.3976 6.49919 18.4539 5.29781 14.5544 4.96306V0H11.5214V4.82519C10.7336 4.82519 9.92606 4.84487 9.11863 4.86456V0H6.08563V4.96306C4.9705 4.99675 3.67175 4.98031 0 4.96306V8.19294C2.39462 8.15056 3.65106 7.99669 3.93894 9.53213V23.1214C3.75613 24.3397 2.78119 24.1643 0.6105 24.1259L6.25104e-05 27.73C5.53013 27.73 6.08569 27.7497 6.08569 27.7497V32H9.11869V27.8088C9.94581 27.8284 10.7533 27.8284 11.5214 27.8284V32H14.5544V27.7497C19.6356 27.4739 23.0324 26.1938 23.4854 21.408C23.8398 17.5676 22.0279 15.8541 19.1525 15.1649ZM9.17775 8.40956C10.8912 8.40956 16.2481 7.87787 16.2481 11.4426C16.2481 14.8497 10.8912 14.4558 9.17775 14.4558V8.40956ZM9.17775 24.1456V17.4888C11.226 17.4888 17.4982 16.9177 17.4982 20.8172C17.4981 24.5789 11.226 24.1456 9.17775 24.1456Z" fill="#4F4F4F"/>
</svg>
