<svg width="32" height="29" viewBox="0 0 32 29" fill="none" xmlns="http://www.w3.org/2000/svg">
<path d="M32 13.3333C32 12.0206 31.2806 10.8867 30.2222 10.2711V1.77833C30.2222 1.29222 29.8344 0 28.4444 0C28.0489 0 27.6561 0.132222 27.3344 0.39L22.6106 4.16944C20.2378 6.06611 17.2589 7.11111 14.2222 7.11111H3.55556C1.59167 7.11111 0 8.70278 0 10.6667V16C0 17.9639 1.59167 19.5556 3.55556 19.5556H5.42778C5.35056 20.1378 5.30667 20.73 5.30667 21.3333C5.30667 23.5428 5.82111 25.6306 6.72667 27.4967C7.015 28.0906 7.64444 28.4444 8.30444 28.4444H12.4311C13.8783 28.4444 14.7472 26.7867 13.87 25.6356C12.9589 24.44 12.4172 22.9489 12.4172 21.3333C12.4172 20.7161 12.5072 20.1228 12.6622 19.5556H14.2222C17.2589 19.5556 20.2378 20.6006 22.61 22.4972L27.3339 26.2767C27.649 26.5288 28.0404 26.6663 28.4439 26.6667C29.8283 26.6667 30.2217 25.4011 30.2217 24.8889V16.3961C31.2806 15.78 32 14.6461 32 13.3333ZM26.6667 21.19L24.8306 19.7211C21.8306 17.3211 18.0622 16 14.2222 16V10.6667C18.0622 10.6667 21.8306 9.34556 24.8306 6.94556L26.6667 5.47667V21.19Z" fill="#4F4F4F"/>
</svg>
