<svg width="33" height="25" viewBox="0 0 33 25" fill="none" xmlns="http://www.w3.org/2000/svg">
<path d="M29.5559 19.6778C31.0837 18.1722 32.0004 16.2833 32.0004 14.2222C32.0004 9.77778 27.7504 6.10556 22.2115 5.45C20.4615 2.25 16.3504 0 11.5559 0C5.1726 0 0.000374175 3.97778 0.000374175 8.88889C0.000374175 10.9444 0.917041 12.8333 2.44482 14.3444C1.59482 16.05 0.372596 17.3722 0.350374 17.3944C0.000374185 17.7667 -0.0996258 18.3111 0.10593 18.7833C0.30593 19.2556 0.772596 19.5611 1.28371 19.5611C4.25593 19.5611 6.65593 18.4389 8.23926 17.4056C8.75037 17.5222 9.27815 17.6111 9.81704 17.6778C11.5615 20.8667 15.6559 23.1111 20.4448 23.1111C21.6004 23.1111 22.7115 22.9778 23.767 22.7333C25.3504 23.7611 27.7448 24.8889 30.7226 24.8889C31.2337 24.8889 31.6948 24.5833 31.9004 24.1111C32.1004 23.6389 32.0059 23.0944 31.6559 22.7222C31.6337 22.7056 30.4059 21.3833 29.5559 19.6778ZM7.73371 14.55L6.78371 15.1667C6.00037 15.6722 5.20037 16.0722 4.38926 16.3556C4.53926 16.0944 4.68926 15.8167 4.83371 15.5333L5.69482 13.8056L4.31704 12.4444C3.56704 11.7 2.66704 10.4833 2.66704 8.88889C2.66704 5.51667 6.73926 2.66667 11.5559 2.66667C16.3726 2.66667 20.4448 5.51667 20.4448 8.88889C20.4448 12.2611 16.3726 15.1111 11.5559 15.1111C10.6393 15.1111 9.7226 15.0056 8.83371 14.8L7.73371 14.55ZM27.6837 17.7778L26.3115 19.1333L27.1726 20.8611C27.317 21.1444 27.467 21.4222 27.617 21.6833C26.8059 21.4 26.0059 21 25.2226 20.4944L24.2726 19.8778L23.167 20.1333C22.2782 20.3389 21.3615 20.4444 20.4448 20.4444C17.4448 20.4444 14.767 19.3278 13.1504 17.6833C18.7782 17.0833 23.1115 13.3833 23.1115 8.88889C23.1115 8.7 23.0893 8.51667 23.0726 8.33333C26.6504 9.13889 29.3337 11.4889 29.3337 14.2222C29.3337 15.8167 28.4337 17.0333 27.6837 17.7778Z" fill="#4F4F4F"/>
</svg>
