<svg width="32" height="25" viewBox="0 0 32 25" fill="none" xmlns="http://www.w3.org/2000/svg">
<path d="M23.1111 8.88889C23.1111 3.97778 17.9389 0 11.5556 0C5.17222 0 0 3.97778 0 8.88889C0 10.7944 0.783333 12.55 2.11111 14C1.36667 15.6778 0.138889 17.0111 0.122222 17.0278C0 17.1556 -0.0333333 17.3444 0.0388889 17.5111C0.111111 17.6778 0.266667 17.7778 0.444444 17.7778C2.47778 17.7778 4.16111 17.0944 5.37222 16.3889C7.16111 17.2611 9.27778 17.7778 11.5556 17.7778C17.9389 17.7778 23.1111 13.8 23.1111 8.88889ZM29.8889 21.1111C31.2167 19.6667 32 17.9056 32 16C32 12.2833 29.0278 9.1 24.8167 7.77222C24.8667 8.13889 24.8889 8.51111 24.8889 8.88889C24.8889 14.7722 18.9056 19.5556 11.5556 19.5556C10.9556 19.5556 10.3722 19.5111 9.79445 19.45C11.5444 22.6444 15.6556 24.8889 20.4444 24.8889C22.7222 24.8889 24.8389 24.3778 26.6278 23.5C27.8389 24.2056 29.5222 24.8889 31.5556 24.8889C31.7333 24.8889 31.8944 24.7833 31.9611 24.6222C32.0333 24.4611 32 24.2722 31.8778 24.1389C31.8611 24.1222 30.6333 22.7944 29.8889 21.1111Z" fill="#4F4F4F"/>
</svg>
