<svg width="32" height="29" viewBox="0 0 32 29" fill="none" xmlns="http://www.w3.org/2000/svg">
<path d="M30.5375 13.6391L24.5 11.3766V4.59531C24.5 3.65781 23.9188 2.82031 23.0375 2.48906L16.7875 0.145312C16.2812 -0.0484375 15.7188 -0.0484375 15.2063 0.145312L8.95625 2.48906C8.075 2.82031 7.49375 3.65781 7.49375 4.59531V11.3766L1.45625 13.6391C0.58125 13.9703 0 14.8078 0 15.7453V22.6266C0 23.4766 0.48125 24.2578 1.24375 24.6391L7.49375 27.7641C8.125 28.0828 8.875 28.0828 9.50625 27.7641L16 24.5141L22.4937 27.7641C23.125 28.0828 23.875 28.0828 24.5063 27.7641L30.7563 24.6391C31.5188 24.2578 32 23.4766 32 22.6266V15.7453C32 14.8078 31.4188 13.9703 30.5375 13.6391ZM22.375 11.4266L17.0625 13.4203V9.15781L22.375 6.84531V11.4266ZM9.625 4.50781L16 2.12031L22.375 4.50781V4.54531L16 7.13281L9.625 4.54531V4.50781ZM14.875 22.7016L9.5625 25.3578V20.4141L14.875 17.9891V22.7016ZM14.875 15.7016L8.5 18.2891L2.125 15.7016V15.6641L8.5 13.2766L14.875 15.6641V15.7016ZM29.875 22.7016L24.5625 25.3578V20.4141L29.875 17.9891V22.7016ZM29.875 15.7016L23.5 18.2891L17.125 15.7016V15.6641L23.5 13.2766L29.875 15.6641V15.7016Z" fill="#4F4F4F"/>
</svg>
