<svg width="32" height="32" viewBox="0 0 32 32" fill="none" xmlns="http://www.w3.org/2000/svg">
<path d="M14.9438 0.191413L1.94375 5.06641C0.775 5.50391 0 6.62891 0 7.87891V21.9477C0 23.0852 0.64375 24.1227 1.65625 24.6289L14.6562 31.1289C15.5 31.5539 16.4937 31.5539 17.3375 31.1289L30.3375 24.6289C31.3562 24.1227 31.9937 23.0789 31.9937 21.9477V7.87891C31.9937 6.62891 31.2188 5.51016 30.05 5.07266L17.05 0.197663C16.375 -0.0648367 15.625 -0.0648367 14.9438 0.191413ZM16 4.07266L28 8.57266V8.64141L16 13.5164L4 8.64141V8.57266L16 4.07266ZM18 26.3227V17.0164L28 12.9539V21.3227L18 26.3227Z" fill="#4F4F4F"/>
</svg>
