<svg width="32" height="32" viewBox="0 0 32 32" fill="none" xmlns="http://www.w3.org/2000/svg">
<path d="M32.0001 15.9698C32.0164 24.7853 24.8271 31.9938 16.0116 32C12.2042 32.0027 8.70692 30.6755 5.95859 28.4573C5.24395 27.8806 5.19053 26.8095 5.83995 26.1601L6.56685 25.4332C7.12227 24.8778 8.00898 24.817 8.62434 25.3052C10.6492 26.912 13.2117 27.871 16 27.871C22.5617 27.871 27.871 22.5606 27.871 16C27.871 9.43841 22.5606 4.12904 16 4.12904C12.8507 4.12904 9.99041 5.35285 7.8666 7.35047L11.1411 10.6249C11.7914 11.2752 11.3308 12.3871 10.4112 12.3871H1.03226C0.46213 12.3871 0 11.925 0 11.3549V1.97594C0 1.05632 1.11187 0.595743 1.7622 1.246L4.94749 4.4313C7.81995 1.6862 11.7131 0 16 0C24.8265 0 31.9837 7.14711 32.0001 15.9698ZM20.3283 21.0526L20.962 20.2378C21.4871 19.5627 21.3655 18.5899 20.6904 18.0649L18.0646 16.0225V9.29034C18.0646 8.43518 17.3713 7.74195 16.5162 7.74195H15.4839C14.6287 7.74195 13.9355 8.43518 13.9355 9.29034V18.042L18.1555 21.3242C18.8305 21.8492 19.8033 21.7277 20.3283 21.0526Z" fill="#4F4F4F"/>
</svg>
