<svg width="32" height="25" viewBox="0 0 32 25" fill="none" xmlns="http://www.w3.org/2000/svg">
<path d="M15.5757 6.45561L5.33376 14.8911V23.9954C5.33376 24.2311 5.4274 24.4572 5.59408 24.6239C5.76077 24.7906 5.98685 24.8842 6.22258 24.8842L12.4477 24.8681C12.6826 24.8669 12.9075 24.7727 13.0733 24.6062C13.239 24.4396 13.332 24.2142 13.332 23.9793V18.6625C13.332 18.4267 13.4257 18.2006 13.5924 18.034C13.759 17.8673 13.9851 17.7736 14.2208 17.7736H17.7761C18.0119 17.7736 18.2379 17.8673 18.4046 18.034C18.5713 18.2006 18.665 18.4267 18.665 18.6625V23.9754C18.6646 24.0923 18.6873 24.2082 18.7318 24.3164C18.7763 24.4245 18.8417 24.5228 18.9243 24.6057C19.0069 24.6885 19.105 24.7542 19.213 24.7991C19.321 24.8439 19.4368 24.867 19.5538 24.867L25.7766 24.8842C26.0124 24.8842 26.2384 24.7906 26.4051 24.6239C26.5718 24.4572 26.6654 24.2311 26.6654 23.9954V14.885L16.4257 6.45561C16.3053 6.35858 16.1553 6.30567 16.0007 6.30567C15.8461 6.30567 15.6961 6.35858 15.5757 6.45561ZM31.7539 12.1891L27.1099 8.36102V0.666615C27.1099 0.489818 27.0396 0.320262 26.9146 0.195247C26.7896 0.0702326 26.62 0 26.4432 0H23.3324C23.1556 0 22.986 0.0702326 22.861 0.195247C22.736 0.320262 22.6658 0.489818 22.6658 0.666615V4.70019L17.6922 0.608286C17.215 0.215527 16.616 0.000785131 15.9979 0.000785131C15.3798 0.000785131 14.7809 0.215527 14.3036 0.608286L0.241925 12.1891C0.174423 12.2449 0.118576 12.3134 0.0775751 12.3908C0.0365738 12.4682 0.0112218 12.5529 0.00296764 12.6401C-0.00528651 12.7272 0.00371897 12.8152 0.0294695 12.8989C0.0552201 12.9826 0.097211 13.0604 0.153043 13.1279L1.5696 14.85C1.62528 14.9177 1.69377 14.9737 1.77114 15.0149C1.84851 15.0561 1.93325 15.0817 2.02051 15.0901C2.10776 15.0985 2.19582 15.0896 2.27963 15.0639C2.36345 15.0383 2.44139 14.9963 2.50897 14.9405L15.5757 4.17801C15.6961 4.08098 15.8461 4.02806 16.0007 4.02806C16.1553 4.02806 16.3053 4.08098 16.4257 4.17801L29.493 14.9405C29.5605 14.9963 29.6383 15.0383 29.722 15.0641C29.8057 15.0898 29.8936 15.0988 29.9808 15.0906C30.068 15.0823 30.1527 15.057 30.2301 15.016C30.3075 14.975 30.376 14.9191 30.4318 14.8516L31.8484 13.1295C31.9042 13.0617 31.946 12.9835 31.9714 12.8994C31.9969 12.8153 32.0054 12.7271 31.9967 12.6397C31.9879 12.5523 31.9619 12.4675 31.9203 12.3901C31.8786 12.3128 31.8221 12.2445 31.7539 12.1891Z" fill="#4F4F4F"/>
</svg>
