<svg width="32" height="25" viewBox="0 0 32 25" fill="none" xmlns="http://www.w3.org/2000/svg">
<path d="M29.3333 0H2.66667C1.19444 0 0 1.19444 0 2.66667V3.55556H32V2.66667C32 1.19444 30.8056 0 29.3333 0ZM0 22.2222C0 23.6944 1.19444 24.8889 2.66667 24.8889H29.3333C30.8056 24.8889 32 23.6944 32 22.2222V5.33333H0V22.2222ZM19.5556 9.33333C19.5556 9.08889 19.7556 8.88889 20 8.88889H28C28.2444 8.88889 28.4444 9.08889 28.4444 9.33333V10.2222C28.4444 10.4667 28.2444 10.6667 28 10.6667H20C19.7556 10.6667 19.5556 10.4667 19.5556 10.2222V9.33333ZM19.5556 12.8889C19.5556 12.6444 19.7556 12.4444 20 12.4444H28C28.2444 12.4444 28.4444 12.6444 28.4444 12.8889V13.7778C28.4444 14.0222 28.2444 14.2222 28 14.2222H20C19.7556 14.2222 19.5556 14.0222 19.5556 13.7778V12.8889ZM19.5556 16.4444C19.5556 16.2 19.7556 16 20 16H28C28.2444 16 28.4444 16.2 28.4444 16.4444V17.3333C28.4444 17.5778 28.2444 17.7778 28 17.7778H20C19.7556 17.7778 19.5556 17.5778 19.5556 17.3333V16.4444ZM9.77778 8.88889C11.7389 8.88889 13.3333 10.4833 13.3333 12.4444C13.3333 14.4056 11.7389 16 9.77778 16C7.81667 16 6.22222 14.4056 6.22222 12.4444C6.22222 10.4833 7.81667 8.88889 9.77778 8.88889ZM3.72778 20.2333C4.19444 18.8056 5.53333 17.7778 7.11111 17.7778H7.56667C8.25 18.0611 8.99444 18.2222 9.77778 18.2222C10.5611 18.2222 11.3111 18.0611 11.9889 17.7778H12.4444C14.0222 17.7778 15.3611 18.8056 15.8278 20.2333C16.0056 20.7833 15.5389 21.3333 14.9611 21.3333H4.59444C4.01667 21.3333 3.55 20.7778 3.72778 20.2333Z" fill="#4F4F4F"/>
</svg>
