<svg width="32" height="20" viewBox="0 0 32 20" fill="none" xmlns="http://www.w3.org/2000/svg">
<path d="M16 4C13.349 4 11.2 6.507 11.2 9.6C11.2 12.6925 13.349 15.2 16 15.2C18.65 15.2 20.8 12.6935 20.8 9.6C20.8 6.507 18.651 4 16 4ZM18 12.4C18 12.621 17.821 12.8 17.6 12.8H14.4C14.179 12.8 14 12.621 14 12.4V11.6C14 11.379 14.179 11.2 14.4 11.2H15.2V8.428L15.1765 8.4435C15.1328 8.47266 15.0838 8.49291 15.0323 8.50311C14.9808 8.51332 14.9277 8.51326 14.8762 8.50295C14.8247 8.49264 14.7758 8.47228 14.7322 8.44303C14.6885 8.41379 14.6511 8.37623 14.622 8.3325L14.178 7.667C14.1488 7.62331 14.1286 7.57431 14.1184 7.52279C14.1082 7.47127 14.1082 7.41824 14.1186 7.36674C14.1289 7.31524 14.1492 7.26628 14.1785 7.22265C14.2077 7.17903 14.2453 7.1416 14.289 7.1125L15.0555 6.6015C15.2526 6.4701 15.4841 6.39999 15.721 6.4H16.4C16.621 6.4 16.8 6.579 16.8 6.8V11.2H17.6C17.821 11.2 18 11.379 18 11.6V12.4ZM30.4 0H1.6C0.7165 0 0 0.7165 0 1.6V17.6C0 18.4835 0.7165 19.2 1.6 19.2H30.4C31.2835 19.2 32 18.4835 32 17.6V1.6C32 0.7165 31.2835 0 30.4 0ZM29.6 13.6C27.8325 13.6 26.4 15.0325 26.4 16.8H5.6C5.6 15.0325 4.1675 13.6 2.4 13.6V5.6C4.1675 5.6 5.6 4.1675 5.6 2.4H26.4C26.4 4.1675 27.8325 5.6 29.6 5.6V13.6Z" fill="#4F4F4F"/>
</svg>
