<svg width="28" height="28" viewBox="0 0 28 28" fill="none" xmlns="http://www.w3.org/2000/svg">
<path d="M8.00506 23.9975C8.00506 26.208 6.21306 28 4.0025 28C1.79194 28 0 26.208 0 23.9975C0 21.7869 1.792 19.9949 4.00256 19.9949C6.21313 19.9949 8.00506 21.787 8.00506 23.9975ZM18.9838 26.9506C18.4617 17.2881 10.7222 9.5389 1.04944 9.01621C0.4785 8.98534 0 9.44409 0 10.0158V13.0202C0 13.5461 0.405625 13.9871 0.930438 14.0213C7.91994 14.4765 13.5225 20.0651 13.9787 27.0695C14.0129 27.5943 14.4539 28 14.9798 28H17.9841C18.5559 28 19.0147 27.5215 18.9838 26.9506ZM27.9994 26.9686C27.4747 12.3548 15.7166 0.527837 1.03144 0.000649429C0.467063 -0.0196006 0 0.436337 0 1.00102V4.00527C0 4.54434 0.427188 4.98309 0.965813 5.00521C12.9145 5.49515 22.505 15.0875 22.9949 27.0343C23.0169 27.5729 23.4557 28.0001 23.9948 28.0001H26.9991C27.5637 28 28.0196 27.533 27.9994 26.9686Z" fill="#4F4F4F"/>
</svg>
