<svg width="32" height="28" viewBox="0 0 32 28" fill="none" xmlns="http://www.w3.org/2000/svg">
<path d="M7.8222 11.2V16.5333C7.8222 16.8279 7.58343 17.0667 7.28887 17.0667H0.533333C0.23877 17.0667 0 16.8279 0 16.5333V11.2C0 10.9054 0.23877 10.6667 0.533333 10.6667H7.28887C7.58343 10.6667 7.8222 10.9054 7.8222 11.2Z" fill="#4F4F4F"/>
<path d="M0 27.2V21.8667C0 21.5721 0.23877 21.3333 0.533333 21.3333H7.28887C7.58343 21.3333 7.8222 21.5721 7.8222 21.8667V27.2C7.8222 27.4946 7.58343 27.7333 7.28887 27.7333H0.533333C0.23877 27.7333 0 27.4946 0 27.2Z" fill="#4F4F4F"/>
<path d="M0.533333 0H7.28887C7.58343 0 7.8222 0.23877 7.8222 0.533333V5.86667C7.8222 6.16123 7.58343 6.4 7.28887 6.4H0.533333C0.23877 6.4 0 6.16123 0 5.86667V0.533333C0 0.23877 0.23877 0 0.533333 0Z" fill="#4F4F4F"/>
<path d="M31.4667 27.7333H12.6222C12.3276 27.7333 12.0889 27.4946 12.0889 27.2V21.8667C12.0889 21.5721 12.3276 21.3333 12.6222 21.3333H31.4667C31.7612 21.3333 32 21.5721 32 21.8667V27.2C32 27.4946 31.7612 27.7333 31.4667 27.7333Z" fill="#4F4F4F"/>
<path d="M12.0889 5.86667V0.533333C12.0889 0.23877 12.3276 0 12.6222 0H31.4667C31.7612 0 32 0.23877 32 0.533333V5.86667C32 6.16123 31.7612 6.4 31.4667 6.4H12.6222C12.3276 6.4 12.0889 6.16123 12.0889 5.86667Z" fill="#4F4F4F"/>
<path d="M31.4667 17.0667H12.6222C12.3276 17.0667 12.0889 16.8279 12.0889 16.5333V11.2C12.0889 10.9054 12.3276 10.6667 12.6222 10.6667H31.4667C31.7612 10.6667 32 10.9054 32 11.2V16.5333C32 16.8279 31.7612 17.0667 31.4667 17.0667Z" fill="#4F4F4F"/>
</svg>
