<svg width="32" height="33" viewBox="0 0 32 33" fill="none" xmlns="http://www.w3.org/2000/svg">
<path d="M0.857143 5.00745H22.4241V1.71783C22.4241 0.190483 24.2712 -0.574584 25.3504 0.505773L31.4978 6.65254C32.1674 7.32218 32.1674 8.40756 31.4978 9.0772L25.3504 15.224C24.2712 16.3038 22.4241 15.5393 22.4241 14.0119V10.7217H0.857143C0.383929 10.7217 0 10.3378 0 9.86459V5.86459C0 5.73624 0.0279018 5.61459 0.078125 5.50521C0.214286 5.21113 0.512277 5.00745 0.857143 5.00745Z" fill="#4F4F4F"/>
<path d="M31.1429 27.5945H9.57589V30.8841C9.57589 32.4115 7.7288 33.1765 6.64955 32.0962L0.502232 25.9494C0.0591518 25.5063 -0.0904018 24.8813 0.0524554 24.3149C0.126116 24.0253 0.27567 23.7513 0.502232 23.5247L6.64955 17.378C7.7288 16.2982 9.57589 17.0627 9.57589 18.59V21.8802H31.1429C31.6161 21.8802 32 22.2636 32 22.7374V26.7374C32 27.2106 31.6161 27.5945 31.1429 27.5945Z" fill="#4F4F4F"/>
</svg>
