<svg width="28" height="32" viewBox="0 0 28 32" fill="none" xmlns="http://www.w3.org/2000/svg">
<path d="M23.9937 19.2678L25.4875 15.3553C25.7375 14.6991 25.2562 13.9991 24.55 13.9991H20.8937C21.5812 12.8178 22.0063 11.4616 22.0063 9.99909V9.98034C24.4563 9.49284 26.0063 8.78659 26.0063 7.99909C26.0063 7.16784 24.3 6.43034 21.625 5.93659C21.05 3.88659 19.9375 1.82409 19.0875 0.761589C18.4937 0.017839 17.4688 -0.213411 16.6187 0.211589L14.8938 1.07409C14.3313 1.35534 13.6687 1.35534 13.1062 1.07409L11.3813 0.211589C10.5312 -0.213411 9.50625 0.017839 8.9125 0.761589C8.06875 1.82409 6.95 3.88659 6.375 5.93659C3.70625 6.43034 2 7.16784 2 7.99909C2 8.78659 3.55 9.49284 6 9.98034V9.99909C6 11.4616 6.425 12.8178 7.1125 13.9991H3.51875C2.8 13.9991 2.31875 14.7303 2.6 15.3928L4.2125 19.1553C1.70625 20.6116 0 23.2928 0 26.3991V29.1991C0 30.7428 1.25625 31.9991 2.8 31.9991H25.2C26.7438 31.9991 28 30.7428 28 29.1991V26.3991C28 23.3741 26.3875 20.7491 23.9937 19.2678ZM11 29.9991L8.4 17.9991L11.5 19.9991L13 22.4991L11 29.9991ZM17 29.9991L15 22.4991L16.5 19.9991L19.6 17.9991L17 29.9991ZM19.6063 11.3428C19.3625 12.0866 19.1688 12.8803 18.575 13.4303C17.9438 14.0116 15.575 14.8303 14.575 11.8678C14.4 11.3428 13.6125 11.3428 13.4312 11.8678C12.3687 15.0053 9.93125 13.8928 9.43125 13.4303C8.8375 12.8803 8.6375 12.0866 8.4 11.3428C8.35 11.1866 8.00625 10.9866 8.00625 10.9803V10.3053C9.775 10.5303 11.8188 10.6678 14.0063 10.6678C16.1938 10.6678 18.2375 10.5366 20.0063 10.3053V10.9803C20 10.9866 19.6562 11.1803 19.6063 11.3428Z" fill="#4F4F4F"/>
</svg>
