<svg width="19" height="17" viewBox="0 0 19 17" fill="none" xmlns="http://www.w3.org/2000/svg">
<path d="M4.25 17C4.16075 17 4.07089 16.98 3.9865 16.9399C3.77704 16.8385 3.64286 16.6266 3.64286 16.3929V13.3571H1.82143C0.817214 13.3571 0 12.5399 0 11.5357V1.82143C0 0.817214 0.817214 0 1.82143 0H16.3929C17.3971 0 18.2143 0.817214 18.2143 1.82143V11.5357C18.2143 12.5399 17.3971 13.3571 16.3929 13.3571H9.01668L4.62946 16.867C4.51957 16.9551 4.38539 17 4.25 17ZM1.82143 1.21429C1.48629 1.21429 1.21429 1.48689 1.21429 1.82143V11.5357C1.21429 11.8703 1.48629 12.1429 1.82143 12.1429H4.25C4.58575 12.1429 4.85714 12.4143 4.85714 12.75V15.13L8.42411 12.2758C8.53218 12.1896 8.66514 12.1429 8.80357 12.1429H16.3929C16.728 12.1429 17 11.8703 17 11.5357V1.82143C17 1.48689 16.728 1.21429 16.3929 1.21429H1.82143Z" fill="#737373"/>
<path d="M13.9643 6.07146H4.24997C3.91422 6.07146 3.64282 5.79946 3.64282 5.46432C3.64282 5.12918 3.91422 4.85718 4.24997 4.85718H13.9643C14.3 4.85718 14.5714 5.12918 14.5714 5.46432C14.5714 5.79946 14.3 6.07146 13.9643 6.07146Z" fill="#737373"/>
<path d="M9.10711 8.50005H4.24997C3.91422 8.50005 3.64282 8.22805 3.64282 7.89291C3.64282 7.55777 3.91422 7.28577 4.24997 7.28577H9.10711C9.44286 7.28577 9.71425 7.55777 9.71425 7.89291C9.71425 8.22805 9.44286 8.50005 9.10711 8.50005Z" fill="#737373"/>
</svg>
