<svg width="24" height="16" viewBox="0 0 24 16" fill="none" xmlns="http://www.w3.org/2000/svg">
<path d="M0.935551 8.83984L22.2232 8.83984C22.7398 8.83984 23.1587 8.46413 23.1587 8.0007C23.1587 7.53723 22.7398 7.16156 22.2232 7.16156L0.935551 7.16156C0.418869 7.16156 6.86646e-05 7.53723 6.86646e-05 8.0007C6.86646e-05 8.46413 0.418869 8.83984 0.935551 8.83984Z" fill="#737373"/>
<path d="M20.9001 8.0001L13.5788 14.5675C13.2134 14.8952 13.2134 15.4265 13.5788 15.7542C13.9441 16.0819 14.5364 16.0819 14.9017 15.7542L22.8846 8.59349C23.2499 8.26578 23.2499 7.73447 22.8846 7.40676L14.9017 0.246002C14.7191 0.0821257 14.4796 0.000206947 14.2402 0.000206947C14.0008 0.000206947 13.7614 0.0821257 13.5787 0.246002C13.2134 0.573715 13.2134 1.10503 13.5787 1.43274L20.9001 8.0001Z" fill="#737373"/>
</svg>
