<svg width="80" height="80" viewBox="0 0 80 80" fill="none" xmlns="http://www.w3.org/2000/svg">
<path d="M78.8027 49.6765C73.4596 71.105 51.7536 84.1461 30.3201 78.8024C8.89527 73.46 -4.14737 51.7552 1.1982 30.3279C6.53877 8.8969 28.2448 -4.14546 49.6721 1.19698C71.1044 6.53943 84.1458 28.2467 78.8027 49.6765Z" fill="#F7931A"/>
<path d="M57.6384 34.301C58.4347 28.9786 54.3818 26.1174 48.8399 24.2086L50.6376 16.9987L46.2484 15.905L44.4982 22.9249C43.3443 22.6374 42.1592 22.3662 40.9816 22.0974L42.7443 15.0312L38.3576 13.9375L36.5586 21.1449C35.6035 20.9274 34.6659 20.7124 33.7558 20.4862L33.7608 20.4637L27.7077 18.9524L26.5401 23.6399C26.5401 23.6399 29.7966 24.3861 29.7279 24.4324C31.5056 24.8761 31.8269 26.0524 31.7731 26.9849L29.7254 35.1985C29.8479 35.2298 30.0067 35.2748 30.1817 35.3448C30.0354 35.3085 29.8792 35.2685 29.7179 35.2298L26.8476 46.7359C26.6301 47.2759 26.0788 48.0859 24.8361 47.7784C24.8799 47.8422 21.6458 46.9822 21.6458 46.9822L19.4668 52.0059L25.1787 53.4296C26.2413 53.6959 27.2826 53.9746 28.3077 54.2371L26.4913 61.5295L30.8755 62.6233L32.6745 55.4083C33.8721 55.7333 35.0347 56.0333 36.1723 56.3158L34.3796 63.497L38.7689 64.5907L40.5853 57.3121C48.0698 58.7283 53.6979 58.1571 56.0669 51.3884C57.9759 45.9384 55.9719 42.7947 52.034 40.7447C54.9018 40.0835 57.0621 38.1973 57.6384 34.301ZM47.6098 48.3622C46.2534 53.8121 37.0762 50.8659 34.1009 50.1271L36.5111 40.466C39.4864 41.2085 49.0274 42.6785 47.6098 48.3622ZM48.9674 34.2223C47.7298 39.1797 40.0915 36.661 37.6137 36.0435L39.799 27.2811C42.2767 27.8986 50.2563 29.0511 48.9674 34.2223Z" fill="white"/>
</svg>
