<svg width="15" height="16" viewBox="0 0 15 16" xmlns="http://www.w3.org/2000/svg">
<path d="M2.99999 9.99998H3.99999C4.55249 9.99998 4.99999 9.55197 4.99999 8.99996V7.99999C4.99999 7.44749 4.55249 6.99999 3.99999 6.99999H2.99999C2.4475 6.99999 2 7.44749 2 7.99999V8.99996C2 9.55197 2.4475 9.99998 2.99999 9.99998ZM2.99999 7.99999H3.99999V8.99996H2.99999V7.99999ZM11 14H12C12.5525 14 13 13.5525 13 13V12C13 11.4475 12.5525 11 12 11H11C10.448 11 9.99998 11.4475 9.99998 12V13C9.99998 13.5525 10.4475 14 11 14ZM11 12H12V13H11V12ZM11 9.99998H12C12.5525 9.99998 13 9.55197 13 8.99996V7.99999C13 7.44749 12.5525 6.99999 12 6.99999H11C10.448 6.99999 9.99998 7.44749 9.99998 7.99999V8.99996C9.99998 9.55197 10.4475 9.99998 11 9.99998ZM11 7.99999H12V8.99996H11V7.99999ZM13 0.999998H11V0.499999C11 0.223995 10.776 0 10.5 0C10.224 0 10 0.223995 10 0.499999V0.999998H5.00002V0.499999C4.99999 0.223995 4.776 0 4.49999 0C4.22399 0 3.99999 0.223995 3.99999 0.499999V0.999998H2C0.895513 0.999998 0 1.89551 0 3V14C0 15.1045 0.895513 16 2 16H13C14.1045 16 15 15.1045 15 14V3C15 1.89549 14.1045 0.999998 13 0.999998ZM14 14C14 14.5525 13.5525 15 13 15H2C1.4475 15 0.999998 14.552 0.999998 14V4.99999H14L14 14ZM14 3.99999H0.999998V3C0.999998 2.4475 1.4475 2 2 2H3.99999V2.5C3.99999 2.776 4.22399 3 4.49999 3C4.776 3 4.99999 2.776 4.99999 2.5V2H9.99998V2.5C9.99998 2.776 10.224 3 10.5 3C10.776 3 11 2.776 11 2.5V2H13C13.5525 2 14 2.4475 14 3V3.99999ZM6.99999 14H7.99999C8.55249 14 8.99999 13.5525 8.99999 13V12C8.99999 11.4475 8.55249 11 7.99999 11H6.99999C6.448 11 5.99999 11.4475 5.99999 12V13C5.99999 13.5525 6.44749 14 6.99999 14ZM6.99999 12H7.99999V13H6.99999V12ZM6.99999 9.99998H7.99999C8.55249 9.99998 8.99999 9.55197 8.99999 8.99996V7.99999C8.99999 7.44749 8.55249 6.99999 7.99999 6.99999H6.99999C6.448 6.99999 5.99999 7.44749 5.99999 7.99999V8.99996C5.99999 9.55197 6.44749 9.99998 6.99999 9.99998ZM6.99999 7.99999H7.99999V8.99996H6.99999V7.99999ZM2.99999 14H3.99999C4.55249 14 4.99999 13.5525 4.99999 13V12C4.99999 11.4475 4.55249 11 3.99999 11H2.99999C2.4475 11 2 11.4475 2 12V13C2 13.5525 2.4475 14 2.99999 14ZM2.99999 12H3.99999V13H2.99999V12Z"/>
</svg>
