<svg width="50" height="50" viewBox="0 0 50 50" fill="none" xmlns="http://www.w3.org/2000/svg">
<path d="M25 0C11.1927 0 0 11.1927 0 25C0 38.8073 11.1927 50 25 50C38.8073 50 50 38.8073 50 25C49.9836 11.1996 38.8004 0.0164032 25 0ZM25 46.875C12.9189 46.875 3.125 37.0811 3.125 25C3.125 12.9189 12.9189 3.125 25 3.125C37.0811 3.125 46.875 12.9189 46.875 25C46.862 37.0758 37.0758 46.862 25 46.875Z" fill="#B2B2B2"/>
<path d="M37.1532 12.8468C36.5429 12.2368 35.5537 12.2368 34.9438 12.8468L25 22.7905L15.0562 12.8468C14.4566 12.2261 13.4674 12.2089 12.8468 12.8086C12.2261 13.4079 12.2089 14.397 12.8086 15.0177C12.8212 15.0307 12.8338 15.0436 12.8468 15.0562L22.7905 25L12.8468 34.9438C12.2261 35.5431 12.2089 36.5322 12.8086 37.1532C13.4079 37.7739 14.397 37.7911 15.0177 37.1914C15.0307 37.1788 15.0436 37.1662 15.0562 37.1532L25 27.2095L34.9438 37.1532C35.5644 37.7525 36.5536 37.7354 37.1529 37.1147C37.7377 36.5093 37.7377 35.5492 37.1529 34.9438L27.2095 25L37.1532 15.0562C37.7632 14.4463 37.7632 13.4571 37.1532 12.8468Z" fill="#B2B2B2"/>
</svg>
