<svg width="50" height="50" viewBox="0 0 50 50" fill="none" xmlns="http://www.w3.org/2000/svg">
<g clip-path="url(#clip0)">
<path d="M31.8968 18.1151C31.25 18.1151 30.7258 18.6393 30.7258 19.2861V41.4172C30.7258 42.0635 31.25 42.5882 31.8968 42.5882C32.5435 42.5882 33.0677 42.0635 33.0677 41.4172V19.2861C33.0677 18.6393 32.5435 18.1151 31.8968 18.1151Z" fill="#B2B2B2"/>
<path d="M18.0795 18.1151C17.4327 18.1151 16.9085 18.6393 16.9085 19.2861V41.4172C16.9085 42.0635 17.4327 42.5882 18.0795 42.5882C18.7262 42.5882 19.2504 42.0635 19.2504 41.4172V19.2861C19.2504 18.6393 18.7262 18.1151 18.0795 18.1151Z" fill="#B2B2B2"/>
<path d="M8.00924 14.8852V43.7351C8.00924 45.4403 8.63451 47.0417 9.7268 48.1907C10.814 49.3429 12.3271 49.997 13.9107 49.9998H36.0655C37.6495 49.997 39.1626 49.3429 40.2494 48.1907C41.3417 47.0417 41.967 45.4403 41.967 43.7351V14.8852C44.1383 14.3089 45.5453 12.2112 45.2548 9.98323C44.9639 7.75567 43.0661 6.08934 40.8194 6.08888H34.8241V4.62519C34.831 3.39431 34.3443 2.21238 33.473 1.34285C32.6016 0.473781 31.4179 -0.0101532 30.187 -9.02865e-05H19.7892C18.5584 -0.0101532 17.3746 0.473781 16.5033 1.34285C15.6319 2.21238 15.1452 3.39431 15.1521 4.62519V6.08888H9.15687C6.9101 6.08934 5.01232 7.75567 4.72141 9.98323C4.43096 12.2112 5.83794 14.3089 8.00924 14.8852ZM36.0655 47.6578H13.9107C11.9086 47.6578 10.3512 45.938 10.3512 43.7351V14.9882H39.6251V43.7351C39.6251 45.938 38.0676 47.6578 36.0655 47.6578ZM17.494 4.62519C17.4862 4.01547 17.7259 3.42862 18.1586 2.9982C18.5908 2.56778 19.1791 2.3313 19.7892 2.34182H30.187C30.7972 2.3313 31.3854 2.56778 31.8176 2.9982C32.2503 3.42816 32.49 4.01547 32.4822 4.62519V6.08888H17.494V4.62519ZM9.15687 8.4308H40.8194C41.9834 8.4308 42.9271 9.37442 42.9271 10.5385C42.9271 11.7026 41.9834 12.6462 40.8194 12.6462H9.15687C7.99277 12.6462 7.04915 11.7026 7.04915 10.5385C7.04915 9.37442 7.99277 8.4308 9.15687 8.4308Z" fill="#B2B2B2"/>
<path d="M24.9881 18.1151C24.3413 18.1151 23.8171 18.6393 23.8171 19.2861V41.4172C23.8171 42.0635 24.3413 42.5882 24.9881 42.5882C25.6349 42.5882 26.1591 42.0635 26.1591 41.4172V19.2861C26.1591 18.6393 25.6349 18.1151 24.9881 18.1151Z" fill="#B2B2B2"/>
</g>
<defs>
<clipPath id="clip0">
<rect width="50" height="50" fill="white"/>
</clipPath>
</defs>
</svg>
