<svg width="80" height="16" viewBox="0 0 80 16" fill="none" xmlns="http://www.w3.org/2000/svg">
<g clip-path="url(#clip0)">
<path d="M74.6464 8.97182C75.1388 7.33755 75.6205 5.74893 76.1003 4.15987C76.1822 3.8913 76.2677 3.61914 76.3425 3.34654C76.3747 3.22926 76.4239 3.18092 76.5564 3.18047C77.6307 3.17689 78.705 3.1669 79.7793 3.15048C79.9584 3.1478 79.9543 3.2033 79.8997 3.34117C78.6735 6.45125 77.4487 9.56193 76.2252 12.6732C75.9915 13.2641 75.6983 13.8258 75.2633 14.3003C74.7149 14.8988 73.9992 15.1468 73.2252 15.2681C72.7821 15.331 72.3349 15.3609 71.8873 15.3576C69.3361 15.3761 66.7847 15.3965 64.2329 15.4189C60.7343 15.4488 57.236 15.4786 53.738 15.5084C53.0666 15.5143 52.3951 15.5174 51.7237 15.5322C51.5572 15.5362 51.5267 15.495 51.5634 15.333C51.698 14.7361 51.8232 14.1393 51.939 13.5425C51.9735 13.3612 52.0464 13.3088 52.2313 13.3075C54.8418 13.2935 57.453 13.2744 60.0647 13.2502C63.7421 13.2203 67.4193 13.1917 71.0963 13.1642C71.8815 13.1589 72.4638 12.8643 72.7781 12.1146C72.8086 12.0522 72.8242 11.9836 72.8237 11.9141C72.8232 11.8447 72.8065 11.7763 72.7749 11.7144C71.4846 8.97137 70.1969 6.22684 68.9119 3.48083C68.8023 3.24762 68.8018 3.24672 69.0498 3.24538C70.1765 3.23867 71.3027 3.23643 72.4289 3.2221C72.5932 3.2221 72.6563 3.27403 72.7087 3.42532C73.3228 5.20537 73.9417 6.98422 74.5654 8.76188C74.5851 8.8138 74.607 8.86841 74.6464 8.97182Z" fill="#3C73B2"/>
<path d="M0.358154 6.67478C0.67149 6.67478 0.984826 6.67478 1.29816 6.67478C5.3775 6.64136 9.45743 6.60973 13.538 6.57989C13.6919 6.57989 13.7891 6.54273 13.8455 6.39233C13.8971 6.2764 13.9554 6.16356 14.02 6.05438L6.01387 4.73299L6.0161 4.68062C6.799 4.68062 7.58278 4.6842 8.36478 4.68062C9.98383 4.67212 11.6024 4.65779 13.2215 4.65198C13.3737 4.65198 13.4654 4.61393 13.5317 4.46711C13.6355 4.23658 13.7743 4.02217 13.8817 3.79299C13.9457 3.6587 14.0308 3.61394 14.1767 3.6202C14.4672 3.62916 14.7586 3.59738 15.0491 3.6202C15.3141 3.6408 15.4287 3.5168 15.486 3.26435L3.12715 1.96624V1.92551H3.35096L15.3472 1.82837C15.6158 1.82837 15.8844 1.80554 16.153 1.81942C16.3732 1.83106 16.5406 1.77466 16.665 1.5871C16.7165 1.50922 16.7922 1.44655 16.8839 1.34807L6.59219 0.268408V0.194102C7.97982 0.194102 9.36745 0.207083 10.752 0.191416C13.952 0.155159 17.153 0.10413 20.3517 0.0602631C21.2988 0.0477296 22.2388 0.136807 23.1811 0.239312C23.1811 0.344503 23.1113 0.396875 23.0656 0.45999C22.6869 0.984604 22.2917 1.50026 21.9268 2.03696C21.7926 2.23437 21.6538 2.26659 21.4434 2.22899C21.1118 2.17329 20.7741 2.16335 20.4398 2.19945C19.9922 2.24421 19.6637 2.48593 19.4023 2.83149C19.2362 3.05083 19.1091 3.29523 18.977 3.56246C19.1941 3.6014 19.3987 3.57634 19.601 3.57813C19.8996 3.57813 20.1981 3.57813 20.4962 3.57052C20.639 3.56649 20.6672 3.60185 20.597 3.73256C20.209 4.45383 19.8235 5.17674 19.4403 5.90129C19.3875 6.002 19.3168 6.01006 19.2228 6.01051C18.7675 6.01364 18.3127 6.02841 17.8575 6.0217C17.6982 6.01901 17.6216 6.08034 17.55 6.21463C16.5088 8.17476 15.4605 10.1313 14.4207 12.0924C14.3437 12.2374 14.2667 12.2933 14.0966 12.2795C12.38 12.1411 10.6624 12.0109 8.94535 11.8811C7.49535 11.771 6.0455 11.6614 4.5958 11.5525C4.38228 11.5364 4.16966 11.5158 3.92436 11.4948C4.03806 11.425 4.12893 11.4469 4.21532 11.4464C6.46059 11.4241 8.70587 11.4044 10.9511 11.3874C11.1262 11.3874 11.2121 11.331 11.2913 11.1792C11.8067 10.1962 12.3289 9.21668 12.858 8.24057C12.9372 8.09419 12.9722 8.03153 12.7466 8.0087C10.9592 7.82965 9.17363 7.63448 7.38672 7.44738C5.75678 7.27639 4.12609 7.10659 2.49466 6.93798C1.78383 6.86368 1.0739 6.78534 0.363526 6.70925L0.358154 6.67478Z" fill="#FE8F01"/>
<path d="M50.0065 3.41396C50.5213 3.40724 51.0361 3.40545 51.5499 3.39158C51.6972 3.38755 51.7227 3.44977 51.7209 3.576C51.7146 3.91574 51.7209 4.25594 51.7209 4.61403C51.8731 4.47975 52.002 4.38038 52.1108 4.26399C52.7921 3.53705 53.6421 3.2076 54.6242 3.17269C55.6631 3.13554 56.613 3.36964 57.3806 4.10956C58.0789 4.781 58.4876 5.62119 58.6626 6.56746C58.8788 7.73844 58.8716 8.90584 58.3855 10.0142C57.7893 11.3736 56.6985 12.0813 55.2414 12.2227C54.0655 12.3369 52.9895 12.0723 52.0692 11.2344C51.9452 11.7509 51.827 12.2402 51.7111 12.7303C51.5065 13.5844 51.2966 14.4376 51.1036 15.2943C51.0638 15.4702 50.9904 15.5213 50.8216 15.5217C49.5459 15.5253 48.2704 15.5339 46.9949 15.5477C46.8222 15.5477 46.8213 15.4922 46.8571 15.3516C47.1256 14.2903 47.3871 13.2276 47.6507 12.1654C47.67 12.1429 47.6874 12.1188 47.7026 12.0934C48.5415 10.383 49.4671 8.71605 50.246 6.97659C50.4886 6.43496 50.7831 5.91438 50.9107 5.32396C51.1269 4.29712 50.9309 3.87277 50.0065 3.41396ZM52.0119 7.63862C52.0119 8.22053 52.0826 8.60369 52.2437 8.92374C52.5365 9.50565 53.139 9.81899 53.8413 9.76304C54.3972 9.71827 54.8771 9.31273 55.0364 8.71068C55.2155 8.03656 55.2222 7.35348 55.0154 6.6825C54.8153 6.033 54.2616 5.62074 53.6251 5.61939C52.9335 5.61939 52.3686 6.02225 52.1479 6.6722C52.0488 6.98442 52.0034 7.3112 52.0137 7.63862H52.0119Z" fill="#3C73B2"/>
<path d="M69.8962 11.9384C69.6724 11.9384 69.4831 11.9384 69.2928 11.9384C68.42 11.9442 67.5471 11.9478 66.6742 11.9595C66.5453 11.9595 66.4759 11.9174 66.4097 11.8104C66.2436 11.5418 66.1617 11.2442 66.1026 10.9375C66.0059 10.9487 65.9639 11.0177 65.9097 11.0638C65.2092 11.6645 64.3923 11.9953 63.4827 12.1112C62.5655 12.228 61.6474 12.2513 60.7611 11.9492C59.8659 11.6443 59.2249 11.0741 59.0266 10.1063C58.8198 9.10049 59.2817 8.13989 60.1904 7.66586C60.8672 7.31313 61.6094 7.18153 62.3475 7.03337C63.4563 6.80956 64.574 6.62514 65.6452 6.23884C65.8318 6.17125 65.8614 6.08441 65.8323 5.91386C65.74 5.36955 65.561 5.18155 65.0158 5.0974C64.5368 5.02309 64.065 5.07099 63.5986 5.19364C63.1904 5.30062 62.9299 5.57098 62.7719 5.94743C62.7271 6.0571 62.6779 6.11126 62.5454 6.09873C61.4914 6.00175 60.4369 5.90954 59.382 5.8221C59.1927 5.80643 59.2643 5.68781 59.2853 5.59829C59.5226 4.59024 60.147 3.91925 61.096 3.53654C61.6895 3.29706 62.3175 3.20082 62.9482 3.14845C64.1826 3.04253 65.4247 3.06819 66.6536 3.22499C68.3385 3.44433 69.3712 4.59516 69.3886 6.2939C69.4021 7.58395 69.4186 8.87444 69.428 10.1649C69.432 10.7182 69.531 11.246 69.8004 11.7352C69.8291 11.7858 69.8515 11.8404 69.8962 11.9384ZM65.8605 8.36057C65.8605 8.2415 65.8524 8.12109 65.8627 8.00247C65.8766 7.84939 65.8085 7.85118 65.6948 7.89012C65.1805 8.06648 64.6523 8.19674 64.1282 8.33416C63.775 8.42637 63.4218 8.52574 63.1009 8.70479C62.7799 8.88384 62.5839 9.15824 62.6313 9.54722C62.6761 9.92233 62.9115 10.1452 63.2607 10.2536C64.5744 10.6631 65.8618 9.72627 65.8605 8.36057Z" fill="#3C73B2"/>
<path d="M36.3272 5.87323C36.3742 5.35309 36.2341 5.14092 35.7377 5.05184C35.1822 4.95202 34.6375 4.9941 34.1446 5.31191C34.0043 5.39859 33.8857 5.51617 33.7977 5.65568C33.6223 5.94261 33.6849 6.13464 34.0009 6.24431C34.3555 6.36696 34.7265 6.40769 35.0967 6.45111C35.8067 6.53481 36.5197 6.60509 37.2086 6.80921C37.3874 6.86065 37.5613 6.92775 37.7283 7.00974C38.3908 7.34232 38.6544 7.92647 38.4758 8.64893C38.3322 9.23084 38.0072 9.70756 37.6097 10.1404C36.6473 11.1874 35.441 11.8056 34.0685 12.1014C32.548 12.4289 30.9781 12.4558 29.4473 12.1807C29.2497 12.1427 29.0561 12.0863 28.8689 12.0124C27.9392 11.6619 27.6904 10.7841 27.941 9.87004C27.9634 9.78902 28.0171 9.77201 28.0901 9.76575C29.0999 9.67622 30.1096 9.58536 31.1191 9.49315C31.2825 9.47837 31.4459 9.4645 31.6093 9.44838C31.6988 9.43988 31.7163 9.46763 31.714 9.56119C31.6984 10.2089 31.8841 10.4412 32.509 10.5084C33.0994 10.5719 33.6684 10.4784 34.1939 10.1829C34.3934 10.0792 34.5621 9.92482 34.6831 9.73531C34.8729 9.42198 34.7941 9.19593 34.445 9.07641C34.0775 8.95018 33.6934 8.89289 33.3125 8.82306C32.5802 8.68877 31.8416 8.58179 31.1326 8.34589C30.2342 8.04688 29.8792 7.31636 30.1984 6.42112C30.4558 5.70492 30.9217 5.13958 31.5095 4.67181C32.5202 3.86609 33.6943 3.4695 34.9611 3.32537C36.014 3.20159 37.0776 3.19889 38.1312 3.31731C38.3913 3.3427 38.6471 3.40152 38.8921 3.49233C39.5779 3.7609 39.9172 4.24075 39.9369 4.97798C39.9512 5.50663 39.9526 5.51871 39.4445 5.57198C38.4123 5.6803 37.381 5.7743 36.3272 5.87323Z" fill="#FE8F01"/>
<path d="M19.5066 6.05027C19.9989 5.40301 20.5316 4.85199 21.1954 4.43167C22.1574 3.8238 23.2173 3.53598 24.3333 3.41557C25.6168 3.274 26.9126 3.28633 28.1931 3.45228C28.3407 3.47249 28.4868 3.5024 28.6305 3.5418C29.5852 3.80097 29.9527 4.40392 29.7549 5.37347C29.6636 5.80347 29.5098 6.21775 29.2983 6.60309C28.612 7.88269 27.9283 9.16378 27.2473 10.4464C26.9787 10.9508 26.7594 11.4696 26.7728 12.0556C26.7755 12.1693 26.7258 12.1899 26.626 12.1899C25.5893 12.1979 24.5528 12.209 23.5164 12.223C23.3951 12.223 23.3704 12.1782 23.3624 12.069C23.3409 11.7731 23.4255 11.4978 23.5361 11.1738C23.4224 11.2364 23.3534 11.2713 23.2876 11.3112C21.9291 12.1303 20.4564 12.5023 18.8718 12.4437C18.4538 12.4284 18.0393 12.3743 17.6494 12.2087C16.9932 11.9298 16.6821 11.3353 16.8678 10.6447C17.1476 9.60484 17.8199 8.85418 18.7084 8.28749C19.5016 7.78302 20.4009 7.56368 21.3114 7.39224C22.7523 7.12367 24.2066 6.91642 25.6144 6.48805C25.921 6.39494 26.1815 5.9321 26.0938 5.62369C26.0405 5.43748 25.8807 5.36944 25.7169 5.35198C24.754 5.24813 23.827 5.32557 23.0943 6.05162C22.8673 6.27543 22.6601 6.36182 22.3391 6.32332C21.409 6.21365 20.4743 6.14114 19.5066 6.05027ZM24.9514 8.0959C24.2182 8.31434 23.5061 8.46161 22.7997 8.63305C22.4166 8.7266 22.0347 8.82508 21.6784 8.99741C21.2791 9.19123 20.9457 9.45712 20.7988 9.89713C20.6932 10.2132 20.819 10.4343 21.1368 10.5328C21.2884 10.5719 21.4452 10.587 21.6014 10.5775C23.0459 10.561 24.3825 9.57888 24.9514 8.0959Z" fill="#FE8F01"/>
<path d="M50.0067 3.41392C50.9311 3.87273 51.1258 4.29618 50.9073 5.32392C50.7811 5.91433 50.4852 6.43492 50.2426 6.97654C49.4638 8.716 48.5381 10.3829 47.6992 12.0933C47.684 12.1187 47.6666 12.1428 47.6473 12.1654C45.8089 12.2916 43.9692 12.3892 42.1255 12.348C41.1796 12.3261 40.2302 12.3216 39.296 12.1394C38.121 11.9098 37.7065 11.0996 38.2034 10.0069C38.8672 8.5468 40.006 7.68378 41.5516 7.29927C42.6366 7.0307 43.7373 6.91656 44.8474 6.86016C45.8976 6.80644 46.9486 6.77556 47.9965 6.67798C48.1957 6.65962 48.3461 6.59517 48.4683 6.43268C48.6473 6.1941 48.8411 5.96626 48.9378 5.67754C49.0573 5.32302 48.9508 5.06161 48.6142 4.90315C48.304 4.75723 47.9674 4.72411 47.6325 4.71471C46.552 4.68382 45.4911 4.84899 44.4423 5.08444C43.9052 5.20351 43.5507 5.58488 43.398 6.09741C43.2767 6.5043 43.0037 6.60322 42.6492 6.62381C42.2293 6.64843 41.813 6.62381 41.4191 6.45864C41.1581 6.34987 41.134 6.28273 41.2248 6.0137C41.6931 4.62608 42.6738 3.82439 44.0838 3.49673C45.3506 3.20174 46.6317 3.11491 47.9262 3.16191C48.6267 3.18742 49.3281 3.22278 50.0067 3.41392ZM42.2016 11.6864C42.9571 11.6864 43.6787 11.6864 44.3998 11.6864C44.5117 11.6864 44.5314 11.6331 44.5449 11.5387C44.6451 10.8319 44.7543 10.126 44.8501 9.41832C44.8549 9.36382 44.8717 9.31108 44.8996 9.26398C44.9274 9.21688 44.9654 9.17662 45.0108 9.14616C45.2454 8.98369 45.4188 8.74729 45.5032 8.47473C45.6353 8.03427 45.3837 7.67841 44.924 7.652C44.3555 7.61932 43.7324 8.00473 43.5095 8.52889C43.4316 8.71152 43.3752 8.90758 43.4759 9.08887C43.5552 9.23345 43.5122 9.33282 43.4441 9.45413C43.0337 10.1869 42.6272 10.9219 42.2016 11.6864Z" fill="#FE8F01"/>
</g>
<defs>
<clipPath id="clip0">
<rect width="80" height="15.5871" fill="white"/>
</clipPath>
</defs>
</svg>
