<svg width="1331" height="313" viewBox="0 0 1331 313" fill="none" xmlns="http://www.w3.org/2000/svg">
<rect y="307" width="1330" height="1" fill="white" fill-opacity="0.07"/>
<rect y="207" width="1330" height="1" fill="white" fill-opacity="0.07"/>
<rect y="106" width="1330" height="1" fill="white" fill-opacity="0.07"/>
<rect y="5" width="1330" height="1" fill="white" fill-opacity="0.07"/>
<path d="M1 307H15.4457H29.8913L44.337 267.5L58.7826 202L73.2283 265L87.6739 221L102.12 213L116.565 217L131.011 174.5L159.902 196.5L174.348 175.5L188.793 166.5L203.239 169L217.685 164L232.13 92.5L246.576 196.5L261.022 174.5L275.467 163.5L289.913 177.5L304.359 137L318.804 135L333.25 140L347.696 123.5H362.141L376.587 121.5L391.033 113.5L405.478 116.5L419.924 182.5L434.37 157.5L448.815 181.5L463.261 216.5L477.707 169L492.152 131L506.598 74L521.044 80L535.489 77L549.935 68H578.826L593.272 62.5L607.717 82L622.163 161.5L636.609 104.5L651.054 102L665.5 74.5L679.946 65L694.391 60H723.283L737.728 55L752.174 104L766.62 102L781.065 91L795.511 94.5L809.957 91L824.402 84.5L838.848 88L853.294 69L867.739 82L882.185 86.5L896.63 84.5L911.076 76.5L925.522 75.5L939.967 62L954.413 66L968.859 39.5H997.75L1012.2 48L1026.64 73.5L1041.09 76.5L1055.53 72L1069.98 80.5L1084.42 101L1098.87 98L1113.32 86.5L1127.76 83L1142.21 73L1156.65 70L1171.1 75L1185.54 61L1199.99 48L1214.43 58.5L1228.88 34L1243.33 45L1257.77 24L1272.22 7L1286.66 24.5L1301.11 37.5L1315.55 45.5L1330 42.5" stroke="white" stroke-opacity="0.5" stroke-linejoin="round"/>
<rect y="302" width="13" height="11" fill="#242424"/>
<path d="M6.36 311.1C5.8 311.1 5.3 310.96 4.86 310.68C4.42 310.393 4.07333 309.98 3.82 309.44C3.56667 308.893 3.44 308.247 3.44 307.5C3.44 306.753 3.56667 306.11 3.82 305.57C4.07333 305.023 4.42 304.61 4.86 304.33C5.3 304.043 5.8 303.9 6.36 303.9C6.92 303.9 7.42 304.043 7.86 304.33C8.30667 304.61 8.65667 305.023 8.91 305.57C9.16333 306.11 9.29 306.753 9.29 307.5C9.29 308.247 9.16333 308.893 8.91 309.44C8.65667 309.98 8.30667 310.393 7.86 310.68C7.42 310.96 6.92 311.1 6.36 311.1ZM6.36 309.97C6.86 309.97 7.25333 309.763 7.54 309.35C7.83333 308.937 7.98 308.32 7.98 307.5C7.98 306.68 7.83333 306.063 7.54 305.65C7.25333 305.237 6.86 305.03 6.36 305.03C5.86667 305.03 5.47333 305.237 5.18 305.65C4.89333 306.063 4.75 306.68 4.75 307.5C4.75 308.32 4.89333 308.937 5.18 309.35C5.47333 309.763 5.86667 309.97 6.36 309.97Z" fill="#737373"/>
<rect y="202" width="17" height="11" fill="#242424"/>
<path d="M5.86 204V211H4.56V205.09H3.08V204H5.86ZM10.1686 211.1C9.60859 211.1 9.10859 210.96 8.66859 210.68C8.22859 210.393 7.88193 209.98 7.62859 209.44C7.37526 208.893 7.24859 208.247 7.24859 207.5C7.24859 206.753 7.37526 206.11 7.62859 205.57C7.88193 205.023 8.22859 204.61 8.66859 204.33C9.10859 204.043 9.60859 203.9 10.1686 203.9C10.7286 203.9 11.2286 204.043 11.6686 204.33C12.1153 204.61 12.4653 205.023 12.7186 205.57C12.9719 206.11 13.0986 206.753 13.0986 207.5C13.0986 208.247 12.9719 208.893 12.7186 209.44C12.4653 209.98 12.1153 210.393 11.6686 210.68C11.2286 210.96 10.7286 211.1 10.1686 211.1ZM10.1686 209.97C10.6686 209.97 11.0619 209.763 11.3486 209.35C11.6419 208.937 11.7886 208.32 11.7886 207.5C11.7886 206.68 11.6419 206.063 11.3486 205.65C11.0619 205.237 10.6686 205.03 10.1686 205.03C9.67526 205.03 9.28193 205.237 8.98859 205.65C8.70193 206.063 8.55859 206.68 8.55859 207.5C8.55859 208.32 8.70193 208.937 8.98859 209.35C9.28193 209.763 9.67526 209.97 10.1686 209.97Z" fill="#737373"/>
<rect y="101" width="19" height="11" fill="#242424"/>
<path d="M8.51 108.9V110H3.35V109.13L6.13 106.49C6.44333 106.19 6.65333 105.93 6.76 105.71C6.87333 105.483 6.93 105.26 6.93 105.04C6.93 104.713 6.82 104.463 6.6 104.29C6.38 104.117 6.05667 104.03 5.63 104.03C4.91667 104.03 4.37 104.273 3.99 104.76L3.08 104.06C3.35333 103.693 3.72 103.41 4.18 103.21C4.64667 103.003 5.16667 102.9 5.74 102.9C6.5 102.9 7.10667 103.08 7.56 103.44C8.01333 103.8 8.24 104.29 8.24 104.91C8.24 105.29 8.16 105.647 8 105.98C7.84 106.313 7.53333 106.693 7.08 107.12L5.21 108.9H8.51ZM12.151 110.1C11.591 110.1 11.091 109.96 10.651 109.68C10.211 109.393 9.86435 108.98 9.61102 108.44C9.35768 107.893 9.23102 107.247 9.23102 106.5C9.23102 105.753 9.35768 105.11 9.61102 104.57C9.86435 104.023 10.211 103.61 10.651 103.33C11.091 103.043 11.591 102.9 12.151 102.9C12.711 102.9 13.211 103.043 13.651 103.33C14.0977 103.61 14.4477 104.023 14.701 104.57C14.9543 105.11 15.081 105.753 15.081 106.5C15.081 107.247 14.9543 107.893 14.701 108.44C14.4477 108.98 14.0977 109.393 13.651 109.68C13.211 109.96 12.711 110.1 12.151 110.1ZM12.151 108.97C12.651 108.97 13.0443 108.763 13.331 108.35C13.6243 107.937 13.771 107.32 13.771 106.5C13.771 105.68 13.6243 105.063 13.331 104.65C13.0443 104.237 12.651 104.03 12.151 104.03C11.6577 104.03 11.2643 104.237 10.971 104.65C10.6843 105.063 10.541 105.68 10.541 106.5C10.541 107.32 10.6843 107.937 10.971 108.35C11.2643 108.763 11.6577 108.97 12.151 108.97Z" fill="#737373"/>
<rect width="19" height="11" fill="#242424"/>
<path d="M6.42 4.89C7.06667 4.97 7.56 5.19 7.9 5.55C8.24 5.91 8.41 6.36 8.41 6.9C8.41 7.30667 8.30667 7.67667 8.1 8.01C7.89333 8.34333 7.58 8.61 7.16 8.81C6.74667 9.00333 6.24 9.1 5.64 9.1C5.14 9.1 4.65667 9.03 4.19 8.89C3.73 8.74333 3.33667 8.54333 3.01 8.29L3.57 7.28C3.82333 7.49333 4.13 7.66333 4.49 7.79C4.85667 7.91 5.23333 7.97 5.62 7.97C6.08 7.97 6.44 7.87667 6.7 7.69C6.96667 7.49667 7.1 7.23667 7.1 6.91C7.1 6.58333 6.97333 6.33 6.72 6.15C6.47333 5.96333 6.09333 5.87 5.58 5.87H4.94V4.98L6.53 3.09H3.35V2H8.12V2.87L6.42 4.89ZM12.1803 9.1C11.6203 9.1 11.1203 8.96 10.6803 8.68C10.2403 8.39333 9.89365 7.98 9.64031 7.44C9.38698 6.89333 9.26031 6.24667 9.26031 5.5C9.26031 4.75333 9.38698 4.11 9.64031 3.57C9.89365 3.02333 10.2403 2.61 10.6803 2.33C11.1203 2.04333 11.6203 1.9 12.1803 1.9C12.7403 1.9 13.2403 2.04333 13.6803 2.33C14.127 2.61 14.477 3.02333 14.7303 3.57C14.9836 4.11 15.1103 4.75333 15.1103 5.5C15.1103 6.24667 14.9836 6.89333 14.7303 7.44C14.477 7.98 14.127 8.39333 13.6803 8.68C13.2403 8.96 12.7403 9.1 12.1803 9.1ZM12.1803 7.97C12.6803 7.97 13.0736 7.76333 13.3603 7.35C13.6536 6.93667 13.8003 6.32 13.8003 5.5C13.8003 4.68 13.6536 4.06333 13.3603 3.65C13.0736 3.23667 12.6803 3.03 12.1803 3.03C11.687 3.03 11.2936 3.23667 11.0003 3.65C10.7136 4.06333 10.5703 4.68 10.5703 5.5C10.5703 6.32 10.7136 6.93667 11.0003 7.35C11.2936 7.76333 11.687 7.97 12.1803 7.97Z" fill="#737373"/>
</svg>
