<svg width="867" height="205" viewBox="0 0 867 205" fill="none" xmlns="http://www.w3.org/2000/svg">
<rect x="6" y="184" width="2" height="21" fill="#737373"/>
<rect x="10" y="190" width="2" height="15" fill="#737373"/>
<rect x="14" y="186" width="2" height="19" fill="#737373"/>
<rect x="18" y="196" width="2" height="9" fill="#737373"/>
<rect x="22" y="198" width="2" height="7" fill="#737373"/>
<rect x="26" y="194" width="2" height="11" fill="#737373"/>
<rect x="30" y="192" width="2" height="13" fill="#737373"/>
<rect x="34" y="190" width="2" height="15" fill="#737373"/>
<rect x="38" y="158" width="2" height="47" fill="#737373"/>
<rect x="42" y="160" width="2" height="45" fill="#737373"/>
<rect x="46" y="169" width="2" height="36" fill="#737373"/>
<rect x="50" y="166" width="2" height="39" fill="#737373"/>
<rect x="66" y="203" width="2" height="2" fill="#737373"/>
<rect x="70" y="197" width="2" height="8" fill="#737373"/>
<rect x="74" y="189" width="2" height="16" fill="#737373"/>
<rect x="78" y="192" width="2" height="13" fill="#737373"/>
<rect x="82" y="191" width="2" height="14" fill="#737373"/>
<rect x="86" y="196" width="2" height="9" fill="#737373"/>
<rect x="90" y="197" width="2" height="8" fill="#737373"/>
<rect x="94" y="197" width="2" height="8" fill="#737373"/>
<rect x="130" y="198" width="2" height="7" fill="#737373"/>
<rect x="134" y="179" width="2" height="26" fill="#737373"/>
<rect x="138" y="174" width="2" height="31" fill="#737373"/>
<rect x="142" y="176" width="2" height="29" fill="#737373"/>
<rect x="146" y="177" width="2" height="28" fill="#737373"/>
<rect x="150" y="172" width="2" height="33" fill="#737373"/>
<rect x="154" y="136" width="2" height="69" fill="#737373"/>
<rect x="158" y="99" width="2" height="106" fill="#737373"/>
<rect x="162" y="67" width="2" height="138" fill="#737373"/>
<rect x="166" y="89" width="2" height="116" fill="#737373"/>
<rect x="170" y="106" width="2" height="99" fill="#737373"/>
<rect x="174" y="116" width="2" height="89" fill="#737373"/>
<rect x="178" y="127" width="2" height="78" fill="#737373"/>
<rect x="182" y="122" width="2" height="83" fill="#737373"/>
<rect x="186" y="147" width="2" height="58" fill="#737373"/>
<rect x="190" y="161" width="2" height="44" fill="#737373"/>
<rect x="194" y="167" width="2" height="38" fill="#737373"/>
<rect x="198" y="179" width="2" height="26" fill="#737373"/>
<rect x="202" y="174" width="2" height="31" fill="#737373"/>
<rect x="206" y="185" width="2" height="20" fill="#737373"/>
<rect x="210" y="190" width="2" height="15" fill="#737373"/>
<rect x="214" y="187" width="2" height="18" fill="#737373"/>
<rect x="218" y="197" width="2" height="8" fill="#737373"/>
<rect x="222" y="193" width="2" height="12" fill="#737373"/>
<rect x="226" y="190" width="2" height="15" fill="#737373"/>
<rect x="230" y="190" width="2" height="15" fill="#737373"/>
<rect x="234" y="182" width="2" height="23" fill="#737373"/>
<rect x="238" y="177" width="2" height="28" fill="#737373"/>
<rect x="242" y="179" width="2" height="26" fill="#737373"/>
<rect x="246" y="169" width="2" height="36" fill="#737373"/>
<rect x="250" y="172" width="2" height="33" fill="#737373"/>
<rect x="254" y="161" width="2" height="44" fill="#737373"/>
<rect x="258" y="164" width="2" height="41" fill="#737373"/>
<rect x="262" y="158" width="2" height="47" fill="#737373"/>
<rect x="266" y="169" width="2" height="36" fill="#737373"/>
<rect x="270" y="172" width="2" height="33" fill="#737373"/>
<rect x="274" y="176" width="2" height="29" fill="#737373"/>
<rect x="278" y="185" width="2" height="20" fill="#737373"/>
<rect x="282" y="190" width="2" height="15" fill="#737373"/>
<rect x="286" y="201" width="2" height="4" fill="#737373"/>
<rect x="290" y="202" width="2" height="3" fill="#737373"/>
<rect x="294" y="202" width="2" height="3" fill="#737373"/>
<rect x="298" y="200" width="2" height="5" fill="#737373"/>
<rect x="302" y="196" width="2" height="9" fill="#737373"/>
<rect x="306" y="191" width="2" height="14" fill="#737373"/>
<rect x="310" y="193" width="2" height="12" fill="#737373"/>
<rect x="314" y="179" width="2" height="26" fill="#737373"/>
<rect x="318" y="182" width="2" height="23" fill="#737373"/>
<rect x="322" y="167" width="2" height="38" fill="#737373"/>
<rect x="326" y="172" width="2" height="33" fill="#737373"/>
<rect x="330" y="177" width="2" height="28" fill="#737373"/>
<rect x="334" y="185" width="2" height="20" fill="#737373"/>
<rect x="338" y="182" width="2" height="23" fill="#737373"/>
<rect x="342" y="190" width="2" height="15" fill="#737373"/>
<rect x="346" y="187" width="2" height="18" fill="#737373"/>
<rect x="350" y="193" width="2" height="12" fill="#737373"/>
<rect x="354" y="182" width="2" height="23" fill="#737373"/>
<rect x="358" y="179" width="2" height="26" fill="#737373"/>
<rect x="362" y="176" width="2" height="29" fill="#737373"/>
<rect x="366" y="169" width="2" height="36" fill="#737373"/>
<rect x="370" y="172" width="2" height="33" fill="#737373"/>
<rect x="374" y="193" width="2" height="12" fill="#737373"/>
<rect x="378" y="187" width="2" height="18" fill="#737373"/>
<rect x="382" y="201" width="2" height="4" fill="#737373"/>
<rect x="386" y="184" width="2" height="21" fill="#737373"/>
<rect x="390" y="177" width="2" height="28" fill="#737373"/>
<rect x="394" y="156" width="2" height="49" fill="#737373"/>
<rect x="398" y="134" width="2" height="71" fill="#737373"/>
<rect x="402" y="172" width="2" height="33" fill="#737373"/>
<rect x="406" y="187" width="2" height="18" fill="#737373"/>
<rect x="410" y="200" width="2" height="5" fill="#737373"/>
<rect x="414" y="202" width="2" height="3" fill="#737373"/>
<rect x="418" y="197" width="2" height="8" fill="#737373"/>
<rect x="422" y="199" width="2" height="6" fill="#737373"/>
<rect x="426" y="194" width="2" height="11" fill="#737373"/>
<rect x="430" y="196" width="2" height="9" fill="#737373"/>
<rect x="434" y="201" width="2" height="4" fill="#737373"/>
<rect x="438" y="198" width="2" height="7" fill="#737373"/>
<rect x="442" y="190" width="2" height="15" fill="#737373"/>
<rect x="446" y="192" width="2" height="13" fill="#737373"/>
<rect x="450" y="187" width="2" height="18" fill="#737373"/>
<rect x="454" y="189" width="2" height="16" fill="#737373"/>
<rect x="458" y="195" width="2" height="10" fill="#737373"/>
<rect x="462" y="192" width="2" height="13" fill="#737373"/>
<rect x="466" y="198" width="2" height="7" fill="#737373"/>
<rect x="470" y="184" width="2" height="21" fill="#737373"/>
<rect x="474" y="176" width="2" height="29" fill="#737373"/>
<rect x="478" y="180" width="2" height="25" fill="#737373"/>
<rect x="482" y="186" width="2" height="19" fill="#737373"/>
<rect x="486" y="194" width="2" height="11" fill="#737373"/>
<rect x="490" y="202" width="2" height="3" fill="#737373"/>
<rect x="494" y="198" width="2" height="7" fill="#737373"/>
<rect x="498" y="195" width="2" height="10" fill="#737373"/>
<rect x="502" y="189" width="2" height="16" fill="#737373"/>
<rect x="506" y="182" width="2" height="23" fill="#737373"/>
<rect x="510" y="183" width="2" height="22" fill="#737373"/>
<rect x="514" y="37" width="2" height="168" fill="#737373"/>
<rect x="518" y="197" width="2" height="8" fill="#737373"/>
<rect x="522" y="199" width="2" height="6" fill="#737373"/>
<rect x="526" y="190" width="2" height="15" fill="#737373"/>
<rect x="530" y="194" width="2" height="11" fill="#737373"/>
<rect x="534" y="169" width="2" height="36" fill="#737373"/>
<rect x="538" y="177" width="2" height="28" fill="#737373"/>
<rect x="542" y="161" width="2" height="44" fill="#737373"/>
<rect x="546" y="184" width="2" height="21" fill="#737373"/>
<rect x="550" y="197" width="2" height="8" fill="#737373"/>
<rect x="554" y="201" width="2" height="4" fill="#737373"/>
<rect x="558" y="202" width="2" height="3" fill="#737373"/>
<rect x="562" y="194" width="2" height="11" fill="#737373"/>
<rect x="566" y="197" width="2" height="8" fill="#737373"/>
<rect x="570" y="188" width="2" height="17" fill="#737373"/>
<rect x="574" y="180" width="2" height="25" fill="#737373"/>
<rect x="578" y="187" width="2" height="18" fill="#737373"/>
<rect x="582" y="191" width="2" height="14" fill="#737373"/>
<rect x="586" y="189" width="2" height="16" fill="#737373"/>
<rect x="590" y="195" width="2" height="10" fill="#737373"/>
<rect x="594" y="192" width="2" height="13" fill="#737373"/>
<rect x="598" y="200" width="2" height="5" fill="#737373"/>
<rect x="602" y="197" width="2" height="8" fill="#737373"/>
<rect x="606" y="202" width="2" height="3" fill="#737373"/>
<rect x="610" y="195" width="2" height="10" fill="#737373"/>
<rect x="614" y="190" width="2" height="15" fill="#737373"/>
<rect x="618" y="187" width="2" height="18" fill="#737373"/>
<rect x="622" y="183" width="2" height="22" fill="#737373"/>
<rect x="626" y="189" width="2" height="16" fill="#737373"/>
<rect x="630" y="197" width="2" height="8" fill="#737373"/>
<rect x="634" y="197" width="2" height="8" fill="#737373"/>
<rect x="638" y="192" width="2" height="13" fill="#737373"/>
<rect x="642" y="183" width="2" height="22" fill="#737373"/>
<rect x="646" y="174" width="2" height="31" fill="#737373"/>
<rect x="650" y="166" width="2" height="39" fill="#737373"/>
<rect x="654" y="158" width="2" height="47" fill="#737373"/>
<rect x="658" y="161" width="2" height="44" fill="#737373"/>
<rect x="662" y="144" width="2" height="61" fill="#737373"/>
<rect x="666" y="133" width="2" height="72" fill="#737373"/>
<rect x="670" y="137" width="2" height="68" fill="#737373"/>
<rect x="674" y="123" width="2" height="82" fill="#737373"/>
<rect x="678" y="113" width="2" height="92" fill="#737373"/>
<rect x="682" y="128" width="2" height="77" fill="#737373"/>
<rect x="686" y="117" width="2" height="88" fill="#737373"/>
<rect x="690" y="106" width="2" height="99" fill="#737373"/>
<rect x="694" y="121" width="2" height="84" fill="#737373"/>
<rect x="698" y="113" width="2" height="92" fill="#737373"/>
<rect x="702" y="131" width="2" height="74" fill="#737373"/>
<rect x="706" y="137" width="2" height="68" fill="#737373"/>
<rect x="710" y="133" width="2" height="72" fill="#737373"/>
<rect x="714" y="148" width="2" height="57" fill="#737373"/>
<rect x="718" y="158" width="2" height="47" fill="#737373"/>
<rect x="722" y="151" width="2" height="54" fill="#737373"/>
<rect x="726" y="164" width="2" height="41" fill="#737373"/>
<rect x="730" y="141" width="2" height="64" fill="#737373"/>
<rect x="734" y="133" width="2" height="72" fill="#737373"/>
<rect x="738" y="123" width="2" height="82" fill="#737373"/>
<rect x="742" y="117" width="2" height="88" fill="#737373"/>
<rect x="746" y="128" width="2" height="77" fill="#737373"/>
<rect x="750" y="121" width="2" height="84" fill="#737373"/>
<rect x="754" y="126" width="2" height="79" fill="#737373"/>
<rect x="758" y="133" width="2" height="72" fill="#737373"/>
<rect x="762" y="123" width="2" height="82" fill="#737373"/>
<rect x="766" y="144" width="2" height="61" fill="#737373"/>
<rect x="770" y="149" width="2" height="56" fill="#737373"/>
<rect x="774" y="157" width="2" height="48" fill="#737373"/>
<rect x="778" y="166" width="2" height="39" fill="#737373"/>
<rect x="782" y="170" width="2" height="35" fill="#737373"/>
<rect x="786" y="168" width="2" height="37" fill="#737373"/>
<rect x="790" y="176" width="2" height="29" fill="#737373"/>
<rect x="794" y="173" width="2" height="32" fill="#737373"/>
<rect x="798" y="182" width="2" height="23" fill="#737373"/>
<rect x="802" y="190" width="2" height="15" fill="#737373"/>
<rect x="806" y="187" width="2" height="18" fill="#737373"/>
<rect x="810" y="199" width="2" height="6" fill="#737373"/>
<rect x="814" y="192" width="2" height="13" fill="#737373"/>
<rect x="818" y="183" width="2" height="22" fill="#737373"/>
<rect x="822" y="199" width="2" height="6" fill="#737373"/>
<rect x="826" y="192" width="2" height="13" fill="#737373"/>
<rect x="830" y="195" width="2" height="10" fill="#737373"/>
<rect x="834" y="199" width="2" height="6" fill="#737373"/>
<rect x="838" y="190" width="2" height="15" fill="#737373"/>
<rect x="842" y="186" width="2" height="19" fill="#737373"/>
<rect x="846" y="192" width="2" height="13" fill="#737373"/>
<rect x="850" y="197" width="2" height="8" fill="#737373"/>
<rect x="854" y="201" width="2" height="4" fill="#737373"/>
<rect x="858" y="199" width="2" height="6" fill="#737373"/>
<rect x="862" y="189" width="2" height="16" fill="#737373"/>
<rect y="153" width="867" height="1" fill="white" fill-opacity="0.07"/>
<rect y="204" width="867" height="1" fill="white" fill-opacity="0.07"/>
<rect y="102" width="867" height="1" fill="white" fill-opacity="0.07"/>
<rect y="51" width="867" height="1" fill="white" fill-opacity="0.07"/>
<rect width="867" height="1" fill="white" fill-opacity="0.07"/>
</svg>
