<svg width="1331" height="313" viewBox="0 0 1331 313" fill="none" xmlns="http://www.w3.org/2000/svg">
<rect y="307" width="1330" height="1" fill="white" fill-opacity="0.07"/>
<rect y="207" width="1330" height="1" fill="white" fill-opacity="0.07"/>
<rect y="106" width="1330" height="1" fill="white" fill-opacity="0.07"/>
<rect y="5" width="1330" height="1" fill="white" fill-opacity="0.07"/>
<path d="M44.337 257.08L29.8913 295H1330V41.08L1315.55 43.96L1301.11 36.28L1286.66 23.8L1272.22 7L1257.77 23.32L1243.33 43.48L1228.88 32.92L1214.43 56.44L1199.99 46.36L1185.54 58.84L1171.1 72.28L1156.65 67.48L1142.21 70.36L1127.76 79.96L1113.32 83.32L1098.87 94.36L1084.42 97.24L1069.98 77.56L1055.53 69.4L1041.09 73.72L1026.64 70.84L1012.2 46.36L997.75 38.2H968.859L954.413 63.64L939.967 59.8L925.522 72.76L911.076 73.72L896.63 81.4L882.185 83.32L867.739 79L853.294 66.52L838.848 84.76L824.402 81.4L809.957 87.64L795.511 91L781.065 87.64L766.62 98.2L752.174 100.12L737.728 126.04L723.283 130.84H694.391L679.946 135.64L665.5 144.76L651.054 160.6L636.609 163L622.163 155.32L607.717 152.92L593.272 140.44L578.826 145.72H549.935L535.489 154.36L521.044 157.24L506.598 151.48L492.152 153.4L477.707 162.52L463.261 170.68L448.815 174.52L434.37 172.6L419.924 175.48L405.478 182.2L391.033 179.32L376.587 187L362.141 188.92H347.696L333.25 204.76L318.804 199.96L304.359 201.88L289.913 212.44L275.467 215.32L261.022 227.8L246.576 230.2L232.13 251.32L217.685 239.8L203.239 244.6L188.793 242.2L174.348 250.84L159.902 255.16H131.011L116.565 262.36L102.12 265.24L87.6739 259L73.2283 254.68L58.7826 257.08H44.337Z" fill="url(#paint0_linear)"/>
<path d="M1 295H15.4457H29.8913L44.337 257.08H58.7826L73.2283 254.68L87.6739 259L102.12 265.24L116.565 262.36L131.011 255.16H159.902L174.348 250.84L188.793 242.2L203.239 244.6L217.685 239.8L232.13 251.32L246.576 230.2L261.022 227.8L275.467 215.32L289.913 212.44L304.359 201.88L318.804 199.96L333.25 204.76L347.696 188.92H362.141L376.587 187L391.033 179.32L405.478 182.2L419.924 175.48L434.37 172.6L448.815 174.52L463.261 170.68L477.707 162.52L492.152 153.4L506.598 151.48L521.043 157.24L535.489 154.36L549.935 145.72H578.826L593.272 140.44L607.717 152.92L622.163 155.32L636.609 163L651.054 160.6L665.5 144.76L679.946 135.64L694.391 130.84H723.283L737.728 126.04L752.174 100.12L766.62 98.2L781.065 87.64L795.511 91L809.957 87.64L824.402 81.4L838.848 84.76L853.293 66.52L867.739 79L882.185 83.32L896.63 81.4L911.076 73.72L925.522 72.76L939.967 59.8L954.413 63.64L968.859 38.2H997.75L1012.2 46.36L1026.64 70.84L1041.09 73.72L1055.53 69.4L1069.98 77.56L1084.42 97.24L1098.87 94.36L1113.32 83.32L1127.76 79.96L1142.21 70.36L1156.65 67.48L1171.1 72.28L1185.54 58.84L1199.99 46.36L1214.43 56.44L1228.88 32.92L1243.33 43.48L1257.77 23.32L1272.22 7L1286.66 23.8L1301.11 36.28L1315.55 43.96L1330 41.08" stroke="white" stroke-opacity="0.5" stroke-linejoin="round"/>
<rect y="302" width="50" height="11" fill="#242424"/>
<path d="M6.42 306.89C7.06667 306.97 7.56 307.19 7.9 307.55C8.24 307.91 8.41 308.36 8.41 308.9C8.41 309.307 8.30667 309.677 8.1 310.01C7.89333 310.343 7.58 310.61 7.16 310.81C6.74667 311.003 6.24 311.1 5.64 311.1C5.14 311.1 4.65667 311.03 4.19 310.89C3.73 310.743 3.33667 310.543 3.01 310.29L3.57 309.28C3.82333 309.493 4.13 309.663 4.49 309.79C4.85667 309.91 5.23333 309.97 5.62 309.97C6.08 309.97 6.44 309.877 6.7 309.69C6.96667 309.497 7.1 309.237 7.1 308.91C7.1 308.583 6.97333 308.33 6.72 308.15C6.47333 307.963 6.09333 307.87 5.58 307.87H4.94V306.98L6.53 305.09H3.35V304H8.12V304.87L6.42 306.89ZM12.1803 311.1C11.6203 311.1 11.1203 310.96 10.6803 310.68C10.2403 310.393 9.89365 309.98 9.64031 309.44C9.38698 308.893 9.26031 308.247 9.26031 307.5C9.26031 306.753 9.38698 306.11 9.64031 305.57C9.89365 305.023 10.2403 304.61 10.6803 304.33C11.1203 304.043 11.6203 303.9 12.1803 303.9C12.7403 303.9 13.2403 304.043 13.6803 304.33C14.127 304.61 14.477 305.023 14.7303 305.57C14.9836 306.11 15.1103 306.753 15.1103 307.5C15.1103 308.247 14.9836 308.893 14.7303 309.44C14.477 309.98 14.127 310.393 13.6803 310.68C13.2403 310.96 12.7403 311.1 12.1803 311.1ZM12.1803 309.97C12.6803 309.97 13.0736 309.763 13.3603 309.35C13.6536 308.937 13.8003 308.32 13.8003 307.5C13.8003 306.68 13.6536 306.063 13.3603 305.65C13.0736 305.237 12.6803 305.03 12.1803 305.03C11.687 305.03 11.2936 305.237 11.0003 305.65C10.7136 306.063 10.5703 306.68 10.5703 307.5C10.5703 308.32 10.7136 308.937 11.0003 309.35C11.2936 309.763 11.687 309.97 12.1803 309.97ZM18.9088 311.1C18.3488 311.1 17.8488 310.96 17.4088 310.68C16.9688 310.393 16.6222 309.98 16.3688 309.44C16.1155 308.893 15.9888 308.247 15.9888 307.5C15.9888 306.753 16.1155 306.11 16.3688 305.57C16.6222 305.023 16.9688 304.61 17.4088 304.33C17.8488 304.043 18.3488 303.9 18.9088 303.9C19.4688 303.9 19.9688 304.043 20.4088 304.33C20.8555 304.61 21.2055 305.023 21.4588 305.57C21.7122 306.11 21.8388 306.753 21.8388 307.5C21.8388 308.247 21.7122 308.893 21.4588 309.44C21.2055 309.98 20.8555 310.393 20.4088 310.68C19.9688 310.96 19.4688 311.1 18.9088 311.1ZM18.9088 309.97C19.4088 309.97 19.8022 309.763 20.0888 309.35C20.3822 308.937 20.5288 308.32 20.5288 307.5C20.5288 306.68 20.3822 306.063 20.0888 305.65C19.8022 305.237 19.4088 305.03 18.9088 305.03C18.4155 305.03 18.0222 305.237 17.7288 305.65C17.4422 306.063 17.2988 306.68 17.2988 307.5C17.2988 308.32 17.4422 308.937 17.7288 309.35C18.0222 309.763 18.4155 309.97 18.9088 309.97ZM28.991 311.1C28.0243 311.1 27.271 310.83 26.731 310.29C26.191 309.743 25.921 308.963 25.921 307.95V304H27.221V307.9C27.221 309.273 27.8143 309.96 29.001 309.96C30.181 309.96 30.771 309.273 30.771 307.9V304H32.051V307.95C32.051 308.963 31.781 309.743 31.241 310.29C30.7077 310.83 29.9577 311.1 28.991 311.1ZM36.0416 311.1C35.5016 311.1 34.9783 311.023 34.4716 310.87C33.9716 310.717 33.575 310.513 33.2816 310.26L33.7316 309.25C34.0183 309.477 34.3683 309.663 34.7816 309.81C35.2016 309.95 35.6216 310.02 36.0416 310.02C36.5616 310.02 36.9483 309.937 37.2016 309.77C37.4616 309.603 37.5916 309.383 37.5916 309.11C37.5916 308.91 37.5183 308.747 37.3716 308.62C37.2316 308.487 37.0516 308.383 36.8316 308.31C36.6116 308.237 36.3116 308.153 35.9316 308.06C35.3983 307.933 34.965 307.807 34.6316 307.68C34.305 307.553 34.0216 307.357 33.7816 307.09C33.5483 306.817 33.4316 306.45 33.4316 305.99C33.4316 305.603 33.535 305.253 33.7416 304.94C33.955 304.62 34.2716 304.367 34.6916 304.18C35.1183 303.993 35.6383 303.9 36.2516 303.9C36.6783 303.9 37.0983 303.953 37.5116 304.06C37.925 304.167 38.2816 304.32 38.5816 304.52L38.1716 305.53C37.865 305.35 37.545 305.213 37.2116 305.12C36.8783 305.027 36.555 304.98 36.2416 304.98C35.7283 304.98 35.345 305.067 35.0916 305.24C34.845 305.413 34.7216 305.643 34.7216 305.93C34.7216 306.13 34.7916 306.293 34.9316 306.42C35.0783 306.547 35.2616 306.647 35.4816 306.72C35.7016 306.793 36.0016 306.877 36.3816 306.97C36.9016 307.09 37.3283 307.217 37.6616 307.35C37.995 307.477 38.2783 307.673 38.5116 307.94C38.7516 308.207 38.8716 308.567 38.8716 309.02C38.8716 309.407 38.765 309.757 38.5516 310.07C38.345 310.383 38.0283 310.633 37.6016 310.82C37.175 311.007 36.655 311.1 36.0416 311.1ZM40.1607 304H43.2207C43.9674 304 44.6307 304.147 45.2107 304.44C45.7907 304.727 46.2407 305.137 46.5607 305.67C46.8807 306.197 47.0407 306.807 47.0407 307.5C47.0407 308.193 46.8807 308.807 46.5607 309.34C46.2407 309.867 45.7907 310.277 45.2107 310.57C44.6307 310.857 43.9674 311 43.2207 311H40.1607V304ZM43.1607 309.9C43.674 309.9 44.124 309.803 44.5107 309.61C44.904 309.41 45.204 309.13 45.4107 308.77C45.624 308.403 45.7307 307.98 45.7307 307.5C45.7307 307.02 45.624 306.6 45.4107 306.24C45.204 305.873 44.904 305.593 44.5107 305.4C44.124 305.2 43.674 305.1 43.1607 305.1H41.4607V309.9H43.1607Z" fill="#737373"/>
<rect y="202" width="50" height="11" fill="#242424"/>
<path d="M8.72 204V204.87L6 211H4.61L7.24 205.1H4.49V206.29H3.28V204H8.72ZM12.2487 211.1C11.6887 211.1 11.1887 210.96 10.7487 210.68C10.3087 210.393 9.96201 209.98 9.70867 209.44C9.45534 208.893 9.32867 208.247 9.32867 207.5C9.32867 206.753 9.45534 206.11 9.70867 205.57C9.96201 205.023 10.3087 204.61 10.7487 204.33C11.1887 204.043 11.6887 203.9 12.2487 203.9C12.8087 203.9 13.3087 204.043 13.7487 204.33C14.1953 204.61 14.5453 205.023 14.7987 205.57C15.052 206.11 15.1787 206.753 15.1787 207.5C15.1787 208.247 15.052 208.893 14.7987 209.44C14.5453 209.98 14.1953 210.393 13.7487 210.68C13.3087 210.96 12.8087 211.1 12.2487 211.1ZM12.2487 209.97C12.7487 209.97 13.142 209.763 13.4287 209.35C13.722 208.937 13.8687 208.32 13.8687 207.5C13.8687 206.68 13.722 206.063 13.4287 205.65C13.142 205.237 12.7487 205.03 12.2487 205.03C11.7553 205.03 11.362 205.237 11.0687 205.65C10.782 206.063 10.6387 206.68 10.6387 207.5C10.6387 208.32 10.782 208.937 11.0687 209.35C11.362 209.763 11.7553 209.97 12.2487 209.97ZM18.9772 211.1C18.4172 211.1 17.9172 210.96 17.4772 210.68C17.0372 210.393 16.6905 209.98 16.4372 209.44C16.1839 208.893 16.0572 208.247 16.0572 207.5C16.0572 206.753 16.1839 206.11 16.4372 205.57C16.6905 205.023 17.0372 204.61 17.4772 204.33C17.9172 204.043 18.4172 203.9 18.9772 203.9C19.5372 203.9 20.0372 204.043 20.4772 204.33C20.9239 204.61 21.2739 205.023 21.5272 205.57C21.7805 206.11 21.9072 206.753 21.9072 207.5C21.9072 208.247 21.7805 208.893 21.5272 209.44C21.2739 209.98 20.9239 210.393 20.4772 210.68C20.0372 210.96 19.5372 211.1 18.9772 211.1ZM18.9772 209.97C19.4772 209.97 19.8705 209.763 20.1572 209.35C20.4505 208.937 20.5972 208.32 20.5972 207.5C20.5972 206.68 20.4505 206.063 20.1572 205.65C19.8705 205.237 19.4772 205.03 18.9772 205.03C18.4839 205.03 18.0905 205.237 17.7972 205.65C17.5105 206.063 17.3672 206.68 17.3672 207.5C17.3672 208.32 17.5105 208.937 17.7972 209.35C18.0905 209.763 18.4839 209.97 18.9772 209.97ZM29.0594 211.1C28.0927 211.1 27.3394 210.83 26.7994 210.29C26.2594 209.743 25.9894 208.963 25.9894 207.95V204H27.2894V207.9C27.2894 209.273 27.8827 209.96 29.0694 209.96C30.2494 209.96 30.8394 209.273 30.8394 207.9V204H32.1194V207.95C32.1194 208.963 31.8494 209.743 31.3094 210.29C30.776 210.83 30.026 211.1 29.0594 211.1ZM36.11 211.1C35.57 211.1 35.0467 211.023 34.54 210.87C34.04 210.717 33.6433 210.513 33.35 210.26L33.8 209.25C34.0867 209.477 34.4367 209.663 34.85 209.81C35.27 209.95 35.69 210.02 36.11 210.02C36.63 210.02 37.0167 209.937 37.27 209.77C37.53 209.603 37.66 209.383 37.66 209.11C37.66 208.91 37.5867 208.747 37.44 208.62C37.3 208.487 37.12 208.383 36.9 208.31C36.68 208.237 36.38 208.153 36 208.06C35.4667 207.933 35.0333 207.807 34.7 207.68C34.3733 207.553 34.09 207.357 33.85 207.09C33.6167 206.817 33.5 206.45 33.5 205.99C33.5 205.603 33.6033 205.253 33.81 204.94C34.0233 204.62 34.34 204.367 34.76 204.18C35.1867 203.993 35.7067 203.9 36.32 203.9C36.7467 203.9 37.1667 203.953 37.58 204.06C37.9933 204.167 38.35 204.32 38.65 204.52L38.24 205.53C37.9333 205.35 37.6133 205.213 37.28 205.12C36.9467 205.027 36.6233 204.98 36.31 204.98C35.7967 204.98 35.4133 205.067 35.16 205.24C34.9133 205.413 34.79 205.643 34.79 205.93C34.79 206.13 34.86 206.293 35 206.42C35.1467 206.547 35.33 206.647 35.55 206.72C35.77 206.793 36.07 206.877 36.45 206.97C36.97 207.09 37.3967 207.217 37.73 207.35C38.0633 207.477 38.3467 207.673 38.58 207.94C38.82 208.207 38.94 208.567 38.94 209.02C38.94 209.407 38.8333 209.757 38.62 210.07C38.4133 210.383 38.0967 210.633 37.67 210.82C37.2433 211.007 36.7233 211.1 36.11 211.1ZM40.2291 204H43.2891C44.0357 204 44.6991 204.147 45.2791 204.44C45.8591 204.727 46.3091 205.137 46.6291 205.67C46.9491 206.197 47.1091 206.807 47.1091 207.5C47.1091 208.193 46.9491 208.807 46.6291 209.34C46.3091 209.867 45.8591 210.277 45.2791 210.57C44.6991 210.857 44.0357 211 43.2891 211H40.2291V204ZM43.2291 209.9C43.7424 209.9 44.1924 209.803 44.5791 209.61C44.9724 209.41 45.2724 209.13 45.4791 208.77C45.6924 208.403 45.7991 207.98 45.7991 207.5C45.7991 207.02 45.6924 206.6 45.4791 206.24C45.2724 205.873 44.9724 205.593 44.5791 205.4C44.1924 205.2 43.7424 205.1 43.2291 205.1H41.5291V209.9H43.2291Z" fill="#737373"/>
<rect y="101" width="55" height="11" fill="#242424"/>
<path d="M5.86 103V110H4.56V104.09H3.08V103H5.86ZM12.4323 103V110H11.1323V104.09H9.65227V103H12.4323ZM16.7409 110.1C16.1809 110.1 15.6809 109.96 15.2409 109.68C14.8009 109.393 14.4542 108.98 14.2009 108.44C13.9475 107.893 13.8209 107.247 13.8209 106.5C13.8209 105.753 13.9475 105.11 14.2009 104.57C14.4542 104.023 14.8009 103.61 15.2409 103.33C15.6809 103.043 16.1809 102.9 16.7409 102.9C17.3009 102.9 17.8009 103.043 18.2409 103.33C18.6875 103.61 19.0375 104.023 19.2909 104.57C19.5442 105.11 19.6709 105.753 19.6709 106.5C19.6709 107.247 19.5442 107.893 19.2909 108.44C19.0375 108.98 18.6875 109.393 18.2409 109.68C17.8009 109.96 17.3009 110.1 16.7409 110.1ZM16.7409 108.97C17.2409 108.97 17.6342 108.763 17.9209 108.35C18.2142 107.937 18.3609 107.32 18.3609 106.5C18.3609 105.68 18.2142 105.063 17.9209 104.65C17.6342 104.237 17.2409 104.03 16.7409 104.03C16.2475 104.03 15.8542 104.237 15.5609 104.65C15.2742 105.063 15.1309 105.68 15.1309 106.5C15.1309 107.32 15.2742 107.937 15.5609 108.35C15.8542 108.763 16.2475 108.97 16.7409 108.97ZM23.4694 110.1C22.9094 110.1 22.4094 109.96 21.9694 109.68C21.5294 109.393 21.1827 108.98 20.9294 108.44C20.676 107.893 20.5494 107.247 20.5494 106.5C20.5494 105.753 20.676 105.11 20.9294 104.57C21.1827 104.023 21.5294 103.61 21.9694 103.33C22.4094 103.043 22.9094 102.9 23.4694 102.9C24.0294 102.9 24.5294 103.043 24.9694 103.33C25.416 103.61 25.766 104.023 26.0194 104.57C26.2727 105.11 26.3994 105.753 26.3994 106.5C26.3994 107.247 26.2727 107.893 26.0194 108.44C25.766 108.98 25.416 109.393 24.9694 109.68C24.5294 109.96 24.0294 110.1 23.4694 110.1ZM23.4694 108.97C23.9694 108.97 24.3627 108.763 24.6494 108.35C24.9427 107.937 25.0894 107.32 25.0894 106.5C25.0894 105.68 24.9427 105.063 24.6494 104.65C24.3627 104.237 23.9694 104.03 23.4694 104.03C22.976 104.03 22.5827 104.237 22.2894 104.65C22.0027 105.063 21.8594 105.68 21.8594 106.5C21.8594 107.32 22.0027 107.937 22.2894 108.35C22.5827 108.763 22.976 108.97 23.4694 108.97ZM33.5516 110.1C32.5849 110.1 31.8316 109.83 31.2916 109.29C30.7516 108.743 30.4816 107.963 30.4816 106.95V103H31.7816V106.9C31.7816 108.273 32.3749 108.96 33.5616 108.96C34.7416 108.96 35.3316 108.273 35.3316 106.9V103H36.6116V106.95C36.6116 107.963 36.3416 108.743 35.8016 109.29C35.2682 109.83 34.5182 110.1 33.5516 110.1ZM40.6022 110.1C40.0622 110.1 39.5389 110.023 39.0322 109.87C38.5322 109.717 38.1355 109.513 37.8422 109.26L38.2922 108.25C38.5789 108.477 38.9289 108.663 39.3422 108.81C39.7622 108.95 40.1822 109.02 40.6022 109.02C41.1222 109.02 41.5089 108.937 41.7622 108.77C42.0222 108.603 42.1522 108.383 42.1522 108.11C42.1522 107.91 42.0789 107.747 41.9322 107.62C41.7922 107.487 41.6122 107.383 41.3922 107.31C41.1722 107.237 40.8722 107.153 40.4922 107.06C39.9589 106.933 39.5255 106.807 39.1922 106.68C38.8655 106.553 38.5822 106.357 38.3422 106.09C38.1089 105.817 37.9922 105.45 37.9922 104.99C37.9922 104.603 38.0955 104.253 38.3022 103.94C38.5155 103.62 38.8322 103.367 39.2522 103.18C39.6789 102.993 40.1989 102.9 40.8122 102.9C41.2389 102.9 41.6589 102.953 42.0722 103.06C42.4855 103.167 42.8422 103.32 43.1422 103.52L42.7322 104.53C42.4255 104.35 42.1055 104.213 41.7722 104.12C41.4389 104.027 41.1155 103.98 40.8022 103.98C40.2889 103.98 39.9055 104.067 39.6522 104.24C39.4055 104.413 39.2822 104.643 39.2822 104.93C39.2822 105.13 39.3522 105.293 39.4922 105.42C39.6389 105.547 39.8222 105.647 40.0422 105.72C40.2622 105.793 40.5622 105.877 40.9422 105.97C41.4622 106.09 41.8889 106.217 42.2222 106.35C42.5555 106.477 42.8389 106.673 43.0722 106.94C43.3122 107.207 43.4322 107.567 43.4322 108.02C43.4322 108.407 43.3255 108.757 43.1122 109.07C42.9055 109.383 42.5889 109.633 42.1622 109.82C41.7355 110.007 41.2155 110.1 40.6022 110.1ZM44.7213 103H47.7813C48.5279 103 49.1913 103.147 49.7713 103.44C50.3513 103.727 50.8013 104.137 51.1213 104.67C51.4413 105.197 51.6013 105.807 51.6013 106.5C51.6013 107.193 51.4413 107.807 51.1213 108.34C50.8013 108.867 50.3513 109.277 49.7713 109.57C49.1913 109.857 48.5279 110 47.7813 110H44.7213V103ZM47.7213 108.9C48.2346 108.9 48.6846 108.803 49.0713 108.61C49.4646 108.41 49.7646 108.13 49.9713 107.77C50.1846 107.403 50.2913 106.98 50.2913 106.5C50.2913 106.02 50.1846 105.6 49.9713 105.24C49.7646 104.873 49.4646 104.593 49.0713 104.4C48.6846 104.2 48.2346 104.1 47.7213 104.1H46.0213V108.9H47.7213Z" fill="#737373"/>
<rect width="57" height="11" fill="#242424"/>
<path d="M5.86 2V9H4.56V3.09H3.08V2H5.86ZM12.2023 4.71C13.1889 4.71 13.9189 4.90333 14.3923 5.29C14.8656 5.67 15.1023 6.19 15.1023 6.85C15.1023 7.27 14.9989 7.65 14.7923 7.99C14.5856 8.33 14.2756 8.6 13.8623 8.8C13.4489 9 12.9389 9.1 12.3323 9.1C11.8323 9.1 11.3489 9.03 10.8823 8.89C10.4156 8.74333 10.0223 8.54333 9.70227 8.29L10.2523 7.28C10.5123 7.49333 10.8223 7.66333 11.1823 7.79C11.5489 7.91 11.9256 7.97 12.3123 7.97C12.7723 7.97 13.1323 7.87667 13.3923 7.69C13.6589 7.49667 13.7923 7.23333 13.7923 6.9C13.7923 6.54 13.6489 6.27 13.3623 6.09C13.0823 5.90333 12.5989 5.81 11.9123 5.81H10.2223L10.5823 2H14.6923V3.09H11.6823L11.5323 4.71H12.2023ZM18.7721 9.1C18.2121 9.1 17.7121 8.96 17.2721 8.68C16.8321 8.39333 16.4854 7.98 16.2321 7.44C15.9788 6.89333 15.8521 6.24667 15.8521 5.5C15.8521 4.75333 15.9788 4.11 16.2321 3.57C16.4854 3.02333 16.8321 2.61 17.2721 2.33C17.7121 2.04333 18.2121 1.9 18.7721 1.9C19.3321 1.9 19.8321 2.04333 20.2721 2.33C20.7188 2.61 21.0688 3.02333 21.3221 3.57C21.5754 4.11 21.7021 4.75333 21.7021 5.5C21.7021 6.24667 21.5754 6.89333 21.3221 7.44C21.0688 7.98 20.7188 8.39333 20.2721 8.68C19.8321 8.96 19.3321 9.1 18.7721 9.1ZM18.7721 7.97C19.2721 7.97 19.6654 7.76333 19.9521 7.35C20.2454 6.93667 20.3921 6.32 20.3921 5.5C20.3921 4.68 20.2454 4.06333 19.9521 3.65C19.6654 3.23667 19.2721 3.03 18.7721 3.03C18.2788 3.03 17.8854 3.23667 17.5921 3.65C17.3054 4.06333 17.1621 4.68 17.1621 5.5C17.1621 6.32 17.3054 6.93667 17.5921 7.35C17.8854 7.76333 18.2788 7.97 18.7721 7.97ZM25.5006 9.1C24.9406 9.1 24.4406 8.96 24.0006 8.68C23.5606 8.39333 23.214 7.98 22.9606 7.44C22.7073 6.89333 22.5806 6.24667 22.5806 5.5C22.5806 4.75333 22.7073 4.11 22.9606 3.57C23.214 3.02333 23.5606 2.61 24.0006 2.33C24.4406 2.04333 24.9406 1.9 25.5006 1.9C26.0606 1.9 26.5606 2.04333 27.0006 2.33C27.4473 2.61 27.7973 3.02333 28.0506 3.57C28.304 4.11 28.4306 4.75333 28.4306 5.5C28.4306 6.24667 28.304 6.89333 28.0506 7.44C27.7973 7.98 27.4473 8.39333 27.0006 8.68C26.5606 8.96 26.0606 9.1 25.5006 9.1ZM25.5006 7.97C26.0006 7.97 26.394 7.76333 26.6806 7.35C26.974 6.93667 27.1206 6.32 27.1206 5.5C27.1206 4.68 26.974 4.06333 26.6806 3.65C26.394 3.23667 26.0006 3.03 25.5006 3.03C25.0073 3.03 24.614 3.23667 24.3206 3.65C24.034 4.06333 23.8906 4.68 23.8906 5.5C23.8906 6.32 24.034 6.93667 24.3206 7.35C24.614 7.76333 25.0073 7.97 25.5006 7.97ZM35.5828 9.1C34.6161 9.1 33.8628 8.83 33.3228 8.29C32.7828 7.74333 32.5128 6.96333 32.5128 5.95V2H33.8128V5.9C33.8128 7.27333 34.4061 7.96 35.5928 7.96C36.7728 7.96 37.3628 7.27333 37.3628 5.9V2H38.6428V5.95C38.6428 6.96333 38.3728 7.74333 37.8328 8.29C37.2995 8.83 36.5495 9.1 35.5828 9.1ZM42.6334 9.1C42.0934 9.1 41.5701 9.02333 41.0634 8.87C40.5634 8.71667 40.1668 8.51333 39.8734 8.26L40.3234 7.25C40.6101 7.47667 40.9601 7.66333 41.3734 7.81C41.7934 7.95 42.2134 8.02 42.6334 8.02C43.1534 8.02 43.5401 7.93667 43.7934 7.77C44.0534 7.60333 44.1834 7.38333 44.1834 7.11C44.1834 6.91 44.1101 6.74667 43.9634 6.62C43.8234 6.48667 43.6434 6.38333 43.4234 6.31C43.2034 6.23667 42.9034 6.15333 42.5234 6.06C41.9901 5.93333 41.5568 5.80667 41.2234 5.68C40.8968 5.55333 40.6134 5.35667 40.3734 5.09C40.1401 4.81667 40.0234 4.45 40.0234 3.99C40.0234 3.60333 40.1268 3.25333 40.3334 2.94C40.5468 2.62 40.8634 2.36667 41.2834 2.18C41.7101 1.99333 42.2301 1.9 42.8434 1.9C43.2701 1.9 43.6901 1.95333 44.1034 2.06C44.5168 2.16667 44.8734 2.32 45.1734 2.52L44.7634 3.53C44.4568 3.35 44.1368 3.21333 43.8034 3.12C43.4701 3.02667 43.1468 2.98 42.8334 2.98C42.3201 2.98 41.9368 3.06667 41.6834 3.24C41.4368 3.41333 41.3134 3.64333 41.3134 3.93C41.3134 4.13 41.3834 4.29333 41.5234 4.42C41.6701 4.54667 41.8534 4.64667 42.0734 4.72C42.2934 4.79333 42.5934 4.87667 42.9734 4.97C43.4934 5.09 43.9201 5.21667 44.2534 5.35C44.5868 5.47667 44.8701 5.67333 45.1034 5.94C45.3434 6.20667 45.4634 6.56667 45.4634 7.02C45.4634 7.40667 45.3568 7.75667 45.1434 8.07C44.9368 8.38333 44.6201 8.63333 44.1934 8.82C43.7668 9.00667 43.2468 9.1 42.6334 9.1ZM46.7525 2H49.8125C50.5592 2 51.2225 2.14667 51.8025 2.44C52.3825 2.72667 52.8325 3.13667 53.1525 3.67C53.4725 4.19667 53.6325 4.80667 53.6325 5.5C53.6325 6.19333 53.4725 6.80667 53.1525 7.34C52.8325 7.86667 52.3825 8.27667 51.8025 8.57C51.2225 8.85667 50.5592 9 49.8125 9H46.7525V2ZM49.7525 7.9C50.2658 7.9 50.7158 7.80333 51.1025 7.61C51.4958 7.41 51.7958 7.13 52.0025 6.77C52.2158 6.40333 52.3225 5.98 52.3225 5.5C52.3225 5.02 52.2158 4.6 52.0025 4.24C51.7958 3.87333 51.4958 3.59333 51.1025 3.4C50.7158 3.2 50.2658 3.1 49.7525 3.1H48.0525V7.9H49.7525Z" fill="#737373"/>
<defs>
<linearGradient id="paint0_linear" x1="665.5" y1="7" x2="665.5" y2="295" gradientUnits="userSpaceOnUse">
<stop stop-color="white" stop-opacity="0.1"/>
<stop offset="1" stop-color="white" stop-opacity="0"/>
</linearGradient>
</defs>
</svg>
