<svg width="867" height="313" viewBox="0 0 867 313" fill="none" xmlns="http://www.w3.org/2000/svg">
<rect y="307" width="867" height="1" fill="white" fill-opacity="0.07"/>
<rect y="207" width="867" height="1" fill="white" fill-opacity="0.07"/>
<rect y="106" width="867" height="1" fill="white" fill-opacity="0.07"/>
<rect y="5" width="867" height="1" fill="white" fill-opacity="0.07"/>
<path d="M29.2483 267.5L19.8471 307H865.955V42.5L856.554 45.5L847.153 37.5L837.752 24.5L828.351 7L818.95 24L809.548 45L800.147 34L790.746 58.5L781.345 48L771.943 61L762.542 75L753.141 70L743.74 73L734.339 83L724.937 86.5L715.536 98L706.135 101L696.734 80.5L687.333 72L677.931 76.5L668.53 73.5L659.129 48L649.728 39.5H630.925L621.524 66L612.123 62L602.722 75.5L593.321 76.5L583.919 84.5L574.518 86.5L565.117 82L555.716 69L546.315 88L536.913 84.5L527.512 91L518.111 94.5L508.71 91L499.309 102L489.907 104L480.506 131L471.105 136H452.303L442.901 141L433.5 150.5L424.099 167L414.698 169.5L405.296 161.5L395.895 159L386.494 146L377.093 151.5H358.29L348.889 160.5L339.488 163.5L330.087 157.5L320.686 159.5L311.284 169L301.883 177.5L292.482 181.5L283.081 179.5L273.68 182.5L264.278 189.5L254.877 186.5L245.476 194.5L236.075 196.5H226.674L217.272 213L207.871 208L198.47 210L189.069 221L179.668 224L170.266 237L160.865 239.5L151.464 261.5L142.063 249.5L132.662 254.5L123.26 252L113.859 261L104.458 265.5H85.6555L76.2543 273L66.8531 276L57.4519 269.5L48.0507 265L38.6495 267.5H29.2483Z" fill="url(#paint0_linear)"/>
<path d="M1.04466 307H10.4459H19.8471L29.2483 267.5H38.6495L48.0507 265L57.4519 269.5L66.8531 276L76.2543 273L85.6555 265.5H104.458L113.859 261L123.26 252L132.662 254.5L142.063 249.5L151.464 261.5L160.865 239.5L170.266 237L179.668 224L189.069 221L198.47 210L207.871 208L217.272 213L226.674 196.5H236.075L245.476 194.5L254.877 186.5L264.278 189.5L273.68 182.5L283.081 179.5L292.482 181.5L301.883 177.5L311.284 169L320.686 159.5L330.087 157.5L339.488 163.5L348.889 160.5L358.29 151.5H377.093L386.494 146L395.895 159L405.296 161.5L414.698 169.5L424.099 167L433.5 150.5L442.901 141L452.302 136H471.105L480.506 131L489.907 104L499.309 102L508.71 91L518.111 94.5L527.512 91L536.913 84.5L546.315 88L555.716 69L565.117 82L574.518 86.5L583.919 84.5L593.321 76.5L602.722 75.5L612.123 62L621.524 66L630.925 39.5H649.728L659.129 48L668.53 73.5L677.931 76.5L687.333 72L696.734 80.5L706.135 101L715.536 98L724.937 86.5L734.339 83L743.74 73L753.141 70L762.542 75L771.943 61L781.345 48L790.746 58.5L800.147 34L809.548 45L818.949 24L828.351 7L837.752 24.5L847.153 37.5L856.554 45.5L865.956 42.5" stroke="white" stroke-opacity="0.5" stroke-linejoin="round"/>
<rect y="302" width="38" height="11" fill="#242424"/>
<path d="M6.36 311.1C5.8 311.1 5.3 310.96 4.86 310.68C4.42 310.393 4.07333 309.98 3.82 309.44C3.56667 308.893 3.44 308.247 3.44 307.5C3.44 306.753 3.56667 306.11 3.82 305.57C4.07333 305.023 4.42 304.61 4.86 304.33C5.3 304.043 5.8 303.9 6.36 303.9C6.92 303.9 7.42 304.043 7.86 304.33C8.30667 304.61 8.65667 305.023 8.91 305.57C9.16333 306.11 9.29 306.753 9.29 307.5C9.29 308.247 9.16333 308.893 8.91 309.44C8.65667 309.98 8.30667 310.393 7.86 310.68C7.42 310.96 6.92 311.1 6.36 311.1ZM6.36 309.97C6.86 309.97 7.25333 309.763 7.54 309.35C7.83333 308.937 7.98 308.32 7.98 307.5C7.98 306.68 7.83333 306.063 7.54 305.65C7.25333 305.237 6.86 305.03 6.36 305.03C5.86667 305.03 5.47333 305.237 5.18 305.65C4.89333 306.063 4.75 306.68 4.75 307.5C4.75 308.32 4.89333 308.937 5.18 309.35C5.47333 309.763 5.86667 309.97 6.36 309.97ZM16.4422 311.1C15.4755 311.1 14.7222 310.83 14.1822 310.29C13.6422 309.743 13.3722 308.963 13.3722 307.95V304H14.6722V307.9C14.6722 309.273 15.2655 309.96 16.4522 309.96C17.6322 309.96 18.2222 309.273 18.2222 307.9V304H19.5022V307.95C19.5022 308.963 19.2322 309.743 18.6922 310.29C18.1589 310.83 17.4089 311.1 16.4422 311.1ZM23.4928 311.1C22.9528 311.1 22.4295 311.023 21.9228 310.87C21.4228 310.717 21.0261 310.513 20.7328 310.26L21.1828 309.25C21.4695 309.477 21.8195 309.663 22.2328 309.81C22.6528 309.95 23.0728 310.02 23.4928 310.02C24.0128 310.02 24.3995 309.937 24.6528 309.77C24.9128 309.603 25.0428 309.383 25.0428 309.11C25.0428 308.91 24.9695 308.747 24.8228 308.62C24.6828 308.487 24.5028 308.383 24.2828 308.31C24.0628 308.237 23.7628 308.153 23.3828 308.06C22.8495 307.933 22.4161 307.807 22.0828 307.68C21.7561 307.553 21.4728 307.357 21.2328 307.09C20.9995 306.817 20.8828 306.45 20.8828 305.99C20.8828 305.603 20.9861 305.253 21.1928 304.94C21.4061 304.62 21.7228 304.367 22.1428 304.18C22.5695 303.993 23.0895 303.9 23.7028 303.9C24.1295 303.9 24.5495 303.953 24.9628 304.06C25.3761 304.167 25.7328 304.32 26.0328 304.52L25.6228 305.53C25.3161 305.35 24.9961 305.213 24.6628 305.12C24.3295 305.027 24.0061 304.98 23.6928 304.98C23.1795 304.98 22.7961 305.067 22.5428 305.24C22.2961 305.413 22.1728 305.643 22.1728 305.93C22.1728 306.13 22.2428 306.293 22.3828 306.42C22.5295 306.547 22.7128 306.647 22.9328 306.72C23.1528 306.793 23.4528 306.877 23.8328 306.97C24.3528 307.09 24.7795 307.217 25.1128 307.35C25.4461 307.477 25.7295 307.673 25.9628 307.94C26.2028 308.207 26.3228 308.567 26.3228 309.02C26.3228 309.407 26.2161 309.757 26.0028 310.07C25.7961 310.383 25.4795 310.633 25.0528 310.82C24.6261 311.007 24.1061 311.1 23.4928 311.1ZM27.6119 304H30.6719C31.4185 304 32.0819 304.147 32.6619 304.44C33.2419 304.727 33.6919 305.137 34.0119 305.67C34.3319 306.197 34.4919 306.807 34.4919 307.5C34.4919 308.193 34.3319 308.807 34.0119 309.34C33.6919 309.867 33.2419 310.277 32.6619 310.57C32.0819 310.857 31.4185 311 30.6719 311H27.6119V304ZM30.6119 309.9C31.1252 309.9 31.5752 309.803 31.9619 309.61C32.3552 309.41 32.6552 309.13 32.8619 308.77C33.0752 308.403 33.1819 307.98 33.1819 307.5C33.1819 307.02 33.0752 306.6 32.8619 306.24C32.6552 305.873 32.3552 305.593 31.9619 305.4C31.5752 305.2 31.1252 305.1 30.6119 305.1H28.9119V309.9H30.6119Z" fill="#737373"/>
<rect y="202" width="57" height="11" fill="#242424"/>
<path d="M5.86 204V211H4.56V205.09H3.08V204H5.86ZM15.0823 209.9V211H9.92227V210.13L12.7023 207.49C13.0156 207.19 13.2256 206.93 13.3323 206.71C13.4456 206.483 13.5023 206.26 13.5023 206.04C13.5023 205.713 13.3923 205.463 13.1723 205.29C12.9523 205.117 12.6289 205.03 12.2023 205.03C11.4889 205.03 10.9423 205.273 10.5623 205.76L9.65227 205.06C9.9256 204.693 10.2923 204.41 10.7523 204.21C11.2189 204.003 11.7389 203.9 12.3123 203.9C13.0723 203.9 13.6789 204.08 14.1323 204.44C14.5856 204.8 14.8123 205.29 14.8123 205.91C14.8123 206.29 14.7323 206.647 14.5723 206.98C14.4123 207.313 14.1056 207.693 13.6523 208.12L11.7823 209.9H15.0823ZM18.7233 211.1C18.1633 211.1 17.6633 210.96 17.2233 210.68C16.7833 210.393 16.4366 209.98 16.1833 209.44C15.9299 208.893 15.8033 208.247 15.8033 207.5C15.8033 206.753 15.9299 206.11 16.1833 205.57C16.4366 205.023 16.7833 204.61 17.2233 204.33C17.6633 204.043 18.1633 203.9 18.7233 203.9C19.2833 203.9 19.7833 204.043 20.2233 204.33C20.6699 204.61 21.0199 205.023 21.2733 205.57C21.5266 206.11 21.6533 206.753 21.6533 207.5C21.6533 208.247 21.5266 208.893 21.2733 209.44C21.0199 209.98 20.6699 210.393 20.2233 210.68C19.7833 210.96 19.2833 211.1 18.7233 211.1ZM18.7233 209.97C19.2233 209.97 19.6166 209.763 19.9033 209.35C20.1966 208.937 20.3433 208.32 20.3433 207.5C20.3433 206.68 20.1966 206.063 19.9033 205.65C19.6166 205.237 19.2233 205.03 18.7233 205.03C18.2299 205.03 17.8366 205.237 17.5433 205.65C17.2566 206.063 17.1133 206.68 17.1133 207.5C17.1133 208.32 17.2566 208.937 17.5433 209.35C17.8366 209.763 18.2299 209.97 18.7233 209.97ZM25.4518 211.1C24.8918 211.1 24.3918 210.96 23.9518 210.68C23.5118 210.393 23.1651 209.98 22.9118 209.44C22.6585 208.893 22.5318 208.247 22.5318 207.5C22.5318 206.753 22.6585 206.11 22.9118 205.57C23.1651 205.023 23.5118 204.61 23.9518 204.33C24.3918 204.043 24.8918 203.9 25.4518 203.9C26.0118 203.9 26.5118 204.043 26.9518 204.33C27.3985 204.61 27.7485 205.023 28.0018 205.57C28.2551 206.11 28.3818 206.753 28.3818 207.5C28.3818 208.247 28.2551 208.893 28.0018 209.44C27.7485 209.98 27.3985 210.393 26.9518 210.68C26.5118 210.96 26.0118 211.1 25.4518 211.1ZM25.4518 209.97C25.9518 209.97 26.3451 209.763 26.6318 209.35C26.9251 208.937 27.0718 208.32 27.0718 207.5C27.0718 206.68 26.9251 206.063 26.6318 205.65C26.3451 205.237 25.9518 205.03 25.4518 205.03C24.9585 205.03 24.5651 205.237 24.2718 205.65C23.9851 206.063 23.8418 206.68 23.8418 207.5C23.8418 208.32 23.9851 208.937 24.2718 209.35C24.5651 209.763 24.9585 209.97 25.4518 209.97ZM35.534 211.1C34.5673 211.1 33.814 210.83 33.274 210.29C32.734 209.743 32.464 208.963 32.464 207.95V204H33.764V207.9C33.764 209.273 34.3573 209.96 35.544 209.96C36.724 209.96 37.314 209.273 37.314 207.9V204H38.594V207.95C38.594 208.963 38.324 209.743 37.784 210.29C37.2507 210.83 36.5007 211.1 35.534 211.1ZM42.5846 211.1C42.0446 211.1 41.5213 211.023 41.0146 210.87C40.5146 210.717 40.1179 210.513 39.8246 210.26L40.2746 209.25C40.5613 209.477 40.9113 209.663 41.3246 209.81C41.7446 209.95 42.1646 210.02 42.5846 210.02C43.1046 210.02 43.4913 209.937 43.7446 209.77C44.0046 209.603 44.1346 209.383 44.1346 209.11C44.1346 208.91 44.0613 208.747 43.9146 208.62C43.7746 208.487 43.5946 208.383 43.3746 208.31C43.1546 208.237 42.8546 208.153 42.4746 208.06C41.9413 207.933 41.5079 207.807 41.1746 207.68C40.8479 207.553 40.5646 207.357 40.3246 207.09C40.0913 206.817 39.9746 206.45 39.9746 205.99C39.9746 205.603 40.0779 205.253 40.2846 204.94C40.4979 204.62 40.8146 204.367 41.2346 204.18C41.6613 203.993 42.1813 203.9 42.7946 203.9C43.2213 203.9 43.6413 203.953 44.0546 204.06C44.4679 204.167 44.8246 204.32 45.1246 204.52L44.7146 205.53C44.4079 205.35 44.0879 205.213 43.7546 205.12C43.4213 205.027 43.0979 204.98 42.7846 204.98C42.2713 204.98 41.8879 205.067 41.6346 205.24C41.3879 205.413 41.2646 205.643 41.2646 205.93C41.2646 206.13 41.3346 206.293 41.4746 206.42C41.6213 206.547 41.8046 206.647 42.0246 206.72C42.2446 206.793 42.5446 206.877 42.9246 206.97C43.4446 207.09 43.8713 207.217 44.2046 207.35C44.5379 207.477 44.8213 207.673 45.0546 207.94C45.2946 208.207 45.4146 208.567 45.4146 209.02C45.4146 209.407 45.3079 209.757 45.0946 210.07C44.8879 210.383 44.5713 210.633 44.1446 210.82C43.7179 211.007 43.1979 211.1 42.5846 211.1ZM46.7037 204H49.7637C50.5103 204 51.1737 204.147 51.7537 204.44C52.3337 204.727 52.7837 205.137 53.1037 205.67C53.4237 206.197 53.5837 206.807 53.5837 207.5C53.5837 208.193 53.4237 208.807 53.1037 209.34C52.7837 209.867 52.3337 210.277 51.7537 210.57C51.1737 210.857 50.5103 211 49.7637 211H46.7037V204ZM49.7037 209.9C50.217 209.9 50.667 209.803 51.0537 209.61C51.447 209.41 51.747 209.13 51.9537 208.77C52.167 208.403 52.2737 207.98 52.2737 207.5C52.2737 207.02 52.167 206.6 51.9537 206.24C51.747 205.873 51.447 205.593 51.0537 205.4C50.667 205.2 50.217 205.1 49.7037 205.1H48.0037V209.9H49.7037Z" fill="#737373"/>
<rect y="101" width="60" height="11" fill="#242424"/>
<path d="M8.51 108.9V110H3.35V109.13L6.13 106.49C6.44333 106.19 6.65333 105.93 6.76 105.71C6.87333 105.483 6.93 105.26 6.93 105.04C6.93 104.713 6.82 104.463 6.6 104.29C6.38 104.117 6.05667 104.03 5.63 104.03C4.91667 104.03 4.37 104.273 3.99 104.76L3.08 104.06C3.35333 103.693 3.72 103.41 4.18 103.21C4.64667 103.003 5.16667 102.9 5.74 102.9C6.5 102.9 7.10667 103.08 7.56 103.44C8.01333 103.8 8.24 104.29 8.24 104.91C8.24 105.29 8.16 105.647 8 105.98C7.84 106.313 7.53333 106.693 7.08 107.12L5.21 108.9H8.51ZM18.264 108.41H17.024V110H15.764V108.41H11.924V107.51L15.374 103H16.764L13.514 107.31H15.804V105.9H17.024V107.31H18.264V108.41ZM21.7311 110.1C21.1711 110.1 20.6711 109.96 20.2311 109.68C19.7911 109.393 19.4444 108.98 19.1911 108.44C18.9378 107.893 18.8111 107.247 18.8111 106.5C18.8111 105.753 18.9378 105.11 19.1911 104.57C19.4444 104.023 19.7911 103.61 20.2311 103.33C20.6711 103.043 21.1711 102.9 21.7311 102.9C22.2911 102.9 22.7911 103.043 23.2311 103.33C23.6778 103.61 24.0278 104.023 24.2811 104.57C24.5344 105.11 24.6611 105.753 24.6611 106.5C24.6611 107.247 24.5344 107.893 24.2811 108.44C24.0278 108.98 23.6778 109.393 23.2311 109.68C22.7911 109.96 22.2911 110.1 21.7311 110.1ZM21.7311 108.97C22.2311 108.97 22.6244 108.763 22.9111 108.35C23.2044 107.937 23.3511 107.32 23.3511 106.5C23.3511 105.68 23.2044 105.063 22.9111 104.65C22.6244 104.237 22.2311 104.03 21.7311 104.03C21.2378 104.03 20.8444 104.237 20.5511 104.65C20.2644 105.063 20.1211 105.68 20.1211 106.5C20.1211 107.32 20.2644 107.937 20.5511 108.35C20.8444 108.763 21.2378 108.97 21.7311 108.97ZM28.4596 110.1C27.8996 110.1 27.3996 109.96 26.9596 109.68C26.5196 109.393 26.1729 108.98 25.9196 108.44C25.6663 107.893 25.5396 107.247 25.5396 106.5C25.5396 105.753 25.6663 105.11 25.9196 104.57C26.1729 104.023 26.5196 103.61 26.9596 103.33C27.3996 103.043 27.8996 102.9 28.4596 102.9C29.0196 102.9 29.5196 103.043 29.9596 103.33C30.4063 103.61 30.7563 104.023 31.0096 104.57C31.2629 105.11 31.3896 105.753 31.3896 106.5C31.3896 107.247 31.2629 107.893 31.0096 108.44C30.7563 108.98 30.4063 109.393 29.9596 109.68C29.5196 109.96 29.0196 110.1 28.4596 110.1ZM28.4596 108.97C28.9596 108.97 29.3529 108.763 29.6396 108.35C29.9329 107.937 30.0796 107.32 30.0796 106.5C30.0796 105.68 29.9329 105.063 29.6396 104.65C29.3529 104.237 28.9596 104.03 28.4596 104.03C27.9663 104.03 27.5729 104.237 27.2796 104.65C26.9929 105.063 26.8496 105.68 26.8496 106.5C26.8496 107.32 26.9929 107.937 27.2796 108.35C27.5729 108.763 27.9663 108.97 28.4596 108.97ZM38.5418 110.1C37.5751 110.1 36.8218 109.83 36.2818 109.29C35.7418 108.743 35.4718 107.963 35.4718 106.95V103H36.7718V106.9C36.7718 108.273 37.3651 108.96 38.5518 108.96C39.7318 108.96 40.3218 108.273 40.3218 106.9V103H41.6018V106.95C41.6018 107.963 41.3318 108.743 40.7918 109.29C40.2585 109.83 39.5085 110.1 38.5418 110.1ZM45.5924 110.1C45.0524 110.1 44.5291 110.023 44.0224 109.87C43.5224 109.717 43.1258 109.513 42.8324 109.26L43.2824 108.25C43.5691 108.477 43.9191 108.663 44.3324 108.81C44.7524 108.95 45.1724 109.02 45.5924 109.02C46.1124 109.02 46.4991 108.937 46.7524 108.77C47.0124 108.603 47.1424 108.383 47.1424 108.11C47.1424 107.91 47.0691 107.747 46.9224 107.62C46.7824 107.487 46.6024 107.383 46.3824 107.31C46.1624 107.237 45.8624 107.153 45.4824 107.06C44.9491 106.933 44.5158 106.807 44.1824 106.68C43.8558 106.553 43.5724 106.357 43.3324 106.09C43.0991 105.817 42.9824 105.45 42.9824 104.99C42.9824 104.603 43.0858 104.253 43.2924 103.94C43.5058 103.62 43.8224 103.367 44.2424 103.18C44.6691 102.993 45.1891 102.9 45.8024 102.9C46.2291 102.9 46.6491 102.953 47.0624 103.06C47.4758 103.167 47.8324 103.32 48.1324 103.52L47.7224 104.53C47.4158 104.35 47.0958 104.213 46.7624 104.12C46.4291 104.027 46.1058 103.98 45.7924 103.98C45.2791 103.98 44.8958 104.067 44.6424 104.24C44.3958 104.413 44.2724 104.643 44.2724 104.93C44.2724 105.13 44.3424 105.293 44.4824 105.42C44.6291 105.547 44.8124 105.647 45.0324 105.72C45.2524 105.793 45.5524 105.877 45.9324 105.97C46.4524 106.09 46.8791 106.217 47.2124 106.35C47.5458 106.477 47.8291 106.673 48.0624 106.94C48.3024 107.207 48.4224 107.567 48.4224 108.02C48.4224 108.407 48.3158 108.757 48.1024 109.07C47.8958 109.383 47.5791 109.633 47.1524 109.82C46.7258 110.007 46.2058 110.1 45.5924 110.1ZM49.7115 103H52.7715C53.5182 103 54.1815 103.147 54.7615 103.44C55.3415 103.727 55.7915 104.137 56.1115 104.67C56.4315 105.197 56.5915 105.807 56.5915 106.5C56.5915 107.193 56.4315 107.807 56.1115 108.34C55.7915 108.867 55.3415 109.277 54.7615 109.57C54.1815 109.857 53.5182 110 52.7715 110H49.7115V103ZM52.7115 108.9C53.2248 108.9 53.6748 108.803 54.0615 108.61C54.4548 108.41 54.7548 108.13 54.9615 107.77C55.1748 107.403 55.2815 106.98 55.2815 106.5C55.2815 106.02 55.1748 105.6 54.9615 105.24C54.7548 104.873 54.4548 104.593 54.0615 104.4C53.6748 104.2 53.2248 104.1 52.7115 104.1H51.0115V108.9H52.7115Z" fill="#737373"/>
<rect width="59" height="11" fill="#242424"/>
<path d="M6.42 4.89C7.06667 4.97 7.56 5.19 7.9 5.55C8.24 5.91 8.41 6.36 8.41 6.9C8.41 7.30667 8.30667 7.67667 8.1 8.01C7.89333 8.34333 7.58 8.61 7.16 8.81C6.74667 9.00333 6.24 9.1 5.64 9.1C5.14 9.1 4.65667 9.03 4.19 8.89C3.73 8.74333 3.33667 8.54333 3.01 8.29L3.57 7.28C3.82333 7.49333 4.13 7.66333 4.49 7.79C4.85667 7.91 5.23333 7.97 5.62 7.97C6.08 7.97 6.44 7.87667 6.7 7.69C6.96667 7.49667 7.1 7.23667 7.1 6.91C7.1 6.58333 6.97333 6.33 6.72 6.15C6.47333 5.96333 6.09333 5.87 5.58 5.87H4.94V4.98L6.53 3.09H3.35V2H8.12V2.87L6.42 4.89ZM15.204 4.68C15.664 4.68 16.0773 4.77 16.444 4.95C16.8107 5.12333 17.0973 5.37333 17.304 5.7C17.5107 6.02667 17.614 6.40333 17.614 6.83C17.614 7.28333 17.5007 7.68333 17.274 8.03C17.0473 8.37 16.7407 8.63333 16.354 8.82C15.9673 9.00667 15.534 9.1 15.054 9.1C14.094 9.1 13.3473 8.8 12.814 8.2C12.2873 7.6 12.024 6.74 12.024 5.62C12.024 4.83333 12.1673 4.16333 12.454 3.61C12.7407 3.05 13.1407 2.62667 13.654 2.34C14.174 2.04667 14.774 1.9 15.454 1.9C15.814 1.9 16.1507 1.94 16.464 2.02C16.784 2.09333 17.0607 2.20333 17.294 2.35L16.814 3.33C16.4673 3.10333 16.024 2.99 15.484 2.99C14.8107 2.99 14.284 3.19667 13.904 3.61C13.524 4.02333 13.334 4.62 13.334 5.4V5.41C13.5407 5.17 13.804 4.99 14.124 4.87C14.444 4.74333 14.804 4.68 15.204 4.68ZM14.984 8.08C15.3907 8.08 15.7207 7.97333 15.974 7.76C16.2273 7.54 16.354 7.25 16.354 6.89C16.354 6.52333 16.2273 6.23333 15.974 6.02C15.7207 5.80667 15.3807 5.7 14.954 5.7C14.534 5.7 14.1907 5.81333 13.924 6.04C13.664 6.26667 13.534 6.55333 13.534 6.9C13.534 7.24 13.6607 7.52333 13.914 7.75C14.174 7.97 14.5307 8.08 14.984 8.08ZM21.2135 9.1C20.6535 9.1 20.1535 8.96 19.7135 8.68C19.2735 8.39333 18.9268 7.98 18.6735 7.44C18.4202 6.89333 18.2935 6.24667 18.2935 5.5C18.2935 4.75333 18.4202 4.11 18.6735 3.57C18.9268 3.02333 19.2735 2.61 19.7135 2.33C20.1535 2.04333 20.6535 1.9 21.2135 1.9C21.7735 1.9 22.2735 2.04333 22.7135 2.33C23.1602 2.61 23.5102 3.02333 23.7635 3.57C24.0168 4.11 24.1435 4.75333 24.1435 5.5C24.1435 6.24667 24.0168 6.89333 23.7635 7.44C23.5102 7.98 23.1602 8.39333 22.7135 8.68C22.2735 8.96 21.7735 9.1 21.2135 9.1ZM21.2135 7.97C21.7135 7.97 22.1068 7.76333 22.3935 7.35C22.6868 6.93667 22.8335 6.32 22.8335 5.5C22.8335 4.68 22.6868 4.06333 22.3935 3.65C22.1068 3.23667 21.7135 3.03 21.2135 3.03C20.7202 3.03 20.3268 3.23667 20.0335 3.65C19.7468 4.06333 19.6035 4.68 19.6035 5.5C19.6035 6.32 19.7468 6.93667 20.0335 7.35C20.3268 7.76333 20.7202 7.97 21.2135 7.97ZM27.942 9.1C27.382 9.1 26.882 8.96 26.442 8.68C26.002 8.39333 25.6554 7.98 25.402 7.44C25.1487 6.89333 25.022 6.24667 25.022 5.5C25.022 4.75333 25.1487 4.11 25.402 3.57C25.6554 3.02333 26.002 2.61 26.442 2.33C26.882 2.04333 27.382 1.9 27.942 1.9C28.502 1.9 29.002 2.04333 29.442 2.33C29.8887 2.61 30.2387 3.02333 30.492 3.57C30.7454 4.11 30.872 4.75333 30.872 5.5C30.872 6.24667 30.7454 6.89333 30.492 7.44C30.2387 7.98 29.8887 8.39333 29.442 8.68C29.002 8.96 28.502 9.1 27.942 9.1ZM27.942 7.97C28.442 7.97 28.8354 7.76333 29.122 7.35C29.4154 6.93667 29.562 6.32 29.562 5.5C29.562 4.68 29.4154 4.06333 29.122 3.65C28.8354 3.23667 28.442 3.03 27.942 3.03C27.4487 3.03 27.0554 3.23667 26.762 3.65C26.4754 4.06333 26.332 4.68 26.332 5.5C26.332 6.32 26.4754 6.93667 26.762 7.35C27.0554 7.76333 27.4487 7.97 27.942 7.97ZM38.0242 9.1C37.0576 9.1 36.3042 8.83 35.7642 8.29C35.2242 7.74333 34.9542 6.96333 34.9542 5.95V2H36.2542V5.9C36.2542 7.27333 36.8476 7.96 38.0342 7.96C39.2142 7.96 39.8042 7.27333 39.8042 5.9V2H41.0842V5.95C41.0842 6.96333 40.8142 7.74333 40.2742 8.29C39.7409 8.83 38.9909 9.1 38.0242 9.1ZM45.0748 9.1C44.5348 9.1 44.0115 9.02333 43.5048 8.87C43.0048 8.71667 42.6082 8.51333 42.3148 8.26L42.7648 7.25C43.0515 7.47667 43.4015 7.66333 43.8148 7.81C44.2348 7.95 44.6548 8.02 45.0748 8.02C45.5948 8.02 45.9815 7.93667 46.2348 7.77C46.4948 7.60333 46.6248 7.38333 46.6248 7.11C46.6248 6.91 46.5515 6.74667 46.4048 6.62C46.2648 6.48667 46.0848 6.38333 45.8648 6.31C45.6448 6.23667 45.3448 6.15333 44.9648 6.06C44.4315 5.93333 43.9982 5.80667 43.6648 5.68C43.3382 5.55333 43.0548 5.35667 42.8148 5.09C42.5815 4.81667 42.4648 4.45 42.4648 3.99C42.4648 3.60333 42.5682 3.25333 42.7748 2.94C42.9882 2.62 43.3048 2.36667 43.7248 2.18C44.1515 1.99333 44.6715 1.9 45.2848 1.9C45.7115 1.9 46.1315 1.95333 46.5448 2.06C46.9582 2.16667 47.3148 2.32 47.6148 2.52L47.2048 3.53C46.8982 3.35 46.5782 3.21333 46.2448 3.12C45.9115 3.02667 45.5882 2.98 45.2748 2.98C44.7615 2.98 44.3782 3.06667 44.1248 3.24C43.8782 3.41333 43.7548 3.64333 43.7548 3.93C43.7548 4.13 43.8248 4.29333 43.9648 4.42C44.1115 4.54667 44.2948 4.64667 44.5148 4.72C44.7348 4.79333 45.0348 4.87667 45.4148 4.97C45.9348 5.09 46.3615 5.21667 46.6948 5.35C47.0282 5.47667 47.3115 5.67333 47.5448 5.94C47.7848 6.20667 47.9048 6.56667 47.9048 7.02C47.9048 7.40667 47.7982 7.75667 47.5848 8.07C47.3782 8.38333 47.0615 8.63333 46.6348 8.82C46.2082 9.00667 45.6882 9.1 45.0748 9.1ZM49.1939 2H52.2539C53.0006 2 53.6639 2.14667 54.2439 2.44C54.8239 2.72667 55.2739 3.13667 55.5939 3.67C55.9139 4.19667 56.0739 4.80667 56.0739 5.5C56.0739 6.19333 55.9139 6.80667 55.5939 7.34C55.2739 7.86667 54.8239 8.27667 54.2439 8.57C53.6639 8.85667 53.0006 9 52.2539 9H49.1939V2ZM52.1939 7.9C52.7072 7.9 53.1572 7.80333 53.5439 7.61C53.9372 7.41 54.2372 7.13 54.4439 6.77C54.6572 6.40333 54.7639 5.98 54.7639 5.5C54.7639 5.02 54.6572 4.6 54.4439 4.24C54.2372 3.87333 53.9372 3.59333 53.5439 3.4C53.1572 3.2 52.7072 3.1 52.1939 3.1H50.4939V7.9H52.1939Z" fill="#737373"/>
<defs>
<linearGradient id="paint0_linear" x1="433.5" y1="7" x2="433.5" y2="307" gradientUnits="userSpaceOnUse">
<stop stop-color="white" stop-opacity="0.1"/>
<stop offset="1" stop-color="white" stop-opacity="0"/>
</linearGradient>
</defs>
</svg>
