<svg width="1331" height="313" viewBox="0 0 1331 313" fill="none" xmlns="http://www.w3.org/2000/svg">
<rect y="307" width="1330" height="1" fill="white" fill-opacity="0.07"/>
<rect y="207" width="1330" height="1" fill="white" fill-opacity="0.07"/>
<rect y="106" width="1330" height="1" fill="white" fill-opacity="0.07"/>
<rect y="5" width="1330" height="1" fill="white" fill-opacity="0.07"/>
<path d="M44.337 267.5L29.8913 307H1330V42.5L1315.55 45.5L1301.11 37.5L1286.66 24.5L1272.22 7L1257.77 24L1243.33 45L1228.88 34L1214.43 58.5L1199.99 48L1185.54 61L1171.1 75L1156.65 70L1142.21 73L1127.76 83L1113.32 86.5L1098.87 98L1084.42 101L1069.98 80.5L1055.53 72L1041.09 76.5L1026.64 73.5L1012.2 48L997.75 39.5H968.859L954.413 66L939.967 62L925.522 75.5L911.076 76.5L896.63 84.5L882.185 86.5L867.739 82L853.294 69L838.848 88L824.402 84.5L809.957 91L795.511 94.5L781.065 91L766.62 102L752.174 104L737.728 131L723.283 136H694.391L679.946 141L665.5 150.5L651.054 167L636.609 169.5L622.163 161.5L607.717 159L593.272 146L578.826 151.5H549.935L535.489 160.5L521.044 163.5L506.598 157.5L492.152 159.5L477.707 169L463.261 177.5L448.815 181.5L434.37 179.5L419.924 182.5L405.478 189.5L391.033 186.5L376.587 194.5L362.141 196.5H347.696L333.25 213L318.804 208L304.359 210L289.913 221L275.467 224L261.022 237L246.576 239.5L232.13 261.5L217.685 249.5L203.239 254.5L188.793 252L174.348 261L159.902 265.5H131.011L116.565 273L102.12 276L87.6739 269.5L73.2283 265L58.7826 267.5H44.337Z" fill="url(#paint0_linear)"/>
<path d="M1 307H15.4457H29.8913L44.337 267.5H58.7826L73.2283 265L87.6739 269.5L102.12 276L116.565 273L131.011 265.5H159.902L174.348 261L188.793 252L203.239 254.5L217.685 249.5L232.13 261.5L246.576 239.5L261.022 237L275.467 224L289.913 221L304.359 210L318.804 208L333.25 213L347.696 196.5H362.141L376.587 194.5L391.033 186.5L405.478 189.5L419.924 182.5L434.37 179.5L448.815 181.5L463.261 177.5L477.707 169L492.152 159.5L506.598 157.5L521.043 163.5L535.489 160.5L549.935 151.5H578.826L593.272 146L607.717 159L622.163 161.5L636.609 169.5L651.054 167L665.5 150.5L679.946 141L694.391 136H723.283L737.728 131L752.174 104L766.62 102L781.065 91L795.511 94.5L809.957 91L824.402 84.5L838.848 88L853.293 69L867.739 82L882.185 86.5L896.63 84.5L911.076 76.5L925.522 75.5L939.967 62L954.413 66L968.859 39.5H997.75L1012.2 48L1026.64 73.5L1041.09 76.5L1055.53 72L1069.98 80.5L1084.42 101L1098.87 98L1113.32 86.5L1127.76 83L1142.21 73L1156.65 70L1171.1 75L1185.54 61L1199.99 48L1214.43 58.5L1228.88 34L1243.33 45L1257.77 24L1272.22 7L1286.66 24.5L1301.11 37.5L1315.55 45.5L1330 42.5" stroke="white" stroke-opacity="0.5" stroke-linejoin="round"/>
<rect y="302" width="25" height="11" fill="#242424"/>
<path d="M6.36 311.1C5.8 311.1 5.3 310.96 4.86 310.68C4.42 310.393 4.07333 309.98 3.82 309.44C3.56667 308.893 3.44 308.247 3.44 307.5C3.44 306.753 3.56667 306.11 3.82 305.57C4.07333 305.023 4.42 304.61 4.86 304.33C5.3 304.043 5.8 303.9 6.36 303.9C6.92 303.9 7.42 304.043 7.86 304.33C8.30667 304.61 8.65667 305.023 8.91 305.57C9.16333 306.11 9.29 306.753 9.29 307.5C9.29 308.247 9.16333 308.893 8.91 309.44C8.65667 309.98 8.30667 310.393 7.86 310.68C7.42 310.96 6.92 311.1 6.36 311.1ZM6.36 309.97C6.86 309.97 7.25333 309.763 7.54 309.35C7.83333 308.937 7.98 308.32 7.98 307.5C7.98 306.68 7.83333 306.063 7.54 305.65C7.25333 305.237 6.86 305.03 6.36 305.03C5.86667 305.03 5.47333 305.237 5.18 305.65C4.89333 306.063 4.75 306.68 4.75 307.5C4.75 308.32 4.89333 308.937 5.18 309.35C5.47333 309.763 5.86667 309.97 6.36 309.97ZM14.4922 307.77C13.9922 307.77 13.5889 307.593 13.2822 307.24C12.9755 306.887 12.8222 306.423 12.8222 305.85C12.8222 305.277 12.9755 304.813 13.2822 304.46C13.5889 304.107 13.9922 303.93 14.4922 303.93C14.9922 303.93 15.3955 304.107 15.7022 304.46C16.0155 304.807 16.1722 305.27 16.1722 305.85C16.1722 306.43 16.0155 306.897 15.7022 307.25C15.3955 307.597 14.9922 307.77 14.4922 307.77ZM18.6922 304H19.6722L14.8922 311H13.9122L18.6922 304ZM14.4922 307.07C14.7655 307.07 14.9755 306.963 15.1222 306.75C15.2755 306.537 15.3522 306.237 15.3522 305.85C15.3522 305.463 15.2755 305.163 15.1222 304.95C14.9755 304.737 14.7655 304.63 14.4922 304.63C14.2322 304.63 14.0222 304.74 13.8622 304.96C13.7089 305.173 13.6322 305.47 13.6322 305.85C13.6322 306.23 13.7089 306.53 13.8622 306.75C14.0222 306.963 14.2322 307.07 14.4922 307.07ZM19.0822 311.07C18.5822 311.07 18.1789 310.893 17.8722 310.54C17.5655 310.187 17.4122 309.723 17.4122 309.15C17.4122 308.577 17.5655 308.113 17.8722 307.76C18.1789 307.407 18.5822 307.23 19.0822 307.23C19.5822 307.23 19.9855 307.407 20.2922 307.76C20.6055 308.113 20.7622 308.577 20.7622 309.15C20.7622 309.723 20.6055 310.187 20.2922 310.54C19.9855 310.893 19.5822 311.07 19.0822 311.07ZM19.0822 310.37C19.3489 310.37 19.5589 310.263 19.7122 310.05C19.8655 309.83 19.9422 309.53 19.9422 309.15C19.9422 308.77 19.8655 308.473 19.7122 308.26C19.5589 308.04 19.3489 307.93 19.0822 307.93C18.8155 307.93 18.6055 308.037 18.4522 308.25C18.2989 308.463 18.2222 308.763 18.2222 309.15C18.2222 309.537 18.2989 309.837 18.4522 310.05C18.6055 310.263 18.8155 310.37 19.0822 310.37Z" fill="#737373"/>
<rect y="202" width="35" height="11" fill="#242424"/>
<path d="M5.86 204V211H4.56V205.09H3.08V204H5.86ZM10.1686 211.1C9.60859 211.1 9.10859 210.96 8.66859 210.68C8.22859 210.393 7.88193 209.98 7.62859 209.44C7.37526 208.893 7.24859 208.247 7.24859 207.5C7.24859 206.753 7.37526 206.11 7.62859 205.57C7.88193 205.023 8.22859 204.61 8.66859 204.33C9.10859 204.043 9.60859 203.9 10.1686 203.9C10.7286 203.9 11.2286 204.043 11.6686 204.33C12.1153 204.61 12.4653 205.023 12.7186 205.57C12.9719 206.11 13.0986 206.753 13.0986 207.5C13.0986 208.247 12.9719 208.893 12.7186 209.44C12.4653 209.98 12.1153 210.393 11.6686 210.68C11.2286 210.96 10.7286 211.1 10.1686 211.1ZM10.1686 209.97C10.6686 209.97 11.0619 209.763 11.3486 209.35C11.6419 208.937 11.7886 208.32 11.7886 207.5C11.7886 206.68 11.6419 206.063 11.3486 205.65C11.0619 205.237 10.6686 205.03 10.1686 205.03C9.67526 205.03 9.28193 205.237 8.98859 205.65C8.70193 206.063 8.55859 206.68 8.55859 207.5C8.55859 208.32 8.70193 208.937 8.98859 209.35C9.28193 209.763 9.67526 209.97 10.1686 209.97ZM16.8971 211.1C16.3371 211.1 15.8371 210.96 15.3971 210.68C14.9571 210.393 14.6104 209.98 14.3571 209.44C14.1038 208.893 13.9771 208.247 13.9771 207.5C13.9771 206.753 14.1038 206.11 14.3571 205.57C14.6104 205.023 14.9571 204.61 15.3971 204.33C15.8371 204.043 16.3371 203.9 16.8971 203.9C17.4571 203.9 17.9571 204.043 18.3971 204.33C18.8438 204.61 19.1938 205.023 19.4471 205.57C19.7004 206.11 19.8271 206.753 19.8271 207.5C19.8271 208.247 19.7004 208.893 19.4471 209.44C19.1938 209.98 18.8438 210.393 18.3971 210.68C17.9571 210.96 17.4571 211.1 16.8971 211.1ZM16.8971 209.97C17.3971 209.97 17.7904 209.763 18.0771 209.35C18.3704 208.937 18.5171 208.32 18.5171 207.5C18.5171 206.68 18.3704 206.063 18.0771 205.65C17.7904 205.237 17.3971 205.03 16.8971 205.03C16.4038 205.03 16.0104 205.237 15.7171 205.65C15.4304 206.063 15.2871 206.68 15.2871 207.5C15.2871 208.32 15.4304 208.937 15.7171 209.35C16.0104 209.763 16.4038 209.97 16.8971 209.97ZM25.0293 207.77C24.5293 207.77 24.126 207.593 23.8193 207.24C23.5126 206.887 23.3593 206.423 23.3593 205.85C23.3593 205.277 23.5126 204.813 23.8193 204.46C24.126 204.107 24.5293 203.93 25.0293 203.93C25.5293 203.93 25.9326 204.107 26.2393 204.46C26.5526 204.807 26.7093 205.27 26.7093 205.85C26.7093 206.43 26.5526 206.897 26.2393 207.25C25.9326 207.597 25.5293 207.77 25.0293 207.77ZM29.2293 204H30.2093L25.4293 211H24.4493L29.2293 204ZM25.0293 207.07C25.3026 207.07 25.5126 206.963 25.6593 206.75C25.8126 206.537 25.8893 206.237 25.8893 205.85C25.8893 205.463 25.8126 205.163 25.6593 204.95C25.5126 204.737 25.3026 204.63 25.0293 204.63C24.7693 204.63 24.5593 204.74 24.3993 204.96C24.246 205.173 24.1693 205.47 24.1693 205.85C24.1693 206.23 24.246 206.53 24.3993 206.75C24.5593 206.963 24.7693 207.07 25.0293 207.07ZM29.6193 211.07C29.1193 211.07 28.716 210.893 28.4093 210.54C28.1026 210.187 27.9493 209.723 27.9493 209.15C27.9493 208.577 28.1026 208.113 28.4093 207.76C28.716 207.407 29.1193 207.23 29.6193 207.23C30.1193 207.23 30.5226 207.407 30.8293 207.76C31.1426 208.113 31.2993 208.577 31.2993 209.15C31.2993 209.723 31.1426 210.187 30.8293 210.54C30.5226 210.893 30.1193 211.07 29.6193 211.07ZM29.6193 210.37C29.886 210.37 30.096 210.263 30.2493 210.05C30.4026 209.83 30.4793 209.53 30.4793 209.15C30.4793 208.77 30.4026 208.473 30.2493 208.26C30.096 208.04 29.886 207.93 29.6193 207.93C29.3526 207.93 29.1426 208.037 28.9893 208.25C28.836 208.463 28.7593 208.763 28.7593 209.15C28.7593 209.537 28.836 209.837 28.9893 210.05C29.1426 210.263 29.3526 210.37 29.6193 210.37Z" fill="#737373"/>
<rect y="101" width="37" height="11" fill="#242424"/>
<path d="M8.51 108.9V110H3.35V109.13L6.13 106.49C6.44333 106.19 6.65333 105.93 6.76 105.71C6.87333 105.483 6.93 105.26 6.93 105.04C6.93 104.713 6.82 104.463 6.6 104.29C6.38 104.117 6.05667 104.03 5.63 104.03C4.91667 104.03 4.37 104.273 3.99 104.76L3.08 104.06C3.35333 103.693 3.72 103.41 4.18 103.21C4.64667 103.003 5.16667 102.9 5.74 102.9C6.5 102.9 7.10667 103.08 7.56 103.44C8.01333 103.8 8.24 104.29 8.24 104.91C8.24 105.29 8.16 105.647 8 105.98C7.84 106.313 7.53333 106.693 7.08 107.12L5.21 108.9H8.51ZM12.151 110.1C11.591 110.1 11.091 109.96 10.651 109.68C10.211 109.393 9.86435 108.98 9.61102 108.44C9.35768 107.893 9.23102 107.247 9.23102 106.5C9.23102 105.753 9.35768 105.11 9.61102 104.57C9.86435 104.023 10.211 103.61 10.651 103.33C11.091 103.043 11.591 102.9 12.151 102.9C12.711 102.9 13.211 103.043 13.651 103.33C14.0977 103.61 14.4477 104.023 14.701 104.57C14.9543 105.11 15.081 105.753 15.081 106.5C15.081 107.247 14.9543 107.893 14.701 108.44C14.4477 108.98 14.0977 109.393 13.651 109.68C13.211 109.96 12.711 110.1 12.151 110.1ZM12.151 108.97C12.651 108.97 13.0443 108.763 13.331 108.35C13.6243 107.937 13.771 107.32 13.771 106.5C13.771 105.68 13.6243 105.063 13.331 104.65C13.0443 104.237 12.651 104.03 12.151 104.03C11.6577 104.03 11.2643 104.237 10.971 104.65C10.6843 105.063 10.541 105.68 10.541 106.5C10.541 107.32 10.6843 107.937 10.971 108.35C11.2643 108.763 11.6577 108.97 12.151 108.97ZM18.8795 110.1C18.3195 110.1 17.8195 109.96 17.3795 109.68C16.9395 109.393 16.5929 108.98 16.3395 108.44C16.0862 107.893 15.9595 107.247 15.9595 106.5C15.9595 105.753 16.0862 105.11 16.3395 104.57C16.5929 104.023 16.9395 103.61 17.3795 103.33C17.8195 103.043 18.3195 102.9 18.8795 102.9C19.4395 102.9 19.9395 103.043 20.3795 103.33C20.8262 103.61 21.1762 104.023 21.4295 104.57C21.6829 105.11 21.8095 105.753 21.8095 106.5C21.8095 107.247 21.6829 107.893 21.4295 108.44C21.1762 108.98 20.8262 109.393 20.3795 109.68C19.9395 109.96 19.4395 110.1 18.8795 110.1ZM18.8795 108.97C19.3795 108.97 19.7729 108.763 20.0595 108.35C20.3529 107.937 20.4995 107.32 20.4995 106.5C20.4995 105.68 20.3529 105.063 20.0595 104.65C19.7729 104.237 19.3795 104.03 18.8795 104.03C18.3862 104.03 17.9929 104.237 17.6995 104.65C17.4129 105.063 17.2695 105.68 17.2695 106.5C17.2695 107.32 17.4129 107.937 17.6995 108.35C17.9929 108.763 18.3862 108.97 18.8795 108.97ZM27.0117 106.77C26.5117 106.77 26.1084 106.593 25.8017 106.24C25.4951 105.887 25.3417 105.423 25.3417 104.85C25.3417 104.277 25.4951 103.813 25.8017 103.46C26.1084 103.107 26.5117 102.93 27.0117 102.93C27.5117 102.93 27.9151 103.107 28.2217 103.46C28.5351 103.807 28.6917 104.27 28.6917 104.85C28.6917 105.43 28.5351 105.897 28.2217 106.25C27.9151 106.597 27.5117 106.77 27.0117 106.77ZM31.2117 103H32.1917L27.4117 110H26.4317L31.2117 103ZM27.0117 106.07C27.2851 106.07 27.4951 105.963 27.6417 105.75C27.7951 105.537 27.8717 105.237 27.8717 104.85C27.8717 104.463 27.7951 104.163 27.6417 103.95C27.4951 103.737 27.2851 103.63 27.0117 103.63C26.7517 103.63 26.5417 103.74 26.3817 103.96C26.2284 104.173 26.1517 104.47 26.1517 104.85C26.1517 105.23 26.2284 105.53 26.3817 105.75C26.5417 105.963 26.7517 106.07 27.0117 106.07ZM31.6017 110.07C31.1017 110.07 30.6984 109.893 30.3917 109.54C30.0851 109.187 29.9317 108.723 29.9317 108.15C29.9317 107.577 30.0851 107.113 30.3917 106.76C30.6984 106.407 31.1017 106.23 31.6017 106.23C32.1017 106.23 32.5051 106.407 32.8117 106.76C33.1251 107.113 33.2817 107.577 33.2817 108.15C33.2817 108.723 33.1251 109.187 32.8117 109.54C32.5051 109.893 32.1017 110.07 31.6017 110.07ZM31.6017 109.37C31.8684 109.37 32.0784 109.263 32.2317 109.05C32.3851 108.83 32.4617 108.53 32.4617 108.15C32.4617 107.77 32.3851 107.473 32.2317 107.26C32.0784 107.04 31.8684 106.93 31.6017 106.93C31.3351 106.93 31.1251 107.037 30.9717 107.25C30.8184 107.463 30.7417 107.763 30.7417 108.15C30.7417 108.537 30.8184 108.837 30.9717 109.05C31.1251 109.263 31.3351 109.37 31.6017 109.37Z" fill="#737373"/>
<rect width="37" height="11" fill="#242424"/>
<path d="M6.42 4.89C7.06667 4.97 7.56 5.19 7.9 5.55C8.24 5.91 8.41 6.36 8.41 6.9C8.41 7.30667 8.30667 7.67667 8.1 8.01C7.89333 8.34333 7.58 8.61 7.16 8.81C6.74667 9.00333 6.24 9.1 5.64 9.1C5.14 9.1 4.65667 9.03 4.19 8.89C3.73 8.74333 3.33667 8.54333 3.01 8.29L3.57 7.28C3.82333 7.49333 4.13 7.66333 4.49 7.79C4.85667 7.91 5.23333 7.97 5.62 7.97C6.08 7.97 6.44 7.87667 6.7 7.69C6.96667 7.49667 7.1 7.23667 7.1 6.91C7.1 6.58333 6.97333 6.33 6.72 6.15C6.47333 5.96333 6.09333 5.87 5.58 5.87H4.94V4.98L6.53 3.09H3.35V2H8.12V2.87L6.42 4.89ZM12.1803 9.1C11.6203 9.1 11.1203 8.96 10.6803 8.68C10.2403 8.39333 9.89365 7.98 9.64031 7.44C9.38698 6.89333 9.26031 6.24667 9.26031 5.5C9.26031 4.75333 9.38698 4.11 9.64031 3.57C9.89365 3.02333 10.2403 2.61 10.6803 2.33C11.1203 2.04333 11.6203 1.9 12.1803 1.9C12.7403 1.9 13.2403 2.04333 13.6803 2.33C14.127 2.61 14.477 3.02333 14.7303 3.57C14.9836 4.11 15.1103 4.75333 15.1103 5.5C15.1103 6.24667 14.9836 6.89333 14.7303 7.44C14.477 7.98 14.127 8.39333 13.6803 8.68C13.2403 8.96 12.7403 9.1 12.1803 9.1ZM12.1803 7.97C12.6803 7.97 13.0736 7.76333 13.3603 7.35C13.6536 6.93667 13.8003 6.32 13.8003 5.5C13.8003 4.68 13.6536 4.06333 13.3603 3.65C13.0736 3.23667 12.6803 3.03 12.1803 3.03C11.687 3.03 11.2936 3.23667 11.0003 3.65C10.7136 4.06333 10.5703 4.68 10.5703 5.5C10.5703 6.32 10.7136 6.93667 11.0003 7.35C11.2936 7.76333 11.687 7.97 12.1803 7.97ZM18.9088 9.1C18.3488 9.1 17.8488 8.96 17.4088 8.68C16.9688 8.39333 16.6222 7.98 16.3688 7.44C16.1155 6.89333 15.9888 6.24667 15.9888 5.5C15.9888 4.75333 16.1155 4.11 16.3688 3.57C16.6222 3.02333 16.9688 2.61 17.4088 2.33C17.8488 2.04333 18.3488 1.9 18.9088 1.9C19.4688 1.9 19.9688 2.04333 20.4088 2.33C20.8555 2.61 21.2055 3.02333 21.4588 3.57C21.7122 4.11 21.8388 4.75333 21.8388 5.5C21.8388 6.24667 21.7122 6.89333 21.4588 7.44C21.2055 7.98 20.8555 8.39333 20.4088 8.68C19.9688 8.96 19.4688 9.1 18.9088 9.1ZM18.9088 7.97C19.4088 7.97 19.8022 7.76333 20.0888 7.35C20.3822 6.93667 20.5288 6.32 20.5288 5.5C20.5288 4.68 20.3822 4.06333 20.0888 3.65C19.8022 3.23667 19.4088 3.03 18.9088 3.03C18.4155 3.03 18.0222 3.23667 17.7288 3.65C17.4422 4.06333 17.2988 4.68 17.2988 5.5C17.2988 6.32 17.4422 6.93667 17.7288 7.35C18.0222 7.76333 18.4155 7.97 18.9088 7.97ZM27.041 5.77C26.541 5.77 26.1377 5.59333 25.831 5.24C25.5243 4.88667 25.371 4.42333 25.371 3.85C25.371 3.27667 25.5243 2.81333 25.831 2.46C26.1377 2.10667 26.541 1.93 27.041 1.93C27.541 1.93 27.9443 2.10667 28.251 2.46C28.5643 2.80667 28.721 3.27 28.721 3.85C28.721 4.43 28.5643 4.89667 28.251 5.25C27.9443 5.59667 27.541 5.77 27.041 5.77ZM31.241 2H32.221L27.441 9H26.461L31.241 2ZM27.041 5.07C27.3143 5.07 27.5243 4.96333 27.671 4.75C27.8243 4.53667 27.901 4.23667 27.901 3.85C27.901 3.46333 27.8243 3.16333 27.671 2.95C27.5243 2.73667 27.3143 2.63 27.041 2.63C26.781 2.63 26.571 2.74 26.411 2.96C26.2577 3.17333 26.181 3.47 26.181 3.85C26.181 4.23 26.2577 4.53 26.411 4.75C26.571 4.96333 26.781 5.07 27.041 5.07ZM31.631 9.07C31.131 9.07 30.7277 8.89333 30.421 8.54C30.1143 8.18667 29.961 7.72333 29.961 7.15C29.961 6.57667 30.1143 6.11333 30.421 5.76C30.7277 5.40667 31.131 5.23 31.631 5.23C32.131 5.23 32.5343 5.40667 32.841 5.76C33.1543 6.11333 33.311 6.57667 33.311 7.15C33.311 7.72333 33.1543 8.18667 32.841 8.54C32.5343 8.89333 32.131 9.07 31.631 9.07ZM31.631 8.37C31.8977 8.37 32.1077 8.26333 32.261 8.05C32.4143 7.83 32.491 7.53 32.491 7.15C32.491 6.77 32.4143 6.47333 32.261 6.26C32.1077 6.04 31.8977 5.93 31.631 5.93C31.3643 5.93 31.1543 6.03667 31.001 6.25C30.8477 6.46333 30.771 6.76333 30.771 7.15C30.771 7.53667 30.8477 7.83667 31.001 8.05C31.1543 8.26333 31.3643 8.37 31.631 8.37Z" fill="#737373"/>
<defs>
<linearGradient id="paint0_linear" x1="665.5" y1="7" x2="665.5" y2="307" gradientUnits="userSpaceOnUse">
<stop stop-color="white" stop-opacity="0.1"/>
<stop offset="1" stop-color="white" stop-opacity="0"/>
</linearGradient>
</defs>
</svg>
