<svg width="1331" height="313" viewBox="0 0 1331 313" fill="none" xmlns="http://www.w3.org/2000/svg">
<rect y="307" width="1330" height="1" fill="white" fill-opacity="0.07"/>
<rect y="207" width="1330" height="1" fill="white" fill-opacity="0.07"/>
<rect y="106" width="1330" height="1" fill="white" fill-opacity="0.07"/>
<rect y="5" width="1330" height="1" fill="white" fill-opacity="0.07"/>
<path d="M44.337 267.5L29.8913 307H1330V42.5L1315.55 45.5L1301.11 37.5L1286.66 24.5L1272.22 7L1257.77 24L1243.33 45L1228.88 34L1214.43 58.5L1199.99 48L1185.54 61L1171.1 75L1156.65 70L1142.21 73L1127.76 83L1113.32 86.5L1098.87 98L1084.42 101L1069.98 80.5L1055.53 72L1041.09 76.5L1026.64 73.5L1012.2 48L997.75 39.5H968.859L954.413 66L939.967 62L925.522 75.5L911.076 76.5L896.63 84.5L882.185 86.5L867.739 82L853.294 69L838.848 88L824.402 84.5L809.957 91L795.511 94.5L781.065 91L766.62 102L752.174 104L737.728 131L723.283 136H694.391L679.946 141L665.5 150.5L651.054 167L636.609 169.5L622.163 161.5L607.717 159L593.272 146L578.826 151.5H549.935L535.489 160.5L521.044 163.5L506.598 157.5L492.152 159.5L477.707 169L463.261 177.5L448.815 181.5L434.37 179.5L419.924 182.5L405.478 189.5L391.033 186.5L376.587 194.5L362.141 196.5H347.696L333.25 213L318.804 208L304.359 210L289.913 221L275.467 224L261.022 237L246.576 239.5L232.13 261.5L217.685 249.5L203.239 254.5L188.793 252L174.348 261L159.902 265.5H131.011L116.565 273L102.12 276L87.6739 269.5L73.2283 265L58.7826 267.5H44.337Z" fill="url(#paint0_linear_3137:11301)"/>
<path d="M1 307H15.4457H29.8913L44.337 267.5H58.7826L73.2283 265L87.6739 269.5L102.12 276L116.565 273L131.011 265.5H159.902L174.348 261L188.793 252L203.239 254.5L217.685 249.5L232.13 261.5L246.576 239.5L261.022 237L275.467 224L289.913 221L304.359 210L318.804 208L333.25 213L347.696 196.5H362.141L376.587 194.5L391.033 186.5L405.478 189.5L419.924 182.5L434.37 179.5L448.815 181.5L463.261 177.5L477.707 169L492.152 159.5L506.598 157.5L521.043 163.5L535.489 160.5L549.935 151.5H578.826L593.272 146L607.717 159L622.163 161.5L636.609 169.5L651.054 167L665.5 150.5L679.946 141L694.391 136H723.283L737.728 131L752.174 104L766.62 102L781.065 91L795.511 94.5L809.957 91L824.402 84.5L838.848 88L853.293 69L867.739 82L882.185 86.5L896.63 84.5L911.076 76.5L925.522 75.5L939.967 62L954.413 66L968.859 39.5H997.75L1012.2 48L1026.64 73.5L1041.09 76.5L1055.53 72L1069.98 80.5L1084.42 101L1098.87 98L1113.32 86.5L1127.76 83L1142.21 73L1156.65 70L1171.1 75L1185.54 61L1199.99 48L1214.43 58.5L1228.88 34L1243.33 45L1257.77 24L1272.22 7L1286.66 24.5L1301.11 37.5L1315.55 45.5L1330 42.5" stroke="white" stroke-opacity="0.5" stroke-linejoin="round"/>
<rect y="302" width="38" height="11" fill="#242424"/>
<path d="M6.36 311.1C5.8 311.1 5.3 310.96 4.86 310.68C4.42 310.393 4.07333 309.98 3.82 309.44C3.56667 308.893 3.44 308.247 3.44 307.5C3.44 306.753 3.56667 306.11 3.82 305.57C4.07333 305.023 4.42 304.61 4.86 304.33C5.3 304.043 5.8 303.9 6.36 303.9C6.92 303.9 7.42 304.043 7.86 304.33C8.30667 304.61 8.65667 305.023 8.91 305.57C9.16333 306.11 9.29 306.753 9.29 307.5C9.29 308.247 9.16333 308.893 8.91 309.44C8.65667 309.98 8.30667 310.393 7.86 310.68C7.42 310.96 6.92 311.1 6.36 311.1ZM6.36 309.97C6.86 309.97 7.25333 309.763 7.54 309.35C7.83333 308.937 7.98 308.32 7.98 307.5C7.98 306.68 7.83333 306.063 7.54 305.65C7.25333 305.237 6.86 305.03 6.36 305.03C5.86667 305.03 5.47333 305.237 5.18 305.65C4.89333 306.063 4.75 306.68 4.75 307.5C4.75 308.32 4.89333 308.937 5.18 309.35C5.47333 309.763 5.86667 309.97 6.36 309.97ZM16.4422 311.1C15.4755 311.1 14.7222 310.83 14.1822 310.29C13.6422 309.743 13.3722 308.963 13.3722 307.95V304H14.6722V307.9C14.6722 309.273 15.2655 309.96 16.4522 309.96C17.6322 309.96 18.2222 309.273 18.2222 307.9V304H19.5022V307.95C19.5022 308.963 19.2322 309.743 18.6922 310.29C18.1589 310.83 17.4089 311.1 16.4422 311.1ZM23.4928 311.1C22.9528 311.1 22.4295 311.023 21.9228 310.87C21.4228 310.717 21.0261 310.513 20.7328 310.26L21.1828 309.25C21.4695 309.477 21.8195 309.663 22.2328 309.81C22.6528 309.95 23.0728 310.02 23.4928 310.02C24.0128 310.02 24.3995 309.937 24.6528 309.77C24.9128 309.603 25.0428 309.383 25.0428 309.11C25.0428 308.91 24.9695 308.747 24.8228 308.62C24.6828 308.487 24.5028 308.383 24.2828 308.31C24.0628 308.237 23.7628 308.153 23.3828 308.06C22.8495 307.933 22.4161 307.807 22.0828 307.68C21.7561 307.553 21.4728 307.357 21.2328 307.09C20.9995 306.817 20.8828 306.45 20.8828 305.99C20.8828 305.603 20.9861 305.253 21.1928 304.94C21.4061 304.62 21.7228 304.367 22.1428 304.18C22.5695 303.993 23.0895 303.9 23.7028 303.9C24.1295 303.9 24.5495 303.953 24.9628 304.06C25.3761 304.167 25.7328 304.32 26.0328 304.52L25.6228 305.53C25.3161 305.35 24.9961 305.213 24.6628 305.12C24.3295 305.027 24.0061 304.98 23.6928 304.98C23.1795 304.98 22.7961 305.067 22.5428 305.24C22.2961 305.413 22.1728 305.643 22.1728 305.93C22.1728 306.13 22.2428 306.293 22.3828 306.42C22.5295 306.547 22.7128 306.647 22.9328 306.72C23.1528 306.793 23.4528 306.877 23.8328 306.97C24.3528 307.09 24.7795 307.217 25.1128 307.35C25.4461 307.477 25.7295 307.673 25.9628 307.94C26.2028 308.207 26.3228 308.567 26.3228 309.02C26.3228 309.407 26.2161 309.757 26.0028 310.07C25.7961 310.383 25.4795 310.633 25.0528 310.82C24.6261 311.007 24.1061 311.1 23.4928 311.1ZM27.6119 304H30.6719C31.4185 304 32.0819 304.147 32.6619 304.44C33.2419 304.727 33.6919 305.137 34.0119 305.67C34.3319 306.197 34.4919 306.807 34.4919 307.5C34.4919 308.193 34.3319 308.807 34.0119 309.34C33.6919 309.867 33.2419 310.277 32.6619 310.57C32.0819 310.857 31.4185 311 30.6719 311H27.6119V304ZM30.6119 309.9C31.1252 309.9 31.5752 309.803 31.9619 309.61C32.3552 309.41 32.6552 309.13 32.8619 308.77C33.0752 308.403 33.1819 307.98 33.1819 307.5C33.1819 307.02 33.0752 306.6 32.8619 306.24C32.6552 305.873 32.3552 305.593 31.9619 305.4C31.5752 305.2 31.1252 305.1 30.6119 305.1H28.9119V309.9H30.6119Z" fill="#737373"/>
<rect y="202" width="49" height="11" fill="#242424"/>
<path d="M5.86 204V211H4.56V205.09H3.08V204H5.86ZM10.1686 211.1C9.60859 211.1 9.10859 210.96 8.66859 210.68C8.22859 210.393 7.88193 209.98 7.62859 209.44C7.37526 208.893 7.24859 208.247 7.24859 207.5C7.24859 206.753 7.37526 206.11 7.62859 205.57C7.88193 205.023 8.22859 204.61 8.66859 204.33C9.10859 204.043 9.60859 203.9 10.1686 203.9C10.7286 203.9 11.2286 204.043 11.6686 204.33C12.1153 204.61 12.4653 205.023 12.7186 205.57C12.9719 206.11 13.0986 206.753 13.0986 207.5C13.0986 208.247 12.9719 208.893 12.7186 209.44C12.4653 209.98 12.1153 210.393 11.6686 210.68C11.2286 210.96 10.7286 211.1 10.1686 211.1ZM10.1686 209.97C10.6686 209.97 11.0619 209.763 11.3486 209.35C11.6419 208.937 11.7886 208.32 11.7886 207.5C11.7886 206.68 11.6419 206.063 11.3486 205.65C11.0619 205.237 10.6686 205.03 10.1686 205.03C9.67526 205.03 9.28193 205.237 8.98859 205.65C8.70193 206.063 8.55859 206.68 8.55859 207.5C8.55859 208.32 8.70193 208.937 8.98859 209.35C9.28193 209.763 9.67526 209.97 10.1686 209.97ZM16.8971 211.1C16.3371 211.1 15.8371 210.96 15.3971 210.68C14.9571 210.393 14.6104 209.98 14.3571 209.44C14.1038 208.893 13.9771 208.247 13.9771 207.5C13.9771 206.753 14.1038 206.11 14.3571 205.57C14.6104 205.023 14.9571 204.61 15.3971 204.33C15.8371 204.043 16.3371 203.9 16.8971 203.9C17.4571 203.9 17.9571 204.043 18.3971 204.33C18.8438 204.61 19.1938 205.023 19.4471 205.57C19.7004 206.11 19.8271 206.753 19.8271 207.5C19.8271 208.247 19.7004 208.893 19.4471 209.44C19.1938 209.98 18.8438 210.393 18.3971 210.68C17.9571 210.96 17.4571 211.1 16.8971 211.1ZM16.8971 209.97C17.3971 209.97 17.7904 209.763 18.0771 209.35C18.3704 208.937 18.5171 208.32 18.5171 207.5C18.5171 206.68 18.3704 206.063 18.0771 205.65C17.7904 205.237 17.3971 205.03 16.8971 205.03C16.4038 205.03 16.0104 205.237 15.7171 205.65C15.4304 206.063 15.2871 206.68 15.2871 207.5C15.2871 208.32 15.4304 208.937 15.7171 209.35C16.0104 209.763 16.4038 209.97 16.8971 209.97ZM26.9793 211.1C26.0126 211.1 25.2593 210.83 24.7193 210.29C24.1793 209.743 23.9093 208.963 23.9093 207.95V204H25.2093V207.9C25.2093 209.273 25.8026 209.96 26.9893 209.96C28.1693 209.96 28.7593 209.273 28.7593 207.9V204H30.0393V207.95C30.0393 208.963 29.7693 209.743 29.2293 210.29C28.696 210.83 27.946 211.1 26.9793 211.1ZM34.0299 211.1C33.4899 211.1 32.9666 211.023 32.4599 210.87C31.9599 210.717 31.5633 210.513 31.2699 210.26L31.7199 209.25C32.0066 209.477 32.3566 209.663 32.7699 209.81C33.1899 209.95 33.6099 210.02 34.0299 210.02C34.5499 210.02 34.9366 209.937 35.1899 209.77C35.4499 209.603 35.5799 209.383 35.5799 209.11C35.5799 208.91 35.5066 208.747 35.3599 208.62C35.2199 208.487 35.0399 208.383 34.8199 208.31C34.5999 208.237 34.2999 208.153 33.9199 208.06C33.3866 207.933 32.9533 207.807 32.6199 207.68C32.2933 207.553 32.0099 207.357 31.7699 207.09C31.5366 206.817 31.4199 206.45 31.4199 205.99C31.4199 205.603 31.5233 205.253 31.7299 204.94C31.9433 204.62 32.2599 204.367 32.6799 204.18C33.1066 203.993 33.6266 203.9 34.2399 203.9C34.6666 203.9 35.0866 203.953 35.4999 204.06C35.9133 204.167 36.2699 204.32 36.5699 204.52L36.1599 205.53C35.8533 205.35 35.5333 205.213 35.1999 205.12C34.8666 205.027 34.5433 204.98 34.2299 204.98C33.7166 204.98 33.3333 205.067 33.0799 205.24C32.8333 205.413 32.7099 205.643 32.7099 205.93C32.7099 206.13 32.7799 206.293 32.9199 206.42C33.0666 206.547 33.2499 206.647 33.4699 206.72C33.6899 206.793 33.9899 206.877 34.3699 206.97C34.8899 207.09 35.3166 207.217 35.6499 207.35C35.9833 207.477 36.2666 207.673 36.4999 207.94C36.7399 208.207 36.8599 208.567 36.8599 209.02C36.8599 209.407 36.7533 209.757 36.5399 210.07C36.3333 210.383 36.0166 210.633 35.5899 210.82C35.1633 211.007 34.6433 211.1 34.0299 211.1ZM38.149 204H41.209C41.9557 204 42.619 204.147 43.199 204.44C43.779 204.727 44.229 205.137 44.549 205.67C44.869 206.197 45.029 206.807 45.029 207.5C45.029 208.193 44.869 208.807 44.549 209.34C44.229 209.867 43.779 210.277 43.199 210.57C42.619 210.857 41.9557 211 41.209 211H38.149V204ZM41.149 209.9C41.6623 209.9 42.1123 209.803 42.499 209.61C42.8923 209.41 43.1923 209.13 43.399 208.77C43.6123 208.403 43.719 207.98 43.719 207.5C43.719 207.02 43.6123 206.6 43.399 206.24C43.1923 205.873 42.8923 205.593 42.499 205.4C42.1123 205.2 41.6623 205.1 41.149 205.1H39.449V209.9H41.149Z" fill="#737373"/>
<rect y="101" width="51" height="11" fill="#242424"/>
<path d="M8.51 108.9V110H3.35V109.13L6.13 106.49C6.44333 106.19 6.65333 105.93 6.76 105.71C6.87333 105.483 6.93 105.26 6.93 105.04C6.93 104.713 6.82 104.463 6.6 104.29C6.38 104.117 6.05667 104.03 5.63 104.03C4.91667 104.03 4.37 104.273 3.99 104.76L3.08 104.06C3.35333 103.693 3.72 103.41 4.18 103.21C4.64667 103.003 5.16667 102.9 5.74 102.9C6.5 102.9 7.10667 103.08 7.56 103.44C8.01333 103.8 8.24 104.29 8.24 104.91C8.24 105.29 8.16 105.647 8 105.98C7.84 106.313 7.53333 106.693 7.08 107.12L5.21 108.9H8.51ZM12.151 110.1C11.591 110.1 11.091 109.96 10.651 109.68C10.211 109.393 9.86435 108.98 9.61102 108.44C9.35768 107.893 9.23102 107.247 9.23102 106.5C9.23102 105.753 9.35768 105.11 9.61102 104.57C9.86435 104.023 10.211 103.61 10.651 103.33C11.091 103.043 11.591 102.9 12.151 102.9C12.711 102.9 13.211 103.043 13.651 103.33C14.0977 103.61 14.4477 104.023 14.701 104.57C14.9543 105.11 15.081 105.753 15.081 106.5C15.081 107.247 14.9543 107.893 14.701 108.44C14.4477 108.98 14.0977 109.393 13.651 109.68C13.211 109.96 12.711 110.1 12.151 110.1ZM12.151 108.97C12.651 108.97 13.0443 108.763 13.331 108.35C13.6243 107.937 13.771 107.32 13.771 106.5C13.771 105.68 13.6243 105.063 13.331 104.65C13.0443 104.237 12.651 104.03 12.151 104.03C11.6577 104.03 11.2643 104.237 10.971 104.65C10.6843 105.063 10.541 105.68 10.541 106.5C10.541 107.32 10.6843 107.937 10.971 108.35C11.2643 108.763 11.6577 108.97 12.151 108.97ZM18.8795 110.1C18.3195 110.1 17.8195 109.96 17.3795 109.68C16.9395 109.393 16.5929 108.98 16.3395 108.44C16.0862 107.893 15.9595 107.247 15.9595 106.5C15.9595 105.753 16.0862 105.11 16.3395 104.57C16.5929 104.023 16.9395 103.61 17.3795 103.33C17.8195 103.043 18.3195 102.9 18.8795 102.9C19.4395 102.9 19.9395 103.043 20.3795 103.33C20.8262 103.61 21.1762 104.023 21.4295 104.57C21.6829 105.11 21.8095 105.753 21.8095 106.5C21.8095 107.247 21.6829 107.893 21.4295 108.44C21.1762 108.98 20.8262 109.393 20.3795 109.68C19.9395 109.96 19.4395 110.1 18.8795 110.1ZM18.8795 108.97C19.3795 108.97 19.7729 108.763 20.0595 108.35C20.3529 107.937 20.4995 107.32 20.4995 106.5C20.4995 105.68 20.3529 105.063 20.0595 104.65C19.7729 104.237 19.3795 104.03 18.8795 104.03C18.3862 104.03 17.9929 104.237 17.6995 104.65C17.4129 105.063 17.2695 105.68 17.2695 106.5C17.2695 107.32 17.4129 107.937 17.6995 108.35C17.9929 108.763 18.3862 108.97 18.8795 108.97ZM28.9617 110.1C27.9951 110.1 27.2417 109.83 26.7017 109.29C26.1617 108.743 25.8917 107.963 25.8917 106.95V103H27.1917V106.9C27.1917 108.273 27.7851 108.96 28.9717 108.96C30.1517 108.96 30.7417 108.273 30.7417 106.9V103H32.0217V106.95C32.0217 107.963 31.7517 108.743 31.2117 109.29C30.6784 109.83 29.9284 110.1 28.9617 110.1ZM36.0123 110.1C35.4723 110.1 34.949 110.023 34.4423 109.87C33.9423 109.717 33.5457 109.513 33.2523 109.26L33.7023 108.25C33.989 108.477 34.339 108.663 34.7523 108.81C35.1723 108.95 35.5923 109.02 36.0123 109.02C36.5323 109.02 36.919 108.937 37.1723 108.77C37.4323 108.603 37.5623 108.383 37.5623 108.11C37.5623 107.91 37.489 107.747 37.3423 107.62C37.2023 107.487 37.0223 107.383 36.8023 107.31C36.5823 107.237 36.2823 107.153 35.9023 107.06C35.369 106.933 34.9357 106.807 34.6023 106.68C34.2757 106.553 33.9923 106.357 33.7523 106.09C33.519 105.817 33.4023 105.45 33.4023 104.99C33.4023 104.603 33.5057 104.253 33.7123 103.94C33.9257 103.62 34.2423 103.367 34.6623 103.18C35.089 102.993 35.609 102.9 36.2223 102.9C36.649 102.9 37.069 102.953 37.4823 103.06C37.8957 103.167 38.2523 103.32 38.5523 103.52L38.1423 104.53C37.8357 104.35 37.5157 104.213 37.1823 104.12C36.849 104.027 36.5257 103.98 36.2123 103.98C35.699 103.98 35.3157 104.067 35.0623 104.24C34.8157 104.413 34.6923 104.643 34.6923 104.93C34.6923 105.13 34.7623 105.293 34.9023 105.42C35.049 105.547 35.2323 105.647 35.4523 105.72C35.6723 105.793 35.9723 105.877 36.3523 105.97C36.8723 106.09 37.299 106.217 37.6323 106.35C37.9657 106.477 38.249 106.673 38.4823 106.94C38.7223 107.207 38.8423 107.567 38.8423 108.02C38.8423 108.407 38.7357 108.757 38.5223 109.07C38.3157 109.383 37.999 109.633 37.5723 109.82C37.1457 110.007 36.6257 110.1 36.0123 110.1ZM40.1314 103H43.1914C43.9381 103 44.6014 103.147 45.1814 103.44C45.7614 103.727 46.2114 104.137 46.5314 104.67C46.8514 105.197 47.0114 105.807 47.0114 106.5C47.0114 107.193 46.8514 107.807 46.5314 108.34C46.2114 108.867 45.7614 109.277 45.1814 109.57C44.6014 109.857 43.9381 110 43.1914 110H40.1314V103ZM43.1314 108.9C43.6447 108.9 44.0947 108.803 44.4814 108.61C44.8747 108.41 45.1747 108.13 45.3814 107.77C45.5947 107.403 45.7014 106.98 45.7014 106.5C45.7014 106.02 45.5947 105.6 45.3814 105.24C45.1747 104.873 44.8747 104.593 44.4814 104.4C44.0947 104.2 43.6447 104.1 43.1314 104.1H41.4314V108.9H43.1314Z" fill="#737373"/>
<rect width="51" height="11" fill="#242424"/>
<path d="M6.42 4.89C7.06667 4.97 7.56 5.19 7.9 5.55C8.24 5.91 8.41 6.36 8.41 6.9C8.41 7.30667 8.30667 7.67667 8.1 8.01C7.89333 8.34333 7.58 8.61 7.16 8.81C6.74667 9.00333 6.24 9.1 5.64 9.1C5.14 9.1 4.65667 9.03 4.19 8.89C3.73 8.74333 3.33667 8.54333 3.01 8.29L3.57 7.28C3.82333 7.49333 4.13 7.66333 4.49 7.79C4.85667 7.91 5.23333 7.97 5.62 7.97C6.08 7.97 6.44 7.87667 6.7 7.69C6.96667 7.49667 7.1 7.23667 7.1 6.91C7.1 6.58333 6.97333 6.33 6.72 6.15C6.47333 5.96333 6.09333 5.87 5.58 5.87H4.94V4.98L6.53 3.09H3.35V2H8.12V2.87L6.42 4.89ZM12.1803 9.1C11.6203 9.1 11.1203 8.96 10.6803 8.68C10.2403 8.39333 9.89365 7.98 9.64031 7.44C9.38698 6.89333 9.26031 6.24667 9.26031 5.5C9.26031 4.75333 9.38698 4.11 9.64031 3.57C9.89365 3.02333 10.2403 2.61 10.6803 2.33C11.1203 2.04333 11.6203 1.9 12.1803 1.9C12.7403 1.9 13.2403 2.04333 13.6803 2.33C14.127 2.61 14.477 3.02333 14.7303 3.57C14.9836 4.11 15.1103 4.75333 15.1103 5.5C15.1103 6.24667 14.9836 6.89333 14.7303 7.44C14.477 7.98 14.127 8.39333 13.6803 8.68C13.2403 8.96 12.7403 9.1 12.1803 9.1ZM12.1803 7.97C12.6803 7.97 13.0736 7.76333 13.3603 7.35C13.6536 6.93667 13.8003 6.32 13.8003 5.5C13.8003 4.68 13.6536 4.06333 13.3603 3.65C13.0736 3.23667 12.6803 3.03 12.1803 3.03C11.687 3.03 11.2936 3.23667 11.0003 3.65C10.7136 4.06333 10.5703 4.68 10.5703 5.5C10.5703 6.32 10.7136 6.93667 11.0003 7.35C11.2936 7.76333 11.687 7.97 12.1803 7.97ZM18.9088 9.1C18.3488 9.1 17.8488 8.96 17.4088 8.68C16.9688 8.39333 16.6222 7.98 16.3688 7.44C16.1155 6.89333 15.9888 6.24667 15.9888 5.5C15.9888 4.75333 16.1155 4.11 16.3688 3.57C16.6222 3.02333 16.9688 2.61 17.4088 2.33C17.8488 2.04333 18.3488 1.9 18.9088 1.9C19.4688 1.9 19.9688 2.04333 20.4088 2.33C20.8555 2.61 21.2055 3.02333 21.4588 3.57C21.7122 4.11 21.8388 4.75333 21.8388 5.5C21.8388 6.24667 21.7122 6.89333 21.4588 7.44C21.2055 7.98 20.8555 8.39333 20.4088 8.68C19.9688 8.96 19.4688 9.1 18.9088 9.1ZM18.9088 7.97C19.4088 7.97 19.8022 7.76333 20.0888 7.35C20.3822 6.93667 20.5288 6.32 20.5288 5.5C20.5288 4.68 20.3822 4.06333 20.0888 3.65C19.8022 3.23667 19.4088 3.03 18.9088 3.03C18.4155 3.03 18.0222 3.23667 17.7288 3.65C17.4422 4.06333 17.2988 4.68 17.2988 5.5C17.2988 6.32 17.4422 6.93667 17.7288 7.35C18.0222 7.76333 18.4155 7.97 18.9088 7.97ZM28.991 9.1C28.0243 9.1 27.271 8.83 26.731 8.29C26.191 7.74333 25.921 6.96333 25.921 5.95V2H27.221V5.9C27.221 7.27333 27.8143 7.96 29.001 7.96C30.181 7.96 30.771 7.27333 30.771 5.9V2H32.051V5.95C32.051 6.96333 31.781 7.74333 31.241 8.29C30.7077 8.83 29.9577 9.1 28.991 9.1ZM36.0416 9.1C35.5016 9.1 34.9783 9.02333 34.4716 8.87C33.9716 8.71667 33.575 8.51333 33.2816 8.26L33.7316 7.25C34.0183 7.47667 34.3683 7.66333 34.7816 7.81C35.2016 7.95 35.6216 8.02 36.0416 8.02C36.5616 8.02 36.9483 7.93667 37.2016 7.77C37.4616 7.60333 37.5916 7.38333 37.5916 7.11C37.5916 6.91 37.5183 6.74667 37.3716 6.62C37.2316 6.48667 37.0516 6.38333 36.8316 6.31C36.6116 6.23667 36.3116 6.15333 35.9316 6.06C35.3983 5.93333 34.965 5.80667 34.6316 5.68C34.305 5.55333 34.0216 5.35667 33.7816 5.09C33.5483 4.81667 33.4316 4.45 33.4316 3.99C33.4316 3.60333 33.535 3.25333 33.7416 2.94C33.955 2.62 34.2716 2.36667 34.6916 2.18C35.1183 1.99333 35.6383 1.9 36.2516 1.9C36.6783 1.9 37.0983 1.95333 37.5116 2.06C37.925 2.16667 38.2816 2.32 38.5816 2.52L38.1716 3.53C37.865 3.35 37.545 3.21333 37.2116 3.12C36.8783 3.02667 36.555 2.98 36.2416 2.98C35.7283 2.98 35.345 3.06667 35.0916 3.24C34.845 3.41333 34.7216 3.64333 34.7216 3.93C34.7216 4.13 34.7916 4.29333 34.9316 4.42C35.0783 4.54667 35.2616 4.64667 35.4816 4.72C35.7016 4.79333 36.0016 4.87667 36.3816 4.97C36.9016 5.09 37.3283 5.21667 37.6616 5.35C37.995 5.47667 38.2783 5.67333 38.5116 5.94C38.7516 6.20667 38.8716 6.56667 38.8716 7.02C38.8716 7.40667 38.765 7.75667 38.5516 8.07C38.345 8.38333 38.0283 8.63333 37.6016 8.82C37.175 9.00667 36.655 9.1 36.0416 9.1ZM40.1607 2H43.2207C43.9674 2 44.6307 2.14667 45.2107 2.44C45.7907 2.72667 46.2407 3.13667 46.5607 3.67C46.8807 4.19667 47.0407 4.80667 47.0407 5.5C47.0407 6.19333 46.8807 6.80667 46.5607 7.34C46.2407 7.86667 45.7907 8.27667 45.2107 8.57C44.6307 8.85667 43.9674 9 43.2207 9H40.1607V2ZM43.1607 7.9C43.674 7.9 44.124 7.80333 44.5107 7.61C44.904 7.41 45.204 7.13 45.4107 6.77C45.624 6.40333 45.7307 5.98 45.7307 5.5C45.7307 5.02 45.624 4.6 45.4107 4.24C45.204 3.87333 44.904 3.59333 44.5107 3.4C44.124 3.2 43.674 3.1 43.1607 3.1H41.4607V7.9H43.1607Z" fill="#737373"/>
<defs>
<linearGradient id="paint0_linear_3137:11301" x1="665.5" y1="7" x2="665.5" y2="307" gradientUnits="userSpaceOnUse">
<stop stop-color="white" stop-opacity="0.1"/>
<stop offset="1" stop-color="white" stop-opacity="0"/>
</linearGradient>
</defs>
</svg>
