<svg width="1332" height="313" viewBox="0 0 1332 313" fill="none" xmlns="http://www.w3.org/2000/svg">
<rect x="1" y="307" width="1330" height="1" fill="white" fill-opacity="0.07"/>
<rect x="1" y="207" width="1330" height="1" fill="white" fill-opacity="0.07"/>
<rect x="1" y="106" width="1330" height="1" fill="white" fill-opacity="0.07"/>
<rect x="1" y="5" width="1330" height="1" fill="white" fill-opacity="0.07"/>
<path d="M2 286.06H16.4457H30.8913L45.337 265.783H59.7826L74.2283 264.5L88.6739 266.81L103.12 270.147L117.565 307.5L132.011 286.06L160.902 264.757L175.348 262.447L189.793 257.827L204.239 259.11L218.685 256.543L233.13 262.703L247.576 251.41L262.022 250.127L276.467 243.453L290.913 241.913L305.359 236.267L319.804 235.24L334.25 237.807L348.696 229.337H363.141L377.587 248.25L392.033 244.143L406.478 245.683L420.924 242.09L435.37 240.55L449.815 241.577L464.261 286.06L478.707 235.16L493.152 230.283L507.598 229.257L522.044 232.337L536.489 230.797L550.935 208H579L594.272 223.353L608.718 230.027L623.163 231.31L637.609 235.417L652.055 234.133L666.5 225.663L680.946 220.787L695.392 218.22H724.283L738.729 215.653L753.174 201.793L767.62 200.767L782.065 195.12L796.511 196.917L810.957 195.12L825.402 191.783L839.848 193.58L854.294 183.827L868.739 190.5L883.185 192.81L897.631 191.783L912.076 187.677L926.522 187.163L940.968 180.233L955.413 182.287L969.859 168.683H998.75L1013.2 173.047L1027.64 186.137L1042.09 187.677L1056.53 185.367L1070.98 189.73L1085.42 200.253L1099.87 198.713L1114.32 192.81L1128.76 191.013L1143.21 185.88L1157.65 184.34L1172.1 186.907L1186.54 179.72L1200.99 173.047L1215.44 178.437L1229.88 165.86L1244.33 171.507L1258.77 160.727L1273.22 152L1287.66 160.983L1302.11 167.657L1316.55 171.763L1331 170.223" stroke="white" stroke-opacity="0.5" stroke-linejoin="round"/>
<path d="M1 213L16.4456 223L30.8912 196L45.3369 211L59.7825 177.5L74.2282 223L88.6738 115.5L103.119 150.5L117.565 223L132.011 185.5L160.902 173.5L175.348 175.5L189.793 153.5L204.239 156L218.685 151L233.13 163L247.576 141L262.022 144.5L276.467 137.5L290.913 134L305.359 111.5L319.804 109.5L334.25 114.5L348.696 98H363.141L377.587 96L392.033 88L406.478 91L420.924 99L435.369 103L449.815 100.5L464.261 192.5L478.706 168L493.152 158.5L507.598 156.5L522.043 162.5L536.489 159.5L550.935 109.5H579.826L594.272 115.5L608.717 162.5L623.163 164L637.609 171.5L652.054 169.5L666.5 164L680.946 159.5L695.391 162.5L709.837 157L724.283 148L738.728 130L753.174 103L767.619 101L782.065 90L796.511 93.5L810.956 90L825.402 83.5L839.848 87L854.293 68L868.739 81L883.185 85.5L897.63 83.5L912.076 75.5L926.522 74.5L940.967 61L955.413 65L969.859 38.5H998.75L1013.2 47L1027.64 87L1042.09 93.5L1056.53 97L1070.98 103L1085.42 125L1099.87 97L1114.32 85.5L1128.76 82L1143.21 72L1157.65 69L1172.1 74L1186.54 60L1200.99 47L1215.43 57.5L1229.88 33L1244.33 50L1258.77 44.5L1273.22 20L1287.66 44.5L1302.11 36.5L1316.55 44.5L1331 41.5" stroke="white" stroke-opacity="0.3" stroke-linecap="round" stroke-linejoin="round" stroke-dasharray="1 2"/>
<rect x="1" y="302" width="13" height="11" fill="#242424"/>
<path d="M7.36 311.1C6.8 311.1 6.3 310.96 5.86 310.68C5.42 310.393 5.07333 309.98 4.82 309.44C4.56667 308.893 4.44 308.247 4.44 307.5C4.44 306.753 4.56667 306.11 4.82 305.57C5.07333 305.023 5.42 304.61 5.86 304.33C6.3 304.043 6.8 303.9 7.36 303.9C7.92 303.9 8.42 304.043 8.86 304.33C9.30667 304.61 9.65667 305.023 9.91 305.57C10.1633 306.11 10.29 306.753 10.29 307.5C10.29 308.247 10.1633 308.893 9.91 309.44C9.65667 309.98 9.30667 310.393 8.86 310.68C8.42 310.96 7.92 311.1 7.36 311.1ZM7.36 309.97C7.86 309.97 8.25333 309.763 8.54 309.35C8.83333 308.937 8.98 308.32 8.98 307.5C8.98 306.68 8.83333 306.063 8.54 305.65C8.25333 305.237 7.86 305.03 7.36 305.03C6.86667 305.03 6.47333 305.237 6.18 305.65C5.89333 306.063 5.75 306.68 5.75 307.5C5.75 308.32 5.89333 308.937 6.18 309.35C6.47333 309.763 6.86667 309.97 7.36 309.97Z" fill="#737373"/>
<rect x="1" y="202" width="19" height="11" fill="#242424"/>
<path d="M6.63 206.71C7.61667 206.71 8.34667 206.903 8.82 207.29C9.29333 207.67 9.53 208.19 9.53 208.85C9.53 209.27 9.42667 209.65 9.22 209.99C9.01333 210.33 8.70333 210.6 8.29 210.8C7.87667 211 7.36667 211.1 6.76 211.1C6.26 211.1 5.77667 211.03 5.31 210.89C4.84333 210.743 4.45 210.543 4.13 210.29L4.68 209.28C4.94 209.493 5.25 209.663 5.61 209.79C5.97667 209.91 6.35333 209.97 6.74 209.97C7.2 209.97 7.56 209.877 7.82 209.69C8.08667 209.497 8.22 209.233 8.22 208.9C8.22 208.54 8.07667 208.27 7.79 208.09C7.51 207.903 7.02667 207.81 6.34 207.81H4.65L5.01 204H9.12V205.09H6.11L5.96 206.71H6.63ZM13.1998 211.1C12.6398 211.1 12.1398 210.96 11.6998 210.68C11.2598 210.393 10.9132 209.98 10.6598 209.44C10.4065 208.893 10.2798 208.247 10.2798 207.5C10.2798 206.753 10.4065 206.11 10.6598 205.57C10.9132 205.023 11.2598 204.61 11.6998 204.33C12.1398 204.043 12.6398 203.9 13.1998 203.9C13.7598 203.9 14.2598 204.043 14.6998 204.33C15.1465 204.61 15.4965 205.023 15.7498 205.57C16.0032 206.11 16.1298 206.753 16.1298 207.5C16.1298 208.247 16.0032 208.893 15.7498 209.44C15.4965 209.98 15.1465 210.393 14.6998 210.68C14.2598 210.96 13.7598 211.1 13.1998 211.1ZM13.1998 209.97C13.6998 209.97 14.0932 209.763 14.3798 209.35C14.6732 208.937 14.8198 208.32 14.8198 207.5C14.8198 206.68 14.6732 206.063 14.3798 205.65C14.0932 205.237 13.6998 205.03 13.1998 205.03C12.7065 205.03 12.3132 205.237 12.0198 205.65C11.7332 206.063 11.5898 206.68 11.5898 207.5C11.5898 208.32 11.7332 208.937 12.0198 209.35C12.3132 209.763 12.7065 209.97 13.1998 209.97Z" fill="#737373"/>
<rect x="1" y="101" width="24" height="11" fill="#242424"/>
<path d="M6.86 103V110H5.56V104.09H4.08V103H6.86ZM11.1686 110.1C10.6086 110.1 10.1086 109.96 9.66859 109.68C9.22859 109.393 8.88193 108.98 8.62859 108.44C8.37526 107.893 8.24859 107.247 8.24859 106.5C8.24859 105.753 8.37526 105.11 8.62859 104.57C8.88193 104.023 9.22859 103.61 9.66859 103.33C10.1086 103.043 10.6086 102.9 11.1686 102.9C11.7286 102.9 12.2286 103.043 12.6686 103.33C13.1153 103.61 13.4653 104.023 13.7186 104.57C13.9719 105.11 14.0986 105.753 14.0986 106.5C14.0986 107.247 13.9719 107.893 13.7186 108.44C13.4653 108.98 13.1153 109.393 12.6686 109.68C12.2286 109.96 11.7286 110.1 11.1686 110.1ZM11.1686 108.97C11.6686 108.97 12.0619 108.763 12.3486 108.35C12.6419 107.937 12.7886 107.32 12.7886 106.5C12.7886 105.68 12.6419 105.063 12.3486 104.65C12.0619 104.237 11.6686 104.03 11.1686 104.03C10.6753 104.03 10.2819 104.237 9.98859 104.65C9.70193 105.063 9.55859 105.68 9.55859 106.5C9.55859 107.32 9.70193 107.937 9.98859 108.35C10.2819 108.763 10.6753 108.97 11.1686 108.97ZM17.8971 110.1C17.3371 110.1 16.8371 109.96 16.3971 109.68C15.9571 109.393 15.6104 108.98 15.3571 108.44C15.1038 107.893 14.9771 107.247 14.9771 106.5C14.9771 105.753 15.1038 105.11 15.3571 104.57C15.6104 104.023 15.9571 103.61 16.3971 103.33C16.8371 103.043 17.3371 102.9 17.8971 102.9C18.4571 102.9 18.9571 103.043 19.3971 103.33C19.8438 103.61 20.1938 104.023 20.4471 104.57C20.7004 105.11 20.8271 105.753 20.8271 106.5C20.8271 107.247 20.7004 107.893 20.4471 108.44C20.1938 108.98 19.8438 109.393 19.3971 109.68C18.9571 109.96 18.4571 110.1 17.8971 110.1ZM17.8971 108.97C18.3971 108.97 18.7904 108.763 19.0771 108.35C19.3704 107.937 19.5171 107.32 19.5171 106.5C19.5171 105.68 19.3704 105.063 19.0771 104.65C18.7904 104.237 18.3971 104.03 17.8971 104.03C17.4038 104.03 17.0104 104.237 16.7171 104.65C16.4304 105.063 16.2871 105.68 16.2871 106.5C16.2871 107.32 16.4304 107.937 16.7171 108.35C17.0104 108.763 17.4038 108.97 17.8971 108.97Z" fill="#737373"/>
<rect x="1" width="23" height="11" fill="#242424"/>
<path d="M6.86 2V9H5.56V3.09H4.08V2H6.86ZM10.4386 4.71C11.4253 4.71 12.1553 4.90333 12.6286 5.29C13.1019 5.67 13.3386 6.19 13.3386 6.85C13.3386 7.27 13.2353 7.65 13.0286 7.99C12.8219 8.33 12.5119 8.6 12.0986 8.8C11.6853 9 11.1753 9.1 10.5686 9.1C10.0686 9.1 9.58526 9.03 9.11859 8.89C8.65193 8.74333 8.25859 8.54333 7.93859 8.29L8.48859 7.28C8.74859 7.49333 9.05859 7.66333 9.41859 7.79C9.78526 7.91 10.1619 7.97 10.5486 7.97C11.0086 7.97 11.3686 7.87667 11.6286 7.69C11.8953 7.49667 12.0286 7.23333 12.0286 6.9C12.0286 6.54 11.8853 6.27 11.5986 6.09C11.3186 5.90333 10.8353 5.81 10.1486 5.81H8.45859L8.81859 2H12.9286V3.09H9.91859L9.76859 4.71H10.4386ZM17.0084 9.1C16.4484 9.1 15.9484 8.96 15.5084 8.68C15.0684 8.39333 14.7218 7.98 14.4684 7.44C14.2151 6.89333 14.0884 6.24667 14.0884 5.5C14.0884 4.75333 14.2151 4.11 14.4684 3.57C14.7218 3.02333 15.0684 2.61 15.5084 2.33C15.9484 2.04333 16.4484 1.9 17.0084 1.9C17.5684 1.9 18.0684 2.04333 18.5084 2.33C18.9551 2.61 19.3051 3.02333 19.5584 3.57C19.8118 4.11 19.9384 4.75333 19.9384 5.5C19.9384 6.24667 19.8118 6.89333 19.5584 7.44C19.3051 7.98 18.9551 8.39333 18.5084 8.68C18.0684 8.96 17.5684 9.1 17.0084 9.1ZM17.0084 7.97C17.5084 7.97 17.9018 7.76333 18.1884 7.35C18.4818 6.93667 18.6284 6.32 18.6284 5.5C18.6284 4.68 18.4818 4.06333 18.1884 3.65C17.9018 3.23667 17.5084 3.03 17.0084 3.03C16.5151 3.03 16.1218 3.23667 15.8284 3.65C15.5418 4.06333 15.3984 4.68 15.3984 5.5C15.3984 6.32 15.5418 6.93667 15.8284 7.35C16.1218 7.76333 16.5151 7.97 17.0084 7.97Z" fill="#737373"/>
</svg>
