<svg width="867" height="329" viewBox="0 0 867 329" fill="none" xmlns="http://www.w3.org/2000/svg">
<rect y="302" width="867" height="1" fill="white" fill-opacity="0.07"/>
<rect y="202" width="867" height="1" fill="white" fill-opacity="0.07"/>
<rect y="101" width="867" height="1" fill="white" fill-opacity="0.07"/>
<rect width="867" height="1" fill="white" fill-opacity="0.07"/>
<path d="M1 301H10.4012H19.8024L29.2036 261.5H38.6048L48.006 259L57.4072 263.5L66.8084 270L76.2096 267L85.6108 259.5H104.413L113.814 255L123.216 246L132.617 248.5L142.018 243.5L151.419 255.5L160.82 233.5L170.222 231L179.623 218L189.024 215L198.425 204L207.827 202L217.228 207L226.629 190.5H236.03L245.431 188.5L254.833 180.5L264.234 183.5L273.635 176.5L283.036 173.5L292.437 175.5L301.839 171.5L311.24 163L320.641 153.5L330.042 151.5L339.443 157.5L348.845 154.5L358.246 145.5H377.048L386.449 140L395.851 153L405.252 155.5L414.653 163.5L424.054 161L433.455 144.5L442.857 135L452.258 130H471.06L480.461 125L489.863 98L499.264 96L508.665 85L518.066 88.5L527.467 85L536.869 78.5L546.27 82L555.671 63L565.072 76L574.474 80.5L583.875 78.5L593.276 70.5L602.677 69.5L612.078 56L621.479 60L630.881 33.5H649.683L659.084 42L668.486 67.5L677.887 70.5L687.288 66L696.689 74.5L706.09 95L715.492 92L724.893 80.5L734.294 77L743.695 67L753.096 64L762.498 69L771.899 55L781.3 42L790.701 52.5L800.102 28L809.504 39L818.905 18L828.306 1L837.707 18.5L847.108 31.5L856.51 39.5L865.911 36.5" stroke="white" stroke-opacity="0.5" stroke-linejoin="round"/>
<path d="M1 301H10.4012H19.8024L29.2036 261.5H38.6048L48.006 259L57.4072 263.5L66.8084 270L76.2096 267H85.6108L104.413 266L113.814 268L123.216 246L132.617 248.5L142.018 243.5L151.419 255.5L160.82 233.5L170.222 237L179.623 230L189.024 226.5L198.425 204L207.827 202L217.228 207L226.629 190.5H236.03L245.431 188.5L254.833 180.5L264.234 183.5L273.635 191.5L283.036 195.5L292.437 193L301.839 187.5L311.24 163L320.641 153.5L330.042 151.5L339.443 157.5L348.845 154.5L358.246 145.5H377.048L386.449 140L395.851 157.5L405.252 159L414.653 166.5L424.054 164.5L433.455 159L442.857 154.5L452.258 157.5L461.659 152L471.06 143L480.461 125L489.863 98L499.264 96L508.665 85L518.066 88.5L527.467 85L536.869 78.5L546.27 82L555.671 63L565.072 76L574.474 80.5L583.875 78.5L593.276 70.5L602.677 69.5L612.078 56L621.479 60L630.881 33.5H649.683L659.084 42L668.486 82L677.887 88.5L687.288 92L696.689 98L706.09 120L715.492 92L724.893 80.5L734.294 77L743.695 67L753.096 64L762.498 69L771.899 55L781.3 42L790.701 52.5L800.102 28L809.504 45L818.905 39.5L828.306 15L837.707 39.5L847.108 31.5L856.51 39.5L865.911 36.5" stroke="white" stroke-opacity="0.3" stroke-linecap="round" stroke-linejoin="round" stroke-dasharray="1 2"/>
<path d="M21 329C16.5886 329 13 325.411 13 321C13 316.589 16.5886 313 21 313C25.4114 313 29 316.589 29 321C29 325.411 25.4114 329 21 329ZM21 314C17.14 314 14 317.14 14 321C14 324.86 17.14 328 21 328C24.86 328 28 324.86 28 321C28 317.14 24.86 314 21 314Z" fill="#737373"/>
<path d="M24.5 321.5H17.5C17.224 321.5 17 321.276 17 321C17 320.724 17.224 320.5 17.5 320.5H24.5C24.776 320.5 25 320.724 25 321C25 321.276 24.776 321.5 24.5 321.5Z" fill="#737373"/>
<path d="M21 325C20.724 325 20.5 324.776 20.5 324.5V317.5C20.5 317.224 20.724 317 21 317C21.276 317 21.5 317.224 21.5 317.5V324.5C21.5 324.776 21.276 325 21 325Z" fill="#737373"/>
<path d="M425 329C420.589 329 417 325.411 417 321C417 316.589 420.589 313 425 313C429.411 313 433 316.589 433 321C433 325.411 429.411 329 425 329ZM425 314C421.14 314 418 317.14 418 321C418 324.86 421.14 328 425 328C428.86 328 432 324.86 432 321C432 317.14 428.86 314 425 314Z" fill="#737373"/>
<path d="M428.5 321.5H421.5C421.224 321.5 421 321.276 421 321C421 320.724 421.224 320.5 421.5 320.5H428.5C428.776 320.5 429 320.724 429 321C429 321.276 428.776 321.5 428.5 321.5Z" fill="#737373"/>
<path d="M425 325C424.724 325 424.5 324.776 424.5 324.5V317.5C424.5 317.224 424.724 317 425 317C425.276 317 425.5 317.224 425.5 317.5V324.5C425.5 324.776 425.276 325 425 325Z" fill="#737373"/>
<path d="M151 329C146.589 329 143 325.411 143 321C143 316.589 146.589 313 151 313C155.411 313 159 316.589 159 321C159 325.411 155.411 329 151 329ZM151 314C147.14 314 144 317.14 144 321C144 324.86 147.14 328 151 328C154.86 328 158 324.86 158 321C158 317.14 154.86 314 151 314Z" fill="#737373"/>
<path d="M154.5 321.5H147.5C147.224 321.5 147 321.276 147 321C147 320.724 147.224 320.5 147.5 320.5H154.5C154.776 320.5 155 320.724 155 321C155 321.276 154.776 321.5 154.5 321.5Z" fill="#737373"/>
<path d="M657 329C652.589 329 649 325.411 649 321C649 316.589 652.589 313 657 313C661.411 313 665 316.589 665 321C665 325.411 661.411 329 657 329ZM657 314C653.14 314 650 317.14 650 321C650 324.86 653.14 328 657 328C660.86 328 664 324.86 664 321C664 317.14 660.86 314 657 314Z" fill="#737373"/>
<path d="M660.5 321.5H653.5C653.224 321.5 653 321.276 653 321C653 320.724 653.224 320.5 653.5 320.5H660.5C660.776 320.5 661 320.724 661 321C661 321.276 660.776 321.5 660.5 321.5Z" fill="#737373"/>
</svg>
