<svg width="56" height="41" viewBox="0 0 56 41" fill="none" xmlns="http://www.w3.org/2000/svg">
<path d="M51.9019 2.63306H3.2182C2.89508 2.63306 2.63306 2.89508 2.63306 3.2182V32.884C2.63306 33.2072 2.89508 33.4692 3.2182 33.4692H51.9019C52.2252 33.4692 52.4871 33.2072 52.4871 32.884V3.2182C52.4871 2.89497 52.2252 2.63306 51.9019 2.63306ZM51.3168 32.2989H3.80334V3.80334H51.3168V32.2989Z" fill="#E52525"/>
<path d="M52.5521 0H2.5683C1.15214 0 0 1.15214 0 2.56818V33.5341C0 34.9502 1.15214 36.1023 2.5683 36.1023H19.9286L19.0029 38.3441H15.2847C14.8 38.3441 14.407 38.737 14.407 39.2218C14.407 39.7065 14.8 40.0995 15.2847 40.0995H39.8361C40.3209 40.0995 40.7138 39.7065 40.7138 39.2218C40.7138 38.737 40.3209 38.3441 39.8361 38.3441H36.1178L35.192 36.1023H52.5523C53.9685 36.1023 55.1205 34.9501 55.1205 33.5341V2.56818C55.1203 1.15214 53.9683 0 52.5521 0ZM34.2183 38.3442H20.9019L21.8278 36.1024H33.2927L34.2183 38.3442ZM53.3649 33.5342C53.3649 33.9824 53.0003 34.347 52.5521 34.347H2.5683C2.12008 34.347 1.75542 33.9823 1.75542 33.5342V2.56818C1.75542 2.11997 2.12008 1.75531 2.5683 1.75531H52.5521C53.0003 1.75531 53.3649 2.11997 53.3649 2.56818V33.5342Z" fill="#E52525"/>
</svg>
