<svg width="31" height="31" viewBox="0 0 31 31" fill="none" xmlns="http://www.w3.org/2000/svg">
<path d="M31 15.5C31 24.0623 24.0598 31 15.5 31C6.94019 31 0 24.0623 0 15.5C0 6.94269 6.94019 0 15.5 0C24.0598 0 31 6.94269 31 15.5ZM15.9159 5.125C12.5099 5.125 10.3375 6.55981 8.63163 9.10987C8.41063 9.44025 8.48456 9.88581 8.80131 10.126L10.97 11.7704C11.2953 12.0171 11.7588 11.9584 12.0116 11.6377C13.1281 10.2216 13.8936 9.40044 15.593 9.40044C16.8698 9.40044 18.4491 10.2222 18.4491 11.4603C18.4491 12.3963 17.6764 12.877 16.4158 13.5838C14.9455 14.408 13 15.4338 13 18V18.25C13 18.6642 13.3358 19 13.75 19H17.25C17.6642 19 18 18.6642 18 18.25V18.1667C18 16.3878 23.1991 16.3137 23.1991 11.5C23.1991 7.87488 19.4388 5.125 15.9159 5.125ZM15.5 20.625C13.9147 20.625 12.625 21.9147 12.625 23.5C12.625 25.0853 13.9147 26.375 15.5 26.375C17.0853 26.375 18.375 25.0853 18.375 23.5C18.375 21.9147 17.0853 20.625 15.5 20.625Z" fill="#4F4F4F"/>
</svg>
