<svg width="10" height="10" viewBox="0 0 10 10" fill="none" xmlns="http://www.w3.org/2000/svg">
<path d="M9.95957 4.37344C9.92696 4.11997 9.78348 3.89954 9.56608 3.76823C9.3526 3.63952 9.09478 3.61562 8.85609 3.70474C8.66653 3.77518 8.45435 3.67778 8.36826 3.48561C8.26695 3.25865 8.14173 3.04126 7.99695 2.83953C7.87131 2.66475 7.89478 2.43518 8.05086 2.30648C8.24433 2.14778 8.35216 1.913 8.34737 1.66256C8.34215 1.40821 8.22258 1.17343 8.01825 1.01909C7.68607 0.767352 7.32346 0.557781 6.94043 0.39649C6.70347 0.296932 6.43913 0.309975 6.21609 0.433012C5.99696 0.55344 5.84739 0.764316 5.80652 1.01127C5.77304 1.21213 5.58436 1.34214 5.36957 1.32431C5.12653 1.29865 4.87304 1.29865 4.62958 1.32431C4.41175 1.34214 4.2261 1.21256 4.19305 1.01169C4.15218 0.764295 4.00304 0.55344 3.78391 0.432991C3.55999 0.309955 3.29651 0.296463 3.05912 0.396042C2.67564 0.557781 2.31304 0.767352 1.9813 1.01864C1.7774 1.17343 1.6574 1.40777 1.65261 1.66211C1.64739 1.91255 1.75565 2.14776 1.94912 2.30734C2.10564 2.43604 2.12869 2.66473 2.00303 2.83994C1.85782 3.04254 1.7326 3.25951 1.63172 3.48559C1.5452 3.67863 1.33084 3.77516 1.13955 3.70299C0.905645 3.6156 0.648688 3.6395 0.434327 3.76821C0.216929 3.89907 0.073023 4.1195 0.0404144 4.373C0.0134715 4.58126 0 4.79214 0 4.99996C0 5.20778 0.0134715 5.41865 0.0404348 5.62647C0.0730434 5.87994 0.216522 6.10083 0.43392 6.23169C0.64826 6.36082 0.905665 6.3856 1.14436 6.29517C1.33045 6.22604 1.54522 6.32126 1.63176 6.5143C1.73262 6.74038 1.85784 6.95778 2.00307 7.16038C2.12871 7.33517 2.10524 7.5643 1.94871 7.69343C1.75567 7.85214 1.64784 8.08692 1.65263 8.33735C1.65785 8.5917 1.77742 8.82648 1.98132 8.98127C2.31263 9.23214 2.67524 9.44171 3.05914 9.60387C3.16437 9.64822 3.27479 9.66997 3.3848 9.66997C3.52263 9.66997 3.65959 9.63563 3.7835 9.56692C4.00263 9.4465 4.15221 9.23519 4.19307 8.98867C4.22655 8.7878 4.41742 8.65433 4.63002 8.67606C4.87306 8.70171 5.12655 8.70171 5.37002 8.67606C5.58611 8.65476 5.77306 8.7878 5.80654 8.98867C5.84786 9.23562 5.99698 9.4465 6.21611 9.56692C6.44003 9.69041 6.70351 9.703 6.94045 9.60387C7.32393 9.44213 7.68654 9.23256 8.01827 8.98127C8.22217 8.82648 8.34175 8.5917 8.34696 8.33735C8.35175 8.08692 8.24349 7.85214 8.04957 7.69301C7.89348 7.5643 7.87045 7.33561 7.9961 7.1604C8.14131 6.95866 8.26609 6.74083 8.36741 6.51475C8.45437 6.32128 8.67001 6.22649 8.85523 6.29519L8.86002 6.29693C9.0948 6.38562 9.35219 6.36084 9.56567 6.23214C9.7835 6.10083 9.92655 5.88039 9.95916 5.62735C9.98655 5.42039 10 5.20953 10 4.99996C10 4.79039 9.98651 4.57953 9.95957 4.37344ZM4.99999 6.95648C3.92129 6.95648 3.04347 6.07865 3.04347 4.99996C3.04347 3.92126 3.92129 3.04344 4.99999 3.04344C6.07868 3.04344 6.95651 3.92126 6.95651 4.99996C6.95651 6.07865 6.07868 6.95648 4.99999 6.95648Z" fill="#E52525"/>
</svg>
