<svg width="10" height="10" viewBox="0 0 10 10" fill="none" xmlns="http://www.w3.org/2000/svg">
<g clip-path="url(#clip0)">
<path d="M9.95957 4.37343C9.92696 4.11996 9.78348 3.89953 9.56608 3.76822C9.3526 3.63952 9.09478 3.61561 8.85609 3.70473C8.66653 3.77517 8.45435 3.67777 8.36826 3.4856C8.26695 3.25865 8.14173 3.04125 7.99695 2.83952C7.87131 2.66474 7.89478 2.43518 8.05086 2.30647C8.24433 2.14777 8.35216 1.91299 8.34737 1.66255C8.34215 1.40821 8.22258 1.17342 8.01825 1.01908C7.68607 0.767344 7.32346 0.557772 6.94043 0.396481C6.70347 0.296923 6.43913 0.309966 6.21609 0.433003C5.99696 0.553431 5.84739 0.764307 5.80652 1.01126C5.77304 1.21213 5.58436 1.34213 5.36957 1.3243C5.12653 1.29864 4.87304 1.29864 4.62958 1.3243C4.41175 1.34213 4.2261 1.21255 4.19305 1.01168C4.15218 0.764287 4.00304 0.553431 3.78391 0.432983C3.55999 0.309946 3.29651 0.296454 3.05912 0.396033C2.67564 0.557772 2.31304 0.767344 1.9813 1.01863C1.7774 1.17342 1.6574 1.40776 1.65261 1.66211C1.64739 1.91254 1.75565 2.14775 1.94912 2.30733C2.10564 2.43603 2.12869 2.66472 2.00303 2.83993C1.85782 3.04253 1.7326 3.2595 1.63172 3.48558C1.5452 3.67863 1.33084 3.77515 1.13955 3.70298C0.905645 3.61559 0.648688 3.63949 0.434327 3.7682C0.216929 3.89906 0.0730231 4.11949 0.0404144 4.37299C0.0134715 4.58125 0 4.79213 0 4.99995C0 5.20777 0.0134715 5.41864 0.0404348 5.62646C0.0730434 5.87993 0.216522 6.10082 0.43392 6.23168C0.64826 6.36081 0.905665 6.38559 1.14436 6.29517C1.33045 6.22604 1.54522 6.32125 1.63176 6.5143C1.73262 6.74038 1.85784 6.95777 2.00307 7.16038C2.12871 7.33516 2.10524 7.56429 1.94871 7.69343C1.75567 7.85213 1.64784 8.08691 1.65263 8.33735C1.65785 8.59169 1.77742 8.82648 1.98132 8.98126C2.31263 9.23213 2.67524 9.4417 3.05914 9.60386C3.16437 9.64821 3.27479 9.66996 3.3848 9.66996C3.52263 9.66996 3.65959 9.63562 3.7835 9.56692C4.00263 9.44649 4.1522 9.23518 4.19307 8.98866C4.22655 8.78779 4.41742 8.65432 4.63002 8.67605C4.87306 8.70171 5.12655 8.70171 5.37002 8.67605C5.58611 8.65475 5.77306 8.78779 5.80654 8.98866C5.84786 9.23561 5.99698 9.44649 6.21611 9.56692C6.44003 9.6904 6.70351 9.703 6.94045 9.60386C7.32393 9.44213 7.68654 9.23255 8.01827 8.98126C8.22217 8.82648 8.34175 8.59169 8.34696 8.33735C8.35175 8.08691 8.24349 7.85213 8.04957 7.693C7.89348 7.56429 7.87045 7.33561 7.9961 7.1604C8.14131 6.95865 8.2661 6.74082 8.36741 6.51474C8.45437 6.32127 8.67001 6.22648 8.85523 6.29519L8.86002 6.29692C9.0948 6.38561 9.35219 6.36083 9.56567 6.23213C9.7835 6.10082 9.92655 5.88038 9.95916 5.62734C9.98655 5.42038 10 5.20952 10 4.99995C10 4.79038 9.98651 4.57952 9.95957 4.37343ZM4.99999 6.95647C3.92129 6.95647 3.04347 6.07864 3.04347 4.99995C3.04347 3.92125 3.92129 3.04343 4.99999 3.04343C6.07868 3.04343 6.95651 3.92125 6.95651 4.99995C6.95651 6.07864 6.07868 6.95647 4.99999 6.95647Z" fill="#737373"/>
</g>
<defs>
<clipPath id="clip0">
<rect width="10" height="10" fill="white"/>
</clipPath>
</defs>
</svg>
