<svg width="80" height="28" viewBox="0 0 80 28" fill="none" xmlns="http://www.w3.org/2000/svg">
<path d="M63.598 2.72327L70.2714 1.52183V26.9924H63.598V2.72327ZM73.3266 2.72327V26.9924H80V1.52183L73.3266 2.72327ZM54.1508 26.9924H60.8241V8.37004H54.1508V26.9924ZM10.1307 11.0132C9.28643 10.9732 7.35678 10.853 7.35678 9.09091C7.35678 6.96836 10.1709 6.96836 11.2161 6.96836C13.0653 6.96836 15.4774 7.52904 17.1658 8.00961C17.1658 8.00961 18.1307 8.33 18.9347 8.69043L19.0151 8.73048V8.65038V2.96356L18.8945 2.92351C16.8844 2.20264 14.5126 1.56187 10.1709 1.56187C2.65327 1.52183 0 5.88706 0 9.61153C0 11.7741 0.924624 16.8202 9.52764 17.4209C10.2513 17.461 12.1809 17.5811 12.1809 19.3833C12.1809 20.865 10.6131 21.7461 7.9196 21.7461C4.98492 21.7461 2.17085 20.9852 0.442211 20.3044V26.2715C3.01508 26.9523 5.90955 27.2727 9.32663 27.2727C16.6834 27.2727 19.9397 23.1478 19.9397 19.0629C19.9799 14.4173 16.2814 11.4137 10.1307 11.0132ZM50.3719 8.08971C44.2211 8.28995 41.0854 11.0533 41.0854 16.4998V26.9924H47.799V18.4622C47.799 15.1782 48.2412 13.7765 52.1407 13.6564V8.20985C51.4975 8.04966 50.3719 8.08971 50.3719 8.08971ZM32.3216 8.33C32.1608 8.69043 31.1156 11.694 28.5427 14.8178V1.52183L21.6683 2.88346V26.9924H28.5427V19.5435C30.5528 22.507 31.5176 26.9924 31.5176 26.9924H39.7588C38.9548 23.6284 35.3769 17.4209 35.3769 17.4209C38.593 13.3761 39.9598 9.09091 40.201 8.37004H32.3216V8.33ZM57.4472 6.56788C59.2563 6.56788 60.7437 5.0861 60.7437 3.28394C60.7437 1.48178 59.2563 0 57.4472 0C55.6382 0 54.1508 1.48178 54.1508 3.28394C54.191 5.12615 55.6382 6.56788 57.4472 6.56788Z" fill="#862165"/>
</svg>
