<svg width="20" height="20" viewBox="0 0 20 20" fill="none" xmlns="http://www.w3.org/2000/svg">
<path d="M17.0711 2.92891C15.1823 1.0402 12.6711 0 10 0C7.32887 0 4.81762 1.0402 2.92891 2.92891C1.04016 4.81766 0 7.32891 0 10C0 12.6711 1.04016 15.1823 2.92891 17.0711C4.81766 18.9598 7.32887 20 10 20C12.6711 20 15.1823 18.9598 17.0711 17.0711C18.9598 15.1823 20 12.6711 20 10C20 7.32891 18.9598 4.8177 17.0711 2.92891ZM10 18.8281C5.13215 18.8281 1.17188 14.8679 1.17188 10C1.17188 5.13215 5.13215 1.17188 10 1.17188C14.8679 1.17188 18.8281 5.13215 18.8281 10C18.8281 14.8679 14.8679 18.8281 10 18.8281Z" fill="#8DC640"/>
<path d="M14.7775 6.79137C14.5487 6.56262 14.1777 6.56262 13.9489 6.79141L8.77477 11.9656L6.05105 9.24187C5.82227 9.01309 5.45125 9.01309 5.22242 9.24187C4.99359 9.47066 4.99359 9.84168 5.22242 10.0705L8.36043 13.2085C8.47484 13.3229 8.6248 13.3801 8.77473 13.3801C8.92465 13.3801 9.07465 13.3229 9.18902 13.2085L14.7775 7.62C15.0064 7.39121 15.0064 7.0202 14.7775 6.79137Z" fill="#8DC640"/>
</svg>
