<svg width="80" height="26" viewBox="0 0 80 26" fill="none" xmlns="http://www.w3.org/2000/svg">
<path d="M34.6808 25.5211H28.1529L32.2327 0.448021H38.7612L34.6808 25.5211ZM22.6613 0.448021L16.438 17.6935L15.7015 13.9799L15.7022 13.9812L13.5057 2.70557C13.5057 2.70557 13.2401 0.448021 10.4091 0.448021H0.120725L0 0.872568C0 0.872568 3.14621 1.52716 6.8283 3.73843L12.4997 25.5218H19.3011L29.6868 0.448021H22.6613V0.448021ZM74.006 25.5211H80L74.774 0.447351H69.5265C67.1033 0.447351 66.5131 2.31589 66.5131 2.31589L56.7773 25.5211H63.5822L64.943 21.7968H73.2415L74.006 25.5211ZM66.8229 16.6519L70.2529 7.26895L72.1824 16.6519H66.8229ZM57.2877 6.47753L58.2193 1.09322C58.2193 1.09322 55.3447 0 52.3481 0C49.1087 0 41.4158 1.41583 41.4158 8.30047C41.4158 14.778 50.4447 14.8585 50.4447 18.2609C50.4447 21.6633 42.3461 21.0537 39.6734 18.9081L38.7029 24.5379C38.7029 24.5379 41.6177 25.9537 46.0711 25.9537C50.5258 25.9537 57.2461 23.6472 57.2461 17.3696C57.2461 10.8504 48.1362 10.2435 48.1362 7.40912C48.1368 4.57411 54.4943 4.93829 57.2877 6.47753V6.47753Z" fill="#2566AF"/>
<path d="M15.7022 13.9806L13.5057 2.7049C13.5057 2.7049 13.2401 0.447357 10.4091 0.447357H0.120725L0 0.871904C0 0.871904 4.945 1.89672 9.68813 5.73642C14.2233 9.40644 15.7022 13.9806 15.7022 13.9806Z" fill="#E6A540"/>
</svg>
